<mxfile host="65bd71144e">
    <diagram id="bpbkTxAe3MsM5qXTKhsR" name="Page-1">
        <mxGraphModel dx="2214" dy="549" grid="1" gridSize="10" guides="1" tooltips="1" connect="1" arrows="1" fold="1" page="1" pageScale="1" pageWidth="1100" pageHeight="850" math="0" shadow="0">
            <root>
                <mxCell id="0"/>
                <mxCell id="1" parent="0"/>
                <mxCell id="154" value="Iterator Design Pattern" style="text;html=1;align=center;verticalAlign=middle;resizable=1;points=[];autosize=1;strokeColor=#C73500;fillColor=#fa6800;fontColor=#000000;fontSize=25;movable=1;rotatable=1;deletable=1;editable=1;connectable=1;" parent="1" vertex="1">
                    <mxGeometry x="-1050" y="40" width="270" height="40" as="geometry"/>
                </mxCell>
                <mxCell id="201" value="&lt;span style=&quot;font-size: 14px;&quot;&gt;provides a way to access the elements of an aggregate object sequentially without exposing its underlying representation.&amp;nbsp;&lt;/span&gt;" style="shape=note2;boundedLbl=1;whiteSpace=wrap;html=1;size=25;verticalAlign=top;align=left;movable=1;resizable=1;rotatable=1;deletable=1;editable=1;connectable=1;" parent="1" vertex="1">
                    <mxGeometry x="-590" y="40" width="510" height="70" as="geometry"/>
                </mxCell>
                <mxCell id="477" value="&lt;&lt;interface&gt;&gt;&#10;IEnumerable" style="swimlane;fontStyle=1;align=center;verticalAlign=top;childLayout=stackLayout;horizontal=1;startSize=40;horizontalStack=0;resizeParent=1;resizeParentMax=0;resizeLast=0;collapsible=1;marginBottom=0;strokeColor=#0066CC;" parent="1" vertex="1">
                    <mxGeometry x="-685" y="980" width="205" height="74" as="geometry"/>
                </mxCell>
                <mxCell id="478" value="" style="line;strokeWidth=1;fillColor=none;align=left;verticalAlign=middle;spacingTop=-1;spacingLeft=3;spacingRight=3;rotatable=0;labelPosition=right;points=[];portConstraint=eastwest;strokeColor=inherit;" parent="477" vertex="1">
                    <mxGeometry y="40" width="205" height="8" as="geometry"/>
                </mxCell>
                <mxCell id="479" value="GetEnumerator():IEnumerator" style="text;strokeColor=none;fillColor=none;align=left;verticalAlign=top;spacingLeft=4;spacingRight=4;overflow=hidden;rotatable=0;points=[[0,0.5],[1,0.5]];portConstraint=eastwest;" parent="477" vertex="1">
                    <mxGeometry y="48" width="205" height="26" as="geometry"/>
                </mxCell>
                <mxCell id="480" value="&lt;&lt;interface&gt;&gt;&#10;IEnumerator" style="swimlane;fontStyle=1;align=center;verticalAlign=top;childLayout=stackLayout;horizontal=1;startSize=41;horizontalStack=0;resizeParent=1;resizeParentMax=0;resizeLast=0;collapsible=1;marginBottom=0;strokeColor=#0066CC;" parent="1" vertex="1">
                    <mxGeometry x="-400" y="940" width="160" height="120" as="geometry"/>
                </mxCell>
                <mxCell id="481" value="+Current : object" style="text;strokeColor=#0066CC;fillColor=none;align=left;verticalAlign=top;spacingLeft=4;spacingRight=4;overflow=hidden;rotatable=0;points=[[0,0.5],[1,0.5]];portConstraint=eastwest;" parent="480" vertex="1">
                    <mxGeometry y="41" width="160" height="26" as="geometry"/>
                </mxCell>
                <mxCell id="482" value="" style="line;strokeWidth=1;fillColor=none;align=left;verticalAlign=middle;spacingTop=-1;spacingLeft=3;spacingRight=3;rotatable=0;labelPosition=right;points=[];portConstraint=eastwest;strokeColor=inherit;" parent="480" vertex="1">
                    <mxGeometry y="67" width="160" height="8" as="geometry"/>
                </mxCell>
                <mxCell id="483" value="+MoveNext():bool&#10;+Reset():void" style="text;strokeColor=none;fillColor=none;align=left;verticalAlign=top;spacingLeft=4;spacingRight=4;overflow=hidden;rotatable=0;points=[[0,0.5],[1,0.5]];portConstraint=eastwest;" parent="480" vertex="1">
                    <mxGeometry y="75" width="160" height="45" as="geometry"/>
                </mxCell>
                <mxCell id="484" value="ConcreteAggregate" style="swimlane;fontStyle=1;align=center;verticalAlign=top;childLayout=stackLayout;horizontal=1;startSize=26;horizontalStack=0;resizeParent=1;resizeParentMax=0;resizeLast=0;collapsible=1;marginBottom=0;" parent="1" vertex="1">
                    <mxGeometry x="-685" y="1160" width="160" height="60" as="geometry"/>
                </mxCell>
                <mxCell id="486" value="" style="line;strokeWidth=1;fillColor=none;align=left;verticalAlign=middle;spacingTop=-1;spacingLeft=3;spacingRight=3;rotatable=0;labelPosition=right;points=[];portConstraint=eastwest;strokeColor=inherit;" parent="484" vertex="1">
                    <mxGeometry y="26" width="160" height="8" as="geometry"/>
                </mxCell>
                <mxCell id="487" value="+CreateIterator():iterator" style="text;strokeColor=none;fillColor=none;align=left;verticalAlign=top;spacingLeft=4;spacingRight=4;overflow=hidden;rotatable=0;points=[[0,0.5],[1,0.5]];portConstraint=eastwest;" parent="484" vertex="1">
                    <mxGeometry y="34" width="160" height="26" as="geometry"/>
                </mxCell>
                <mxCell id="488" value="ConcreteIterator" style="swimlane;fontStyle=1;align=center;verticalAlign=top;childLayout=stackLayout;horizontal=1;startSize=26;horizontalStack=0;resizeParent=1;resizeParentMax=0;resizeLast=0;collapsible=1;marginBottom=0;fillColor=#FF9933;" parent="1" vertex="1">
                    <mxGeometry x="-400" y="1160" width="160" height="100" as="geometry"/>
                </mxCell>
                <mxCell id="489" value="+Current : object" style="text;strokeColor=none;fillColor=none;align=left;verticalAlign=top;spacingLeft=4;spacingRight=4;overflow=hidden;rotatable=0;points=[[0,0.5],[1,0.5]];portConstraint=eastwest;" parent="488" vertex="1">
                    <mxGeometry y="26" width="160" height="26" as="geometry"/>
                </mxCell>
                <mxCell id="490" value="" style="line;strokeWidth=1;fillColor=none;align=left;verticalAlign=middle;spacingTop=-1;spacingLeft=3;spacingRight=3;rotatable=0;labelPosition=right;points=[];portConstraint=eastwest;strokeColor=inherit;" parent="488" vertex="1">
                    <mxGeometry y="52" width="160" height="8" as="geometry"/>
                </mxCell>
                <mxCell id="491" value="+MoveNext():bool&#10;+Reset():void" style="text;strokeColor=none;fillColor=none;align=left;verticalAlign=top;spacingLeft=4;spacingRight=4;overflow=hidden;rotatable=0;points=[[0,0.5],[1,0.5]];portConstraint=eastwest;" parent="488" vertex="1">
                    <mxGeometry y="60" width="160" height="40" as="geometry"/>
                </mxCell>
                <mxCell id="492" value="client" style="html=1;" parent="1" vertex="1">
                    <mxGeometry x="-1030" y="940" width="110" height="100" as="geometry"/>
                </mxCell>
                <mxCell id="493" value="Use" style="endArrow=open;endSize=12;dashed=1;html=1;entryX=0;entryY=0.25;entryDx=0;entryDy=0;" parent="1" target="477" edge="1">
                    <mxGeometry width="160" relative="1" as="geometry">
                        <mxPoint x="-920" y="999" as="sourcePoint"/>
                        <mxPoint x="-760" y="1000" as="targetPoint"/>
                    </mxGeometry>
                </mxCell>
                <mxCell id="494" value="Use" style="endArrow=open;endSize=12;dashed=1;html=1;entryX=-0.01;entryY=0.152;entryDx=0;entryDy=0;entryPerimeter=0;" parent="1" target="480" edge="1">
                    <mxGeometry width="160" relative="1" as="geometry">
                        <mxPoint x="-920" y="960" as="sourcePoint"/>
                        <mxPoint x="-760" y="960" as="targetPoint"/>
                    </mxGeometry>
                </mxCell>
                <mxCell id="495" value="" style="endArrow=diamondThin;endFill=0;endSize=24;html=1;exitX=1;exitY=0.5;exitDx=0;exitDy=0;entryX=-0.009;entryY=0.154;entryDx=0;entryDy=0;entryPerimeter=0;" parent="1" source="484" target="489" edge="1">
                    <mxGeometry width="160" relative="1" as="geometry">
                        <mxPoint x="-530" y="1183" as="sourcePoint"/>
                        <mxPoint x="-400" y="1182.5" as="targetPoint"/>
                    </mxGeometry>
                </mxCell>
                <mxCell id="496" value="" style="endArrow=block;dashed=1;endFill=0;endSize=12;html=1;exitX=0.37;exitY=-0.014;exitDx=0;exitDy=0;exitPerimeter=0;entryX=0.289;entryY=0.995;entryDx=0;entryDy=0;entryPerimeter=0;" parent="1" source="484" target="479" edge="1">
                    <mxGeometry width="160" relative="1" as="geometry">
                        <mxPoint x="-628" y="1130" as="sourcePoint"/>
                        <mxPoint x="-630" y="1060" as="targetPoint"/>
                    </mxGeometry>
                </mxCell>
                <mxCell id="497" value="" style="endArrow=block;dashed=1;endFill=0;endSize=12;html=1;entryX=0.495;entryY=1.047;entryDx=0;entryDy=0;entryPerimeter=0;exitX=0.5;exitY=0;exitDx=0;exitDy=0;" parent="1" source="488" target="483" edge="1">
                    <mxGeometry width="160" relative="1" as="geometry">
                        <mxPoint x="-630" y="1170" as="sourcePoint"/>
                        <mxPoint x="-470" y="1170" as="targetPoint"/>
                    </mxGeometry>
                </mxCell>
                <mxCell id="498" value="" style="group" parent="1" vertex="1" connectable="0">
                    <mxGeometry x="-1020" y="160" width="790" height="294" as="geometry"/>
                </mxCell>
                <mxCell id="452" value="&lt;&lt;interface&gt;&gt;&#10;Aggregate" style="swimlane;fontStyle=1;align=center;verticalAlign=top;childLayout=stackLayout;horizontal=1;startSize=40;horizontalStack=0;resizeParent=1;resizeParentMax=0;resizeLast=0;collapsible=1;marginBottom=0;" parent="498" vertex="1">
                    <mxGeometry x="345" y="40" width="160" height="74" as="geometry"/>
                </mxCell>
                <mxCell id="454" value="" style="line;strokeWidth=1;fillColor=none;align=left;verticalAlign=middle;spacingTop=-1;spacingLeft=3;spacingRight=3;rotatable=0;labelPosition=right;points=[];portConstraint=eastwest;strokeColor=inherit;" parent="452" vertex="1">
                    <mxGeometry y="40" width="160" height="8" as="geometry"/>
                </mxCell>
                <mxCell id="455" value="+CreateIterator():Iterator" style="text;strokeColor=none;fillColor=none;align=left;verticalAlign=top;spacingLeft=4;spacingRight=4;overflow=hidden;rotatable=0;points=[[0,0.5],[1,0.5]];portConstraint=eastwest;" parent="452" vertex="1">
                    <mxGeometry y="48" width="160" height="26" as="geometry"/>
                </mxCell>
                <mxCell id="456" value="&lt;&lt;interface&gt;&gt;&#10;Iterator" style="swimlane;fontStyle=1;align=center;verticalAlign=top;childLayout=stackLayout;horizontal=1;startSize=41;horizontalStack=0;resizeParent=1;resizeParentMax=0;resizeLast=0;collapsible=1;marginBottom=0;" parent="498" vertex="1">
                    <mxGeometry x="630" width="160" height="104" as="geometry"/>
                </mxCell>
                <mxCell id="458" value="" style="line;strokeWidth=1;fillColor=none;align=left;verticalAlign=middle;spacingTop=-1;spacingLeft=3;spacingRight=3;rotatable=0;labelPosition=right;points=[];portConstraint=eastwest;strokeColor=inherit;" parent="456" vertex="1">
                    <mxGeometry y="41" width="160" height="8" as="geometry"/>
                </mxCell>
                <mxCell id="459" value="+Current(): Object&#10;+MoveNext(): bool &#10;+Reset():void" style="text;strokeColor=none;fillColor=none;align=left;verticalAlign=top;spacingLeft=4;spacingRight=4;overflow=hidden;rotatable=0;points=[[0,0.5],[1,0.5]];portConstraint=eastwest;" parent="456" vertex="1">
                    <mxGeometry y="49" width="160" height="55" as="geometry"/>
                </mxCell>
                <mxCell id="460" value="CustomCollection" style="swimlane;fontStyle=1;align=center;verticalAlign=top;childLayout=stackLayout;horizontal=1;startSize=26;horizontalStack=0;resizeParent=1;resizeParentMax=0;resizeLast=0;collapsible=1;marginBottom=0;" parent="498" vertex="1">
                    <mxGeometry x="345" y="200" width="160" height="60" as="geometry"/>
                </mxCell>
                <mxCell id="462" value="" style="line;strokeWidth=1;fillColor=none;align=left;verticalAlign=middle;spacingTop=-1;spacingLeft=3;spacingRight=3;rotatable=0;labelPosition=right;points=[];portConstraint=eastwest;strokeColor=inherit;" parent="460" vertex="1">
                    <mxGeometry y="26" width="160" height="8" as="geometry"/>
                </mxCell>
                <mxCell id="463" value="+CreateIterator():Iterator" style="text;strokeColor=none;fillColor=none;align=left;verticalAlign=top;spacingLeft=4;spacingRight=4;overflow=hidden;rotatable=0;points=[[0,0.5],[1,0.5]];portConstraint=eastwest;" parent="460" vertex="1">
                    <mxGeometry y="34" width="160" height="26" as="geometry"/>
                </mxCell>
                <mxCell id="464" value="CustomIterator" style="swimlane;fontStyle=1;align=center;verticalAlign=top;childLayout=stackLayout;horizontal=1;startSize=26;horizontalStack=0;resizeParent=1;resizeParentMax=0;resizeLast=0;collapsible=1;marginBottom=0;fillColor=#FF9933;" parent="498" vertex="1">
                    <mxGeometry x="630" y="200" width="160" height="94" as="geometry"/>
                </mxCell>
                <mxCell id="466" value="" style="line;strokeWidth=1;fillColor=none;align=left;verticalAlign=middle;spacingTop=-1;spacingLeft=3;spacingRight=3;rotatable=0;labelPosition=right;points=[];portConstraint=eastwest;strokeColor=inherit;" parent="464" vertex="1">
                    <mxGeometry y="26" width="160" height="8" as="geometry"/>
                </mxCell>
                <mxCell id="467" value="+Current(): Object&#10;+MoveNext(): bool &#10;+Reset():void" style="text;strokeColor=none;fillColor=none;align=left;verticalAlign=top;spacingLeft=4;spacingRight=4;overflow=hidden;rotatable=0;points=[[0,0.5],[1,0.5]];portConstraint=eastwest;" parent="464" vertex="1">
                    <mxGeometry y="34" width="160" height="60" as="geometry"/>
                </mxCell>
                <mxCell id="468" value="client" style="html=1;" parent="498" vertex="1">
                    <mxGeometry width="110" height="100" as="geometry"/>
                </mxCell>
                <mxCell id="469" value="Use" style="endArrow=open;endSize=12;dashed=1;html=1;entryX=0;entryY=0.25;entryDx=0;entryDy=0;" parent="498" target="452" edge="1">
                    <mxGeometry width="160" relative="1" as="geometry">
                        <mxPoint x="110" y="59" as="sourcePoint"/>
                        <mxPoint x="270" y="60" as="targetPoint"/>
                    </mxGeometry>
                </mxCell>
                <mxCell id="471" value="Use" style="endArrow=open;endSize=12;dashed=1;html=1;" parent="498" edge="1">
                    <mxGeometry width="160" relative="1" as="geometry">
                        <mxPoint x="110" y="20" as="sourcePoint"/>
                        <mxPoint x="630" y="20" as="targetPoint"/>
                    </mxGeometry>
                </mxCell>
                <mxCell id="472" value="" style="endArrow=diamondThin;endFill=0;endSize=24;html=1;exitX=1.012;exitY=0.281;exitDx=0;exitDy=0;exitPerimeter=0;" parent="498" source="463" edge="1">
                    <mxGeometry width="160" relative="1" as="geometry">
                        <mxPoint x="500" y="243" as="sourcePoint"/>
                        <mxPoint x="630" y="242.5" as="targetPoint"/>
                    </mxGeometry>
                </mxCell>
                <mxCell id="473" value="" style="endArrow=block;dashed=1;endFill=0;endSize=12;html=1;exitX=0.37;exitY=-0.014;exitDx=0;exitDy=0;exitPerimeter=0;entryX=0.374;entryY=1.041;entryDx=0;entryDy=0;entryPerimeter=0;" parent="498" source="460" target="455" edge="1">
                    <mxGeometry width="160" relative="1" as="geometry">
                        <mxPoint x="402" y="190" as="sourcePoint"/>
                        <mxPoint x="410" y="120" as="targetPoint"/>
                    </mxGeometry>
                </mxCell>
                <mxCell id="474" value="" style="endArrow=block;dashed=1;endFill=0;endSize=12;html=1;entryX=0.495;entryY=1.047;entryDx=0;entryDy=0;entryPerimeter=0;exitX=0.5;exitY=0;exitDx=0;exitDy=0;" parent="498" source="464" target="459" edge="1">
                    <mxGeometry width="160" relative="1" as="geometry">
                        <mxPoint x="400" y="230" as="sourcePoint"/>
                        <mxPoint x="560" y="230" as="targetPoint"/>
                    </mxGeometry>
                </mxCell>
                <mxCell id="500" value="" style="shape=image;verticalLabelPosition=bottom;labelBackgroundColor=default;verticalAlign=top;aspect=fixed;imageAspect=0;image=data:image/png,iVBORw0KGgoAAAANSUhEUgAAA5sAAAE6CAYAAACYtEZyAAAAAXNSR0IArs4c6QAAAARnQU1BAACxjwv8YQUAAAAJcEhZcwAADsMAAA7DAcdvqGQAAP+lSURBVHhe7N0HnCRF2QbwviMnCSqCWUBFEFCCCqhI+CSKBFEJiiCIGBBFMKMoiALmSFAEySiCkhQjks0KCoKIipgFyenuvvnX3rv0NbM7M7sze3t777O/2u7prq4c3qfqrappd9xxx6wqkUgkEolEIpFIJBKJPmL67GsikUgkEolEIpFIJBJ9Q5LNRCKRSCQSiUQikUj0HUk2E4lEIpFIJBKJRCLRdyTZTCQSiUQikUgkEolE35FkM5FIJBKJRCKRSCQSfUeSzUQikUgkEolEIpFI9B1JNhOJRCKRSCQSiUQi0Xck2UwkEolEIpFIJBKJRN+RZDORSCQSiUQikUgkEn1Hks1EIpFIJBKJRCKRSPQdSTYTiUQikUgkEolEItF3JNlMJBKJRCKRSCQSiUTfkWQzkUgkEolEIpFIJBJ9R5LNRCKRSCQSiUQikUj0HUk2E4lEIpFIJBKJRCLRdyTZTCQSiUQikUgkEolE35FkM5FIJBKJRCKRSCQSfUeSzUQikUgkEolEIpFI9B1JNhOJRCKRSCQSiUQi0Xck2UwkEolEIpFIJBKJRN+RZDORSCQSiUQikUgkEn1Hks1EIpFIJBKJRCKRSPQdSTYTiUQikUgkEolJhgUXXLBaaKGFqgUWWKCaOXPm7KeJicISSyxRzZgxo9xPnz69WmSRRUpePPDAA9XCCy9cnic6Y9odd9wxa/Z9IpFIJBKJRCKRmARAdJAbZtasWUk4JxjSH9m///77q2nTphXCKQ+CcHqX6Iyc2UwkEolEIpFIJCYZFltssTK7iWgmJh5IJaJpFjMIvysSuuiii862leiEJJuJRCKRSCQSicQkg1m0H/zgB9W5555b/fWvf539NNEJZiD7Ae6Y0ZQPF1xwQfWtb32r3HtuECDRHVKNNpFIJBKJRCIx38EavAcffLA644wzqquvvrrabbfdqmc84xnVvffeW8gEUnHPPfeUezNcrsgHeLfYootV9z8wpGJZ/4ab9913X7XUUksVdUv31v/VyYtZMvbcmzkzWxbuxzfUNDfffPPqJz/5SXXCCSdUO+ywQ/HH7JrvzK5x07fshzvAToSLOzE7yo5n3jHsvfe97y3uBNgNw/6HPvShYpfbvvWM/9xt8YgSDnaFX9hdA77zjv06wp34lv933XVX+S1dvJP2MZPIHe56B+xHvBZacKHqgQcfKH5HuNjnR6yzZM+VH55JL37JV98BP73zjPuRP549//nPr371q19Vf/rTn6rllluuvONHojOSbCYSiUQikUgk5jsECXnPe95TffKTn6y++tWvVi95yUsK6QiCVMhMi7wgJ0gI4uHZ4osvXkgKIoR4UHkNAoWo+DZMkDDfsRfu+o7bd999d7lymxthj9sveMELChE+5ZRTqq222qqEmx1ucif8Y1f4xAmCoIUf7EGQwSBSCN2TnvSk8m0TQcpuvPHGQrC4x13fh3vC+r///a/YfcQjHlHdeeed1ZJLLlnCyC/hiXSGSAdEj/8RRna4DdwPErjsMstWd99zdyHrwsKu733nyq74IZHx2ztug7TxPMglf7jBL3EIP+vpFv5zVxjY23jjjauf/vSnSTbHgFSjTSQSiUQikUjMdwiygJDEDNuSSyxZrv/+97/LOyTkxz/+cXXhhRdW11xzTXmHfCBYQTgQIeTE+7PPPru6+OKLhwkl4sJeEJ1//etfhZi5pyK78EILF3IWpMi35513XvWHP/yhEJ9wB4kLwouI8vfXv/519fWvf724ww/uBtwjkq7ML3/5y+o///nPcHi844ZwUdH9+9//XgyC9axnPas8QzL/8pe/VCuuuGIJb9O9f/7znyU80oO7Zv6++c1vVt/5zneGyZywI2xB6m677bbiFnIozsA99//973/LbxAObl562aXVOeecU1SJuSPM3nFD2tx6663F7aWWXKrE789//nNxy7fsXnLJJSVMv/vd74q7wutbaei6+GKLl7h+7WtfK+noO3akt/dBOD1LjA1JNhOJRCKRSCQS8x2QLoQCKYkZRWqxf/vb38psHxXW17/+9dWLX/ziatddd6023XTT6mUve1khOEgI+4jOj370o+qZz3xm9cIXvrDYMwO52mqrFZIThBQB2mijjaonPOEJ1SGHHFI97nGPK+qr991/X/H7+OOPL9+8/OUvL+q866yzTplxBWSHf2YO+fmLX/yihIN7r3rVq6qtt966Wn311aszzzyz2Af3/Nh///3LbO36669fyJTwivMyyyxTwoUQMmZquY1s+Y0APupRj6oe/ehHF5KLRHPvLW95S3Hvec97XvXDH/6wkFUkVDqtu+661Wte85pqyy23LDOyn/jEJ4o/wokY7r777tXKK69cffzjHy9kT9qIm/g//elPr57ylKcUAi2MrtIx4vjSl760evazn12ddNJJJTzcQ06lp7jt8/p9qlVXXbU69thjS/yvuOKKkifbbrttSc8XvehFRQ359ttvL+5T//3HP/5RvXLnVxbV6X322afaZpttSh5/+tOfrlZZZZVq7bXXLv6AtEmMDUk2E4lEIpFIJBLzHZAuxAOhcI9QIEAIFHJo9s6M2hvf+MZCspBJs5zbb7/9MDkzE4mk3HLLLYVMBbkzW4bkmJVjDyFDrIDK7mMf+9hqzTXXLITPrNp+++1X/fGPfyzE8c1vfnP1ile8ovrMZz5TwoD8TZ82vZAsM4KI10UXXVQI58c+9rFCxpAn/n/jG98ocUIaAelEvJ7znOcU4odEAjtxFQaQDuLvGXJrNs99zEBCuPfc5z63uEcF+LWvfW112mmnlTghbQcccED55n3ve19J1xL+1m9ElHuXXXZZcTuInLjcfPPNhaA+9alPLbOfiObPfvazaqeddipxROLFfd999y15EgMF0tbs65e+9KVqjTXWqJZffvny/HWve12ZqX3Tm95U0nG7l25X/JGX0sBstHQ766yzCmHlrjw2o3nwwQcXAqwcgLDX0yDRGzLlEolEIpFIJBKJBhCpr3zlK9Xhhx9eiJPZvRVWWKG66qqryqwlUmP2DvFxNWNnMx3fHHbYYYXEuUewkD8kB4lDhKh3Iki+PeaYY4pbvvHswx/+cJld+/znP1/CgZg9OOPBQnjMdlIXfetb31rcRpKQVzN63PYdcofY8tMz5I5qq5la5Mw7/vaKpnvI4amnnlruzYCKk7BLg+9973vVWmutVfxipMH//d//ldlL9hFE6SGs0hXxNKtoU6V3v/vdZfYYcT/uuOOqPfbYo1ylh3Tih7RwjxAiiNLCTCtyafaS+0972tOq97///YXkHvWxo0p4zIZKgy9/+cvVpZdeWmawhfvII44s7iK41Ii5negPkmwmEolEIpFIJOZLIDnIRzuYJbMxDOIRxAjBQiLNslm3iag8/vGPL7OYyBi3EDKzZI95zGMKAbrpppsK2eKO63rrrVfs8ZsbyCu7Bx54YCFbniNTZvPMIILf/LczLfeRNjOi55x9TjmSw8wmAoksWRcqLEiqsFlz6Xszo2ZY475X+IZ7ZjCD7F133XUlLmZjEU7p5J2Z37322qt85z1SaLYQ8QNhlxaeIZuPfOQjS5ohptyEJz7xiSVuyKm1qeII1l8i3Oz6XrgQaekWhJhqrI2Vdt555zIzarZU2nGLvRtuuKH4j8ja8Oeuu4fWkHLLjKd3if4gyWYikUgkEolEItHAk5/85EJckDaECRFBijzzGxBPZMUmP94jW4CsIGWFkF17XXmH5LBPHdf3Zk6RQyQSUfObX+wgju6RKUCsbNjz29/+tjxHzKjN7rrbruVKPdR3DH+4jzxtuOGGJWx+I2JBqDzrFeLCPSqo3GOsH3WlisrtCLP4sweuwg+OEAEzw8LhSBczk9ZWSgezkjYaAgT21a9+dfXKV76ykPlQwwV+Mb6xNhO5jWfiSdV2xx13rC6//PKyRtb6S+rNSKowIpvw1FWeOpzWke7ymLuJ/iDJZiKRSCQSfUIIYGEILgQfggtBLYRUz0IgBL8JUfEd+4Qm37sSYL1370pw8y7sh0kk5mcE2ejW1OtMu/oTM2fqJyIS3yEm6jKojzFLBggj+NYxGbDh8zcs9T/qqbqrTiNINr3htt1n2fEd/9ixIRB1UuC+31RBhcHmQlRBqc9SIT366KMLcbPREPIb0JYIb7jJL7OM7pvgrvdhhDXaKSbaILOj4FmsO73++uuH3bejr+/sDAsIJLvCYOOjzTbbrKxFtQmQmWHxtjYzSDA1VkASxcemQNaEup588snFmAn2HT/lBf8g1sYijFRvbfZkzSb3bZCE1AIVW9/f+McbS7yEjRviZ/1tkE92GPf19PHM78lkIqy9mqY7/UaSzUQikUgkBgQdOWGI4EIAIswQVEIo+/3vf1/WNlkr9MEPfrCsDSNg+W2Hy9iu3+YgBMQQhgiqdnNMJBJzD8if3VLNzFmzqU6qm+rpUUcdVWbRYmMehEi9905bwKjL3LCzKzes+dQuIGbaDu1AEDZHdHDbzCByZO0hAmXWD4Hy2/fXXnttcYM/gwYiK+yIGlJIJRjssEtt1WZF4iEs7CCCCLadYcHaT+2fXWzjGXATuGd3XrvIbrfdduU4mk996lPlvEtpyU0mSJN0kwc2cTIDazZU20stFiG33hbBFTYkWTp+8YtfLOESF98j99R6o52OvIp739SfTQUjTox8GkS5SbKZSCQSicSAEIJjjOqbASHc2M2SkElQJDwRdqzVYmfppZcusylHHnlk2ZHS84032bjYI3gSDgiuhJ1EIjE+RP0MqLPdgl2DRGbRbGqjPttIyMwdoqjueh/kD7l0jxi5N5PHb3a0BzYIsrOtTW32eu1e1aGHHlrcgHvuvafUe+s6kbPPfvazZb3hQQcdVL397W8vV2tDt9hii+ImPwIjxcnzumlipO8CCAoyuMsuu5TdZO0G6wgUs64bbLBBeSbeSLL2SviRapsbaedsJIT4CXPMJDLiYgYXgee+tLVbL3eRae2n9ON25F/EWftITZlf559/ftkp13d77rlnCY9NiKzF5YZ3BgSo4XL/ne98Z7XJJpuUQcBwr0lo+Ru/3U8mE2EcqxkUkmwmEolEIjEgEMYIlLbXtxMjIciaKyPtRu2v/d211UXfuagIlR/4wAeK0ElYPezQw6rvf//7RQ0PwSRU+o5QZJSfe4stmjObicREAfloAkFyPuQZZ5xR6jdygyDZ8Eddt26Qmqy6ivwQ6IOouCIIiBjyeMEFF5RzNmk0mBX97ve+W9oFBM63jEEos3M2y3HsiU127NBKnZYb5513XtkYB2Eb7wxVu/g2wY72jZqqdaMI5SmnnFLSQFze9a53FTvCHXGN+CPVBtk8t5bSzKIwuyLe0s5zGwTZbdeOvVRfHSVjgyWaHtz2TZBOYQkCb1YViY00Ov3008vmTlRrY6Mh7pr9BGkoHjZTcvQJNN0PuK//ToyOaa0Ez9RKJBKJRKIPIGxR4yKcEPjsROmYA4IiMolk1tFp5qAp0CCohCLHGzhwnTBKXYw7BDjCL/8Jd8JAsEsk5hcgLr3ALFgd8b16YwYOoQnEOwNIoV0Q9dy9Z3aBvfKKK8sazdBUqIMbCJZ1iepoczZJ++F8Tsd2mB1FnKAZr2g3rEf8zW9+Uwim2bp2/oFwuncdDfXw8dvvuhugTWq2W2HHc2TZZjyIpfiJZ8QXkazjH//4R3lGtVYaNtMDrPe0vtMGRHbgrUN7x10bELlyownE0hEn66+/fiGxdchfaS7dDBQgsdaCgrAtu+yy5T7Avzqa8ZnbBLSZL71ivN+PhCSbiUQikUj0CQQXghVSaMTcge+23XcWHjSFkU6de9N+CMeEKmp01MOsb7IxCOGWe4RhwhPBKITARGJ+QK/lvReyCd6PRjaDiLlnD+FqwvOw3y68CIy6i3ixC0170W4EGfVNO/fid7dkE5rhq7sBo5FN7Z9voZ4O0jPcbYK79XA13QbfBjGsQxrxI8LbJKsRB++F2+86hMsz6ed9EE+Ib3tBN+k7SPQa3iYGFf4km4lEIpFI9AmEnZ///OflfDwbUJx44ollc5BAkzy2E6zqaNoH34RQZxbCmiZHBThcncoegSMEqOZIfCIxldGrsN0kH74PMxay6Z06q+6x23SffWRG/W03i+eZOhtuB7hVR7Qb/HKPdPq22Z40v2uSieZ74a2Hr/4+vg0/6wh7ngchjLaLO9x1ZeqQvt6Js2szPPFbmMSx6a/n3AyS2GwvfS/c3vu26T8/pXWEmRuexb387AVN/ycazfTpFeP9fiTMmauJRCKRSCTGDITPOiMbXDhHLmY2CFMh0IwHIQgRkIDKrDVNb3vb28oaKEcCEK4IVYhoIpGYOKifSy25VCEp7eo7MqJutiNW4DvP1d0mMWoHBMw3/OwH0ekUvk5AVqiqxrfcCwLXjsg4JkYcwl92GN8znrv63oZC8TxMpJf34HfdSEfua4fdN98vsfgSJQyRdkFaGfcGDeqmieb7edHoSxhxlgeRtv1EzmwmEolEIjFG6JRj9vCrX/1q2dzHJhPWZs54cEa1wIKjC4wh5ASaAlnzfRMzZ7SI5Ww/bMxhRvVLX/pStfurdy/HDzRnMhKJQSLKm3pBwLeObiJBeEYSgjT0Ct+oc8hLkI2YaWSCGIkbssK+K/sI35133TnbpSEQ3tnnDlITQnyznrcjYv2AMMfMnjAIq9/CNAg/O7Vf8T7Srtk+jTdMTf+aiMG/KB/sR1jkzUS3l8qTfAHlLO57RTPduk3H5oCkwcsIh+t48yOQZDORSCQSiTGCsEKgM7tInfUnP/lJ2RUS0Zwxc0ZH4WEkYSzQSXhq2nfo+d577112pXQeXxDhRGKigHgR4G3aMtHCOxKBNKgXyJ31073Ad9yg3rnA9AWqu+6+qzyLehhkJdx3tbkN0oBYincdvkO4fdeOXAX5HBTERbi0UYiF8AhHhFX4+4lmfNrlf4RBOWn6P9706FTe+M1P/kfbqI0WFu+ky0Qi8gfkx1j9b6ZbN/kqvlBPM/dBNvuZHkk2E4lEIpEYI3TG1mhutdVW1dFfPLp65c6vHBZo4joaosMPNO033zfhfVPQMMN6wAEHlB0YbeOfSEwU1Ac7MBNa3TfJ16CBVPGTwHzNNdeUsxp7he/N8CBn6pbfyEm4LV6xs2rUcc9ckc46fKd9MADFPfbqGC+56gR+Cjey64xfKq6MsAur8PUTzfg0yZ/0ssurMEiLIO+B8aZHJ7IJiKX428kXtJHKi7To1N72G/y79dZby31z59te0Ow3OvU7EHGtx9mOxo6siR1+u0nPbpBkM5FIJBKJMYKwtM4665Qz76jQEuCam4o0oXMPYaAp3DSFhOb7JghOhDZCGsHA94yD37/97W9Xl1122WybicTgYaZmueWWqzbeeONCdJpkYtAI0qA+XHLJJWV2vxcQshFN9Y5b4oMYxbo+7+qzUeq7+hZ1sFl/4fLLLy9HaiA4Ibw37bX7rh/gXxA4g09PetKTCqHQRskfYeonmvFotl/CQ/vj0Y9+dDliBKGpY7zp0Km9lH+OUoGrr766XJ1dDJHPEwnxtbkbGBjRno8FTZLebTo24ysNnG8qHb3r1Jd1iySbiUQikUj0AIIlgZZg6pzL73//+0WQi5mOOtp1+mHHu+bIcQgNQRw7oZ2dWCtKwDXj+s53vrP4ye2xCjOJRDdQzkJon+hZTVAvo05RoQ1i0S18j2SqK3WiFvBbvLwLgqlOufq2Xf1yJBFi55sIW6DeFtTR9LcTRnIXhNP7Jz7xidW73/3uap999hlue3r1pxPq/kK7eD32sY8tRza94Q1veFi4xxqe0eLfhJleAwZbbrll+X3BBRcMP4tBhLGiGY5OEE4buwGS102bPxpGi3c7CK9+S7l1TNfhhx8+R3qMNzyB/payRCKRSCSmMBZbdLFyJTxSwzrqqKOqL3/5y3MIuaMh1OwIBezrzOsGkEX34yWGxx13XPXpT3+6uummm4rwT3hIJBKJRGIikWQzkUgkEokuMXPW0M6O1IuOOOKI6pWvfGW12jNWKyPy3czkUCtENJHJo48+unrxi188h9loo42qrbbeqvhhdLlXILNmNRFZ53zutNNO1Yc//OEyem3GJpFIJBKJiUSSzUQikUgkugQ1K0Tx+uuvL0eMfOhDH6qmTR+akeyGHCJ8vkc4qeFSwa2bK664ovrBD34w5rVUwmBmFPnl/rve9a5y9ueNN97Y9/VZiUQikUh0QpLNRCKRSCS6hJlDM5inn356teeee1YrrbTSHOuMEMm6aQIZjHdmL2OWE1xjU5JYexN2RzJNCEucu2kzjKc85SnV7rvvXn3ta19LspmY8gj1dCbq0Ghgp26aUJ/qpl73/O6EcNO1nZp9sx6HP72i+V3T3UA8Z7fd+/Ei3A/TRORL5FG/MFL8m6ZXRDhHMv1GxGMk0wnt4tyt6cb9sWJwLicSiUQiMcWgQ0bavvKVrxSy2StCqNW52yhj/fXXrzbbbLPyblAbqtgp97TTTpv9K5FIJBKJiUOSzUQikUgkugSieN1111V33nlnteGGG85+2j1iFJmq62677VZ2sT3//POLu4PCpptuWt12223DW+wnEolEIjFRSLKZSCQSiUSXQAptEb/ddtvNfjI2xCY+zKyZ7VX4+gHrNs3EvuhFLyprQhOJxNRBXaWTSSQmI7oimwqwdSq2dmdskDBIU9dPHqQOcSKRSCQSvWDhhRauLrzwwjKrGceYjBXD/dwCQ/2cGc9+I9ZpOtw+ZzYT8wIMvJAF4/zKiZQD1Rf1UBhchcHVWuqx7A7dK4I08o+RDtqZCEuEx/OJOMqo7G7d8kvcyf9U/WNgbCLyhvuR7kGmpYt0iDQQxkUWXqQ8Gy8i/cPEmar8ibwAv4XLuwgLM17U/Q635bf7dsssPJcfk309flelRKLGGWIyWYQn0iQSiUQiMRlw9z13V3/961+rpz71qeUYk15BcJhIhDDmGJRbbrll9tNEYnIiNtD65z//WX3hC1+oPv/5z1fHHntsIR1jqW+9goxrMCk2/1puueXK8UbnnXfehMijQeCuueaaascddywH/r/iFa+ott122xIOZocddqje8573FPuIRt30GyeeeGK15ZZbVltttVX10pe+tDrkkEMKAQpOwAwS/NKGHX/88dULXvCCaokllqhWXXXV6m1ve1v1hz/8oVpqqaVKmXngwbEdFdUJ0lRcb7311uotb3lLtc4661SPeMQjqmc961nVRz7ykep///tf8de5y4NIC+VR/H/961+XtffyoG5o2Cgb8uinP/3p7K8mH6bdcccdHUtnFCoRxtz97jeiksQ1Ms3vbjvnGGEZdOFPJBKJxPwJ/d/iiy9ePXD/A+XIk+h3xgP9HHf0dfU+sB/EVL9NGLJmc9lll61aff7sN4lE/6H8EsbvvvvuMZEzMqZv99133+rMM88s9QLJ+OY3v1ned6pvvg9/EZFO5T3qW+Dss8+u9t577+H6R9gH9yeccEIR+LnvfcjCCJFw+e2+jl7TwwwV1fcf/vCHhVT6PsIYV2GhFn/WWWc9bDat2Wb4hh3hfeITn1hI6j777FPCKzyd2pijjjqqEMzAFltsUfyVLs4a1r70isc97nElHG94wxtmP3kIzfzVdjm+6bOf/ezwrGJAe3bttdeW9I086CT/Sw9uCjeCBhdccMHws3bp8ac//alohiCW/GDCrkG8q666quQZNMPfCcJjQAHOPffch/m/2KKLVffce0/1ox/9qHr5y19eylETvuHvN77xjWrjjTee/bQ7SC9lTvr9+Mc/rg477LCO6TEWdJ0qkZEOiLader+NzpsxasFoJBiFKJFIJBKJyQD9YBHgFlygrLWc7Jg+bXoRDLMvTcwLoKZ+zDHHFNJXF3Tdj4W89or3vve9RcheffXVC9k955xzymyWOv/ud7+7XMMQ1Jn6s/Hi9ttvLzKxdgZJFG/+MkjfBz7wgerggw8usnivxGYseOYzn1lm8BBEYRG+gNm8QQOZ/NjHPlaIZswkImXLLLNMmW388pe/XNJdWsm3foPbZtgN1vGTf5YjfPSjHy3v3CsnMIiJuPsfGFIZXnnllQtBVwbqxuymcKgbq6yyyuyvJh+6KqkiKhGZiajsAQW73tg0oaLVTSKRSCQSgwShpwi+D05cXzgeIMWxDm20/jSRmFsgLDPkuF/9ekiQRxw233zzQuZKfWvJntRom3Jf0/SKxRdbfFi+/eUvf1n95S9/KWEhyJsl2mijjYrqKtx8883lOkgUrYlW3INAiD8CfNBBB1X7779/td9++1UHHHBA9drXvrbYGTSoz5qBXG211Yp/JoOEC7kbBLlqArGEHbbfYXhG1kz30UcfXX34wx8uBFD5MOPXDzXrZnkSR1dlAeFH8p1dLB9A23rTTTeVMAyC7EprYXj84x9f/DzwwANLWWDe/va3V0svvXSxt9dee1VPeMITyv1kRDK0RCKRSCQSicSEw2RGzOAhVggF4vDWt761eu5znzvb1uBAFT4096zD/ta3vlV97Wtfq57znOcUcoVMCB+4Z8/vuNbvXfsN6WI20ezaJz/5yeozn/lMWb8Xg15THVRU4bnPe27JD7+plK644orVm9/85kL+lBtqn679BPeQPaQW6X3Tm95Uyqa8vvLKK4sdWiMvfOELy70Z6UFDeOS9svb73/++Oumkk8pzKsHCNVkxJcmmTBhEpU8kEolEIpFI9AeIHtJEUKYuaZMTsziIxESQqfAfbAa0ySablDV0Sy65ZJmpEq7vfOc75T2VUnZHM/0GwmNDHLNqhx56aPX+97+/zLIhGROxYdLcBvVV6Upld9111y1nBtsUx5rV3V+9e8kj783+9ZtsyvswoKxYR2u2VznBM5yVHAMTE7EeXlj4ZY2oNcQgXf7v//6vPJ+sSEaWSCQSiUQikZhwIHWIghmrD33oQ4U4fO5zn6tWWGGFgZC3JswSxWYoCE2osBLqhY26pt1pzWqa2UJovGfchwmV135DGiA5SCazwQYblDAi42a2pjoiTa1VtZs2tea11lqrlJmzvnFWmemVV4OYYJLH0t7spSs/bKLz3e9+t4TrsY99bPX617++3C+x+BKljAwa4m2Q4c477yzrR/n9mte8pvgdm1lNRnSdOyqhQo/RH3744aMauu4WMI+kP6xiH3nkkaXwmJ42WtPOaHiYJhQAFdtOWDEqVTcKRBQOhdBuTvz0jUySWd757doLuB2m2diE4V8Ufv6CUYhBbY3Mr2joQuXDbw1SxFFYI0wRd8/AfXzPeB7vEolEIvEQ9B9mXn5z9W+qmbP63573G7G29LLLLivrrhKJyQTyyL/+9a9qjz32KDIKQrf++usXGY785Bm5hLx31113zf6qv+AXmYd8FLOF/P3Zz35WvfOd7yy/d9555zKrRa4KuK/LTP2Qm7Qv3DXLagdU5OqMM86o3vPu9xTV4tNOO63Y49cll1xS7qcygsAZfLj++uvLrsTf//73SzkBgwHka3ln4GC8CDk4jPywjpb7DDVrHMfM6r///e+yQY9NjOwYi3+MF+HPiGbaEPewcRX1ahs37b770AzvRKjxjhVdkU2RkOEy8nWve131xje+cVRjm2Jn4NhmuR24F3YVGIudGd/UjYrFNCHzJTZm76qhqBvuazAkvMx3/g4y5Rl96yBf4VYvUPhkeBDbdrjv/iFdevaExzcKq1GyIJ/9hPhoGPkZ2yLHDr9BMDXUrgivOAuHPGVKAa7FKUwikUgk5gTBRt92xRVXDKQ97zdsEAQ33nhjWeeUSEwmkD0ca/HnP/+5yGXkk0996lPVJz7xiaK+SnZz9IRn//jHP2Z/NTjE4LswbbbZZkVmih1ZyVEwaBmJXOZIDcTm29/+diE2yIxwke3sjkuudBbpVAf5VhnBFeyoHelOjdX9f/7zn/Je2pB5+w3+BwciT1Nhxkus66XezH8z3/qCXvnEWHDnXXeWuDqSRvzNagbi+JXJiK7IpgxUsEXMtRNEmF2ZMxKQMAWHHZlZNzK2bprwrQonY30vk+tGgfCdcCDI7iPs4sKPIF8yzbVuOoG7ES5haBr+80vDyR9h4s9I8RkvxA34GwRbGvEz8kCchUf8hRHYERf2hDfCHFcmkUgkEg9Be07Dxyj7vNRG/uAHPxjeyCKRmCwgE9lshfxCTkEyab3RarMRDCCiZhgd4j9oCIejV0yAkJEI884dtAsr4llHyF79RMhuBoeoE9MWNPOrrfHOpIVdc6EbeXVex7bbblvyRN5re0Om/e9//1vSxG/vQ5bvN6S5NaLC8fnPf76UUTLyIx/5yHLOJ2hb2WMGDZzCOacGYMTXTsmuk11m7ypnEBIJjKTIWBWsk9GAsD9S5is03JQ57DAKDONdFCrXpht+I5FUCGS+xqlujID99re/LW4JC38URA2InauMUmk4FJSxZA5Cd80115SRBRmNNNeN80Ftx7zGGmsU/+iU060PFd5+Iwq/BuiII46ott566+rpT396iSNyaWtkV42U3dZe9apXlV3NhElYpRGMdE0kEonEEPQrNoRwDuDMGZNfjTZw+eWXF5W8RGIygTxHmEcuY1lVrE+MA+ppEiBdzr4cNJDLd7zjHeX+2c9+drXjjjtWv/nNbwqhmAi1VbKzNCHT0RKksul8RUeyUCO2VpM8C9tvv325TmVoa/GE448/vhjp8/e//73I/triKBPSbBBkDw8h11uniV8YBMAbLr744uoXv/hFseMoluAtgwaNTqrUysArXvGKsqQjykvMvE9GTLvjjjv6ToUVAAToJS95yfDIVBOh7tluNEKijQbu++7jH/949cEPfvBh9hUEOu5xRtM3vvGNopZrpyjfIVGMd3SeuVcHIusZcohoC59CJE5R4BE7hbCuI96OnAmLb1UQut3ORopdo/hhpKzpfyfwE5H0HXfprJ944onDo13dwLfib4R+3333LYvOQ804zlGCKMSJRCKRGOqfDBraHOJ73/teEUjrfUqzH2jXL7RDDERqm7W/2nZkNtRgA80B0m7c1zcQiKghZnueGCSUT8I5WSLkiF6hLiinCIX9P6xd/PrXv16ed3Iz6g8YTO+0Q2j45Rvrmh0hMRqslSMv+Y581Kx/zfrptwF/RLGb9OAuGY+7VHeZgGfhPlVOO9SaSIBmvQ57rsLpirQjro6X4Va79qqJSE/rVS+99NJC/uLsS2HVTvUK6wyFw/mdnUB+NgBw+umnzxF/8jeZ/NRTTy1yrDCy2ymNfR8yeeS1met4Fu4HlKHzzjuvEHtu8xepDRn60Y9+dFlDusoqqwynaS/gnwki4E8nGPiwpll4pcmLX/zi2W+G0Ck/mxBncRI3BNpgTz09enVvJPR/znkSQCEw+yjTkcy99957uKI3E47dJoJcKlAygfnJT35SCptDVa+++upiLyoZN5vuKkBRaCPD6N+HGxYWh/u9QuPCTWuGtthii3KwK2GiXThGgrQRPoXbNt8OiEW8NR7SLkimayKRSCSGoI3VThpMNcJcbyPHM7KuPdbm6qdc+dMkmmOBDYIckr/LLrt03T8kEnMLyr+6oF6RcxAK5TbkqX6DH0Go+ONojdFMaKi5gnB1MhAyVycTciEZFNE2qYLgAX/txGq2k6oxWZC73brN9GKXAWkDwhbysTBKu3bf9NOQ3WklmtlG6EDam9GkTqodli7ybhDGhJMJIrvQ0gyRBvyXBjQXEbMnPelJZeJIWZUmvRrfdfutI2+ki8FOM//t7PRimv4OClN2ZtMomIXVxx57bFEfjdEthSeuvmu3uxn3FSgFmD9f+cpXSuX+3//+97DMEHb+QVybMLUdM6AR12c961ml8my44YYd49sEN5yvQ8VCOtbDpAHoJPBE+qks/I48sFOhkUQj9SA+kV6JRCKReGjDCgN8Rvv/+Mc/ltHvaP/H0mYihIil6/QFhmZLQqumOSDZ7Gc6+eecOkKaWdiVV1559tNEYjBQPsczs6m8k0sYA9/kGYI8AZ+sEzLUSAj5Brqd2eQHeUjY1e/REHKRsAQprKNZP/0mg4pDN7Ie+9zmh/tIA/fC6p20IFPyP+p/O3/jKs1czWyaDXVch++Ep1P7Ef5qjxzvcdfddw377/f9D/Q+wIYovfe97+1qZjPyQzjdC480kQ4ho3smLTzrlMbsyjN2u5nZlHb8jjIC4m3DJuERhkjHCE8v4J8JH4gZ49EQ/CrqQTO8nfKzCW5JO1czm2bSc2azB5x80snDIwB0nKOQNBOuXUKqVFFoTNGbiawTzfhGpitk/GhmeB3RUAhDVAxbattK29rSXvGlL32p7OQrXlGwI37dwDcKl6vwR6E1Y0sdQZikATcVwEQikUg8BG3j2muvXXaMtGsljKdTRjBhxsxWmzxjqE/RLuuHxosvfOELZQ2/nRO164nEZITyzpA5Qngnc5FT3I8mY40H/FDPQoDn12gG0WHfrKLf/YYwhNtIe0xUQIQ1BqIG4X87SHt+OdmB/9o/kygPzhi8fFiXswFxF/eA8iHvDCqQa7sxwt/NM0Y8+SHf2QHpAEi3cEkT6cMIWy8mvuvWCAP/+O2Yxeb7dn6MZprfDwqTkmy2S5C6kbmjGZlxzjfPKSNrCqpnQRQV2rhyqx0UKt/Qw3bUS/17aGaI0TPT7HTQnR+6xx57lBlL4YjwuiKdEGG49dZbi1qtcEZY2G3CMw2OAm+Th/33378843645R1E2B71qEeVMFG1MIO61157Fd3u4crSig+7/OVGuGP07eUvf3kJkwZtMi84TiQSiYkGASQG48wS2Gzt5ptvHm5Tx4L4jttmOP12H/1H3XhXN02YHY323GYWRqptmqcPaWc/kZgMCDkkjLJOZnIfhCPkpH4jCC3SEvWKn+1MDMALX11+CsOtpmF3pHdNw/2oqzTvos66hn/CAdqcML6rm7qbdb/jvtvwsBdtG3f9Jh/KG8/bfdPJdOs3w6748h/Jkjb89tt777TFZFXPm+nQzvhupGf8qxtu8tc9O/KAPfBbOLyDdt93MtGuh+kE8fedq9nVeQWTkmyOFzIiCoFrHQqK3ZsQMdvA+900ZjFtq+yg1HaIAvGMZzyjOvnkk6tbbrmlrH2k0ouc2rHKNPR1111XnjmcV5iAAFGHc5KoEkQ4FeomVCYEmIBj96lwS2EDYfbM9WlPe1pZR0S1yxrRt7zlLWUhuTA5DDfCZHRIPJrpwx1bKiPOwqKiJRKJRGII2uNoc226Y3MHSxpiIG9uo6jjttp14bMhnbWa1Gf1h9r9RGJeQMg5iURi3seUJJtBNIMUrrTSSmWhNTVRM3fOR0MOkS92Y2QjjOlpo9VGb9qBu0a0zTJal0rI4I5RKO98D1QgkD1qqXSyPTcSBAQWBpmzhb7Di33bjtwRbLjvqBWb+BjBifh5xx0QR7uFOYiYX74JPwJ2zrIZkKNbbOndnLmMNLObr/W2/EkkEonEEPQLBg21q+4d12CtzXHHHTfbxtyHPkkfdsMNN5S+CvQHTCKRSCQSE4kpSTZ1tEGadt111+qHP/xh2bHVdsvIkxlCRsfrN8JWN2YFrcPx3u8mqCU5YBiC6IGZQEIIvxdfbPGid+/erOQpp5xSwhLh4nYQT344voTwwm4T7P3tb38rZNN3ws6dCJv373vf+4p6rdFA4WAnZj6DMHrmG78dSGtN62677VbeNSEsDhROsplIJBIPIfoQA3WM2UJr+/UJv/rVr2bbmnugRmsgFMnUhhv0jAHKyTL7mkgkEon5B1N6ZtPMnc42VIcQQQQsSBqiaCaTXd8w3juz0jXc0UEHqbTVsJ28YubQ965IHgIY5r777ytX37l6T9XKbmBB+MB7ZPGiiy6qfv/735dFznV3GOTRLrGBCAs3hW2TTTapDjjggHIvPN5HuMMf8Nw3iGRcqdcKUwghdfsOsR3LBkaJRCIxVaEfifY/2mjnnlmvb2v8n/70p7NtPqQp0gvCzTDa5LppvkcumcBvrv5N2ejNgKl1+tp9YXWNAchEYlCIpUDkHHKGcjeRhjzFX/6H7DaaYYcRbiaeN+tdt6buNhMyprqnvjbfD9pEfgiHQTLGPdTjO1FG/kTb5b6dnUEabXekhav2XPsYMn+7bwZp+CkdGPfK7XhMr4iBSKbdZFe/MCXJpkIs4axNlIFRoTRAjPd11Dtg9qiQgoRnPyqHd45biecKKcOv0eC9QuAsHmsh62FQuICdOLS4CXao/AJ34ht+qyxmPLnnfokllijvegG1WnGMcEZ8PDNin0gkEon2iPbSenqbq1nG8POf/3yov5nRed2ZtrtuxgIbRfDvF7/4RbX55puXdZove9nLyrNEYiJBbiArhSYVuWQiTb0eKf/t7EykCXkvwtTOziCN/AiZUb4EIfHMu3bfDNKQn7WZjPt2dgZt5EnIu5E3YdrZH6SJnYcZ9/JlIo20COP3oDAlyaZM23bbbaunPOUpRYWoTjTjfR1+K2TsWddp0x6F0MyfES8jId7ZDML6T+s+2WeHm+67gYq9xRZbDPsf7gI3HBobvwPsOiblpptuKr8jDiB8z3/+88tGRSqtghINSS8glPAnRgEjbp5dcskls20lEolEoolo/w1aGvh705veVGYW7WY+EXBsCu0da+xp3rztbW8rs6wEl7H0B4nEeECuMWhOViHzkCMm0pBjDMQLg/t2dupGHambdnbGY4QlZk67CU+/DZDr5As5kanLnu2+GaQxCKHNZNy3szNIA/JCvkiLyJvIH+kykaY+2eW+nZ1BmnrZ93tQmHbHHXeMbSh1FAgwxm7zHB1gO8TmO2MlSL4zy2j2sk7AAoceemjZGTYKUhRu9032ruIJj+lknbSNdupQQH1rIwg7x/rtG+7YFKjTbGL4xw2Hwa651ppFPTXclV6u4oHIaqAD7Ni23gG47IVbUSg++tGPVvvss0+5971w1b/vBs7qWXe9dcsh5QHuR77YmTeRSCQSD4c+Rrutb9EG+209vDWTzkN2/NRo0PaPhhCQAk373usfqM3qo171qleV/lcbHtovicREQR1YZpllOpbrQSFkI/WxLsjPbainwtSrfNYP8Fu7ZIICol1oJzvPD4g2tV5G2z2bH0DOF+eIt2Mbzz///FJGYrCoH5iyZNMOry960YtKgklEdsKfpn3hZYebNtpB7oB9drmhklKBXXfddYeJWLzvVDi9j0ZGxgmzdT3xPcQ9dVmj08AfYSK0ECTa+YNUr7HGGrN/DaFTeNqBQPTrX//6YWkDF154YSmAiUQikZgT7dpbfYbNgqzv17Yfdthh1WabblZNmz40kxKw1tJRJUb4DXb6baayDn2p/iM6/fgGLrvsskJohcH+BGuttVZ5nkjMb+gk94wkNNfrI7STgeZlSBdxr18DI6XJoBB+R1jqmOiwJIaAY7QrF1EP9D39wHxDNuto2mcHbM5jrYtjSCAIYJBNiHtxBG433W/C+yCOwA3Esz7KFX61I5tUgn/wgx8M24lr2GmiU3iaCLfq7taRZDORSCSG0Kl91fdpS2PG89Of/nQhgmuvvXZ14IEHljOeQT+iU9cPuKeV0g7aZG5yL4QCO6wffvjhZddZarP77bdf8bNOShOJ+Qmd6uVI9UK9qaOdDDQvQ7pEuxHXwES3FeF3hKWOiQ5LYgjtyGYd7TjGWNA7y5uCoAprZJn+druGJghhXQ1BBrHLyKTRDNTdDTc6TVH7VkMYJDVQd8u7polwdWtgJKKZSCQSiYegzR7NmKHUQWvnLbFwJIqNe6yvN5j57Gc/u2jP/OEPfxgmkIhmqPw1+w9tswFKZyP7brXVViubEdGyue666wrZXGbpZYqf/E4kEomA9qV5DTPRqPvdNIm5g3Z5wfQbSTZbsLkCohUjw03o8AkFyGHMgoLn3aJul1vxuxs3IkwRxpFGwMcDbo82giGc3ZpEIpGYX2EWUntqgx7QJj760Y+u3vrWt5YznK37t1vtc5/73LKBnd1jDznkkOqII46o3vzmN5f1l3WzwQYbFNK66aabFrVZSx5+97vfFRLruf7g/gfuL/1TaAwlEolEIjFW9Jt0TlmyWWfoOv66aUInHYQuEje+C8TsppnDGGlmEEckbTQT9rnpHnzn3hXakVwQBsJKkFy/jYCHm65NE/Hu1kAQYG42w58EMpFIJLqHdtXMZhBP1+gLdt5556Jae8stt1QXXHBBWSbx97//vTruuOPK2nybvtno51vf+lb5Ztddd63OO++86k9/+lP1pS99qex0G22/99zWL8XOionE/IimXNM0I0H9rJt5HXVZkIln9WugaW801O20kwnrbo1kAu3yo2knMTGIvKjXlXb5M15kzrago0b2EEr3zYT2W6fuyl4ID2F8M5oJ+ypo/du4NzLNnquR7ia8Y69eEX1LmHEdNPgr/t2aRCKRSLSHPgQx1Fba3M1u32eddVZ18803V0svvXSZ8dTXXH/99WUjOWd3eqYdzoG/RCKRSAwa+qAmFxoPpuwGQeecc87wBkHCMhqEVxiQN2pMJ5544sM6dXb49fSnP32YdAJ7nQQA4Qsy69sgZOLg3vfhnnU9cR/Ya6+9qjPOOKN8G3EVXvdGwK3hqaNXgYQ7RsRdhSf8CMSGRd2inwU0kUgkJhNG6q+a7WYT9e/c33jjjdW+++5bXXzxxaXN1F998YtfrB7/+MdXxx9/fFG71WcgpJ47T9mazOjPmu1suN8pHIlEYupipPapE7ppv8IOGXOk9me8yPZrciB4RL/k+SSbLVhbQzVV4n7mM5+p3vWudz2MsEnwr371q9WOO+44h9ote50qBzujkU3h8876m3ZhjXiyHxtJSDPffuELXyibRdTRDHsnsI9scl84m/HJyp9IJBJDGKm/6tROxnfaeu32Rz7ykdKW02Z5xzveUc6F1hZHH3HVVVeVnWvZZ+e0006rXvCCFwy37/0SAhKJxNTBWElfN+1X2Il2qo6x+ttEyptTE/0pHfM4dOYqjw7+qU996nBnHlCpPLOjIOEg1jf6zu9OCOFBZfSdysTEPSC8jl7xrGlWX331YXIb/vmO/1dffXX5jaRyo5sKLzxIOHJpNpfbyL9n3A0yy3BXGGItkPfum4YbjHhGXLsJSyKRSEwFRJunjdQWap9jsFMbaVaSquzWW29dvf/97y87oNuZ1jEme+65Z7XYoouVtjnadu/+/e9/V0972tOq22+/vdpmm23Kmk5ttjZZ+81EP5FIJBJjRSeZTbsUaBJN8L5uJ5GoI9lACzrsIFVbbLFFteyyyw5XOkJCdOTHHHNMqWTs+sY9oaJTZ+8dAQHqldn3fnODm2Y2CSBN2IXQWh5oVvKTTjqpkMMQarohvwSZcCeEIgQx0iHiqOGITSeQUfFwz4+mET/u+I7hVjY8iURifoO2OAbxtOfaVm0jDZXnPOc55WxMM5UHH3xwOT95xRVXLG3rnXfdOduFOfGzn/2sevWrX13aU1o3+++/f3lOy6XeH3TqhxKJRCKRmBtIstkCsoT0OYDbPfXfANIUMPNoZJngEJ06gUKH3ySBTRA4/vOf/5TRabsPMvzxe/vtty+/v//977c9J80zo+HA3/CLUGPk2w6F3Bd+104IVVzf/+9//6t22mmnoh5MZeulL31ptcMOO5RwudoRkZDDT3FlpFU7E+kQJpFIJOY3aIe1f9FWm810vMmBBx5Y2tv11luvLC+xXlP/stSSSxV72tlmfxLXY489tuxgCwYYN9poo9L2s59IJBKJxGRGrtlsAfmipiTcOndnmdlePuC5Tp3wgPhRe3rKU55S3PYO+RwN1KPuvufuojr1iU98Yji+wh0kzWyqre2FNQSMAHuXXHJJIYLCwAiP59JhmWWWqb7+9a9X66yzTrHfKT2FmR2j7x/60Ieqj33sY8N+1tPS+aM33XRTiSc/YSx5lUgkElMVzTZR22xGU5tqXaYByjvvvLNopxxwwAHVfvvtV+xFOw7a3ehnQrvFe25Em6yf+u53v1vttttuhbRyTz+39tprl/eBZv+RSCTmH4xXRqvLgGPB3PY/MTmRzKEFnbuOXEevotgR1iwf+I3QqQCI4F133VVGqX/7298Od+qEgiBwUVE8C4J2x513VCeccEIhmuB52HP1mxDC/fimDm6/8IUvrDbZZJNinyprneDedttt1XbbbVfUrYRJXMA1wh6CDLBjZtNoOcIOEd66oPKWt7ylEE1wFb924UskEompgmgLRzLtoO0ODRnt7a9+9asy+2i3cAOZBj4NGL7tbW8rbXG0x+xGH6Ct5kYg2uvoW7T53PzOd75TdqY1YEsD5cwzzyz2fB+Dq/o0/UQQ10QikUgk5haSbLYBkmZEGggCEETQb6PKW265ZTl8m8pUvCMU6OCtvfTbLCgiaIdbR6oEcYt3iB0hYqWVVqpe9apXFX/9bsJ3BAlklR+x/tOz8JPg8cpXvrKMogsT98Oe99xlX1iF31b67373u+cglwF2n/jEJ5bdEbmfSCQSiSFov+tGe8kghwstuFDRtkEKf/nLX5bZRwN6X/va16rHPOYxHbVguoGjrmjXGPQ0Y/ra1762DFbqP5BLbTajr1pqqaVmf5VIJBKJxNxBqtG2QGAI0uVe+P22RgYhC/c9C+ECPLd7rXgaaX7c4x5XhAnPxe/Xv/512eLes/o6HkJBCB3sEkTMpCKI7DXTw3fC5NtPfvKT1Xve855ht4B7MSLOnnA4CNzaICq23CQI3XLLLdXvfve7ssbTaLu0QUi51YT0Eybhk9YIa5DqdvYTiURiKiHa106INt1RJdZlmtVE+hxTEudmau+1zTHgGNC+au+1sc121XPvIdpdV89iANKRKdpzbfNmm21WfeUrXymbunkvDOzoVxKJxMSiLidOJJryY68Yb3jntv+JyYkkmy3UCZR7Bjnz3Zve9KayIYNnTdRJXhMRp/iu3fdg1nPf1+9b3XX3XeW379rZDSLqHVWsL3/5y+V5PQyEDGnhtzyQRq7cDHLrPtIr7DSFHDOoRsu5E8JRks1EIjE/YaQ2uwnt6KGHHlrWvvtGW22Q8q1vfWvp57TR2lntrva07q5n2uR27XC9rY5211U7rH9y7/0ZZ5xRvfe9763+9a9/lXX7n/vc56pVV1112N1Qx00kEhMH9Q+iDk8Uwt+REO0IRPtTx3jD28n/Tpjo9EpMDMZXKqYoVMbo/D//+c9Xe+yxx8MEAQKGZ0HG6ojKHBUaCWwHRNP5avfcOzTrGZXUfdMgft7zl6rsrrvuWp4HiQw7wF5UWGEQF2AnwkQA4hYQjiK8iKb4+r4et7o/iUQiMdWg3awLSkhakLoYbNMmagO1nVRUnb3sOBNEk5bI8573vOrKK6+sXv/611cLLrBg+S7aX9+417ZG+xz+8afpf13oinbXlZtxz00bBn3zm98s5yxbt2+G89xzzy32vOcOf5lOA6+JxFRH1D8bN6pv6kS9nsbgjLpDTlKvvGc36p53QC4K96L+hglwg+EPP7jPPrdi0oUWgudhx/e+4b7f/KuHQZtkcOm8884rm4ZxT9vkyq7vuOdb+4xw17uo/9qqiCe72hLxDDvhZ4RFOF3jd7SJwug32dNv75vueefqWXwf4SF78sc7vxlgJ4z38c49P7nJLc+ExfO6u3Xjuc0uxZddVxM33Ij08Cy+bxrP+ckP+eR33fDjwgsvLEsb/E60R85stqAAKuxx34RKRD3poIMOKhWJYS9ME+FWIOxEwbR2x3pPx40o5FE563ZGAzsaCzOu4v/f//63pEfA+whb/Z4frvKnbh/shotovuIVr+iYXolEIjHVoK2EaH+1k4Foo7Wf2k59whFHHFF284ZHPepRZZ1/tJ/R9nLDPTT7hfAPwm3o1P5D2A34Xp+KaNq8znvho6ESAqG1+iE0JRLzK5R/9ZYMpR6r2+Sw1VdfvXrZy15W6pFzcJE09UZ9R5zYi7rjmfuQ3xAXv7lpzw6IOuq5Or3wQgtXM2YOEST2YuDKPfe4FXKZ59xlx3NtimdB6LhhgMmkg8Eum4ZF3baO2zfAfrjlG/GJOIV/fnvPnjCLi/i654flYMIY8Qh3hOm5z31uOSWBO/zyLNIk3Av/6uF3H24hnH6XsE1rybYPDO01Eoh8Au6C3577JvwNv4SzjggLxHdx9VwasxPft4N37HI7whC49dZby74rys+ll1467FdiTgyEbEbhGo1sqsgQBbdXcL8T2dx4443nqMAjIQpS3I+EP//5z2V3wVNOOaXYj++a3zQLW91ts4ZveMMbylpPz6MCQ6RDu/jUobBHuv31r3+tPvWpT1XHHXdcqUARV35F+OpohhUIJHaeffrTn14qbSf/E4lEYqoi2uFoOwmfBJJoT238s88++1S///3vy/NNN920aMCY6dSeL77Y4mUHcvZptYRw0myLR+r3Rmp/2Y939XackGnEndBGUDSrevrpp5d3zko267rCCiuUb9lrCmOJxPwEmzYiB0Hi1Cv1Bmy+RWZVlz1TZ5yDa5lTXb5Sh9wHyVEH3bs26y977Ac5Yl+74Tf47b3vXbUTnvFP2+FZtBV1omOvD+3Qs5/97Orb3/72cP3X5vCTG9z0Dbei/XANQsjteO9d+OWZ7+O4Pu8jrdiLOPDfEoK6e/yuuydMrr5hJ9rSCEfEl/0IXx2+4TewL43r7pil5D532n0vLOyB7yKs8b18qH/fDvUw+r4O5+c7CpFWi7PyI6yJOdG+t0vMAYWMsUMrFVbCxv7771894QlPKAW2E5785CeXdZY2jrDBj4YuRnOiYDYryGjwnQrHrLjiitWRRx5ZXX311WVHQm6PBHHwLdhESJiMWtkI6UlPetJw4yksTZNIJBLzI6hgRdtp9tIxVNddd10RSI855pjqq1/9amlPzQYQRO67/75yDRWxQSOEWO03GHgkAIJjUeyc/o9//KOtIJZIzG8IYohY3njjjaUuX3HFFWVJE62AnXfeuZARJOWOO+6oHnhwaHD/Jz/5SZkkCcLCDWejn3XWWeWcc3aiDtbBrjr6ve99rzrv3POKrOa3cAThCfdCtiNjqrPc84ydP/7xj4VUXnzxxeUZ+8ISm0oGqYtvDDidffbZZZIk4sNf4Qx7vmOXOq5n/GHcs2dyhbouv8mLvjnxxBOLmwwyGvZDdmy6B77jBnVTSw8iPH/729/KN37btPKf//xncaduuGOAgHEfED7+WDJwww03lPhzp933ZpUvuuiikra+Ey7vfEsN+eabby725EPTyAszxz//+c+Lv0332REHM8oR38TDMbCZTRk6GtiBTvbGg3ql6SdUbmoWCpfG5qabbioNFn8UvChwyOkaa6xRyOZEQnh+85vflMZAxRculUJa2DgCIUUuCVGxK20dzQqdSCQS8yqirwk027Ror7WV4Dc7BBcEklBEGHV8lQFD2HbbbcvAoxlDQs540O++UHjFhYC01157FaHVESznn39+9cxnPrP0UfwK43ciMb+AOjn5xwkCdpAmG6kvZCGDRoB8ICG0vpDPP/zhD9Xll19ellNRGyX72Xk6NAi0GY985CPLcXHve9/7hjUNkDuaZ0cddVQhrgEDQCYJVn36qmXPDmTVt9ZfI8BmV48//vhq++23LySL5hniGFh33XXLMqx3vetdZWYTkVWPmYMPPrhsEkZODey0005loIzsR1MDSRQuz1zJitoJA2iIYR3aJ8+4a2Ii0iDaEe8+8IEPlIkU5NTmlcgfrTunIVhH7tvQcpRWwi697KRN08+yMrKyuEtneQP8RvKcjCBvED/P7PKt/f3LX/4y3G7SZLRRmvRgh9Yj7UdhcioEu/LVkjFxNmP773//u+Q9mdcSCIOHwqdMaOu5RzVWHPUFW221VWlLhdtO4OKl3Jj0WXvttasf//jHw+FJzIkkm2MA9yKOBBKVTuE0asI//iqcCrF3fk8khE24Iv5+u9cAEkTiGnEIstkM5yDzJpFIJCYC0dcEmu1atHtBNtnXnntOwCBIEUyQSoOMBJIXv/jFRXgM1dnxIMLXr/Y22nXm2muvLapuZmwIvscee2w5j1ncYlZFXBOJ+QXIln0zEDYDMuoJ1VOkLsgmYmIGEfl79KMfXWQmS5+0BdTmt9lmm6IyaV+QLbbYoriB4P39738v5Omwww4r9YsKu28M7COu5DLHz/FXW0KzDCH71re+Vc5a156QGU1UIDIIFMKJqPF/6623LvUVAfKtuo7kCAuZ85BDDimEEPnZfffdi1uXXHJJIc6OYkJqtVc0HxAu60uXX375Qvy4IXzN9owfo5FN8TTrqV0UJ0acDNAhnMKH4IsLIqjNQdY845cTH5Be5BsJtp52v/32K24j7NLQcX/II9L9jW98o6SltLJMgPs25zHLSa418VNvt8VNHgovIvvTn/60hMX3tAHl/amnnlqIrF3E3/72txcSKr3M6srjZz3rWSXcltAh5dLEbuP8iEEKcVNmEu0xZy/cJygkncBON/bGA8LDIPyIztxVI6LCuHpGIHFVsD3XwauoE2lCnULFAyNcwqECQlxDyIjvhLtuEolEYn4BYYLRVhKgCB8bbLBBdfjhh5e20h4EnhH4gLASBHU86Hd7S5jmnjisvPLK5WgUArKwIp5G5GPQsR/hTyTmJZCPlH91BMlDwGL9owkDs26uAbIRMsNQoTfjiPwhmbQFrJFGMJErM6ZOGaBdZi2fGTuyIXVN9c4s25lnnln27kBSzAaS1ZA8CHLIfYQIuXFPI+2CCy4opAtR9IwasO/ER5tl9tXacTNvwvrGN76xECKb/Jid5S5Sxb8gkAg38kXFNJ73Cu1NuGd2kpqw8AkX8ovE0wQxM2uGF2mV7kigb/irLTKAB+x5BtyQXoD0yTNpBtwyuykt5YlZXjPOcQ49IKvSyQz2ZZddVsJpFpf72nPfIK7vOOgdhVDKE2GSxoimQQXtJ3viIiw2gxMOfYL8YvjHTfeJ9hgI2ZzqUNAUWlej2wpYVDYjRX5HI6AQhhAzUUZYND6Me2EKYqlCxIJqFdH75veJRCIxv0LbaMSa6hYVLqSS0McQ5LT77EzWtjIEIOHU9lMbo+639957l2dHH310IZ+EYe1/IjE/gVykHhg4QlSQRbOACOGGG244POMXBPCxj31sGbRBUJnrr7++1Bsq6aeddlohTjakRPAQETIfFcyLf3RxkbU22WSTQsJAvURkX/Oa1xQ3fMNN7Qkgq2Y1hY98ZmbQ5IAZVjOQ7rU73BBm4B+3EFzf2RXVDJ5ZNuFiQv6jpgpR75HN8J+8Kt69wqAW94TLOb/IJ/+E5ZprrinhM4PomfQQr+c///lldhTIzexQnTW4J+0QQ99LH25QOxZWZFC+SSdpiTyb6WTAN9R2xUW4kFh5yn2/Xddaa60ym6k9t5vvCSecUG3zkm2KCqwZaWlsGZr4IK5+x4zzmmuuWYgzKEfixLArHpHOiYcje5oxICqqq4qjgCncKq2r394pnAr3RBvQeAiDsKgUGieNpwoRo3ZRydt9n0gkElMRBBJts/aQAALaPQIFckl9yqi5Z4QcAp9ZDAjBitGOcsf9ZIIwiSOj/feboVJG1U0czMIQmsxqhPAa9hKJqQxqnso8AmhGDGGhXk611ayawZmQ4cDAjPuQnxAh91RKzYohjogfNVj1SbvB3gILDs1YPv7xjy/P1DHP45n6SRUWORMeMhtiCvzzjXqKMCG87HiOKJHpqIYCd8DMJfnTrCJySl1emFzNznE/SC0/AWEWpmgnhK1XRFoJH5VW7iBo/LIZkOf2LQkiKz42WtLeQsiq4uHoJlcEkDxt1lmYzHqKszhy22ZDNnSS/talv/rVry4zptyKtixA/Rh8LyyIqo2KDCaa0UaEhc+mn9JcfGxcxH92+S+NfE/eN+AI0XdwM65xn3g4kmwmEolEYr4BIYEAUR8cJCTYDIKqlpF1qm+EUKPf8zoIZ4QlAp2RfOu3CNTU7qgEU6GjfiYdQnBNJKYq1AXlXH2gSonIvPzlLy9HV3RDFsy+gW/sRI2wWoNoY5wTTzyxrGlEZBA6bYz2RJvD7aiHZt9czdY14TkjjLFWEPnxG1EDpMosZZAj9hE9QCCRNeGxM7Xz2E8++eTyGzFugvvcYfpR/x0Vg5iJs3WMgHSKOyy5xJIlvNY+8rOe5ggfEorQI6SIs8EBKsHCRo1Zm424io9BgtgRnJEPtFL4LQyIufThNxNk2gwloml9p2USZjt9yx/hQTJ9b/AgyL28dDX4KP39RmzFASINE+2RZDORSCQS8w2ocoWQ42qNkcPJbVJh5Npspo11zDIQLuZ1EFCN9BO6xJeASzWNaqADyRFQQluM4I8VISQnEpMZsYwIeVEfkAZtgd914gPtyIMZUWTG2j+DNXYotVGNc8qtITRAhYR4hxRRBbXeErivLjouxfU5z3lOeV6Heup7pMp6Q3XK5kPqsecGhqiTUo/lHjIE2iuDSNYaIpzWnqrbrkgnUuVdO8TsIr/Hizj6SVuy/vrrl2cG7qQl9+++5+5yjIxBr2gv5Il4aH8333zzcsqD9afSGKkXd+9t7GQtqzSQb+JnF1lrK7XZtDfshMtvbnNXWNiNKzsbbbRRuXJv3333LbOiQEVXOKn5AtKO9Hpm8ABplpfc5574uHovDd0n2iN7hkQikUjMNyAABtEkgDXPzaS6ZTawPmrdDk3BdLKCEF0fmSeAEUrNrlBFI9Sa1bVBSqjXJRJTFbQWgiwgN6HlgJyoC51ARZV6qjWR2g47qNo8hrottVcEklsIqV1a+We9tFk7awJt9mOtpzWKjk9pYonFlxiur6EOe8stt5Tv7MZqkyFkyI650T4hPcgO4vTf//63zKw6gsXOqpYF/OAHPygzn+1mUrnBtCPbY4GwMNLgoIMOKuRcfA1uCbvdZ1/2spcVO/wUT0Y++I1Ayh+7z3LD2k6/wXtpbW2stHEc1Tvf+c6ixixtuYlcR/vu+3ob7h55lXbct/GPmVAbAmkT5aFyIR2llb5Auukn5KWlB0EuYzfdSDdXJtEeSTYTiUQiMWVhZJqAEEKCWQFrf8xmEn6AOp0Zzl123mV4VNwV4QyEMFEXKur3kxXiLT6EOcIRQ5j122YoZhDcmykhpJr9CMGvHv8muFk3icS8APVaO6AeICdRxv1GDEPzQR1AIpRtM2vqAzLK2BHVWj8zcAao1CPrMBEhpFKdQ2SRPUTFUSDUbR3vYUBnu+22KxsSLbfccsWeMDHcdu5mQPioi9rECMxQmpFbZZVVygBRkBwQD+TJ2ZKIk11xhc36Rhsh2RiMffESPhAv8Qb+x/MmhDHIIX+kCXei7tfbimgLuGcAzzpY7QrCTHvEZmVmg+2QK521ReG2tN9qy62GN1Si7mppAzfDrmfWoCLRVF+lvR13zezyi9qt8HKLm8KgDxBexvpXJHK99dYr52+aNXZOqdlpx67ww1EmNn4yy0ptVppS09VPWB8qHaWb9OOPgQXhE+dEewzknM1EIpFIJCYDjJoTDqheEQ4IPNRGPaOaRWAhVNhZnLAZwtL8AoKec/t22WWXQsQJxgTh5z33edXtd9xe0q8dRkqnEH4TickI5R2hiLXMzfLtvWfK980331zICXvIRRAs8BvBoHrpmZlKbYpnroC8sed7ap52jKXCyW/faI8QFUTNGZ2eNwkft4SJO2YoEc3YjdV5kAirOhdhjCsVVCqlNt0RbvCce+JnzSRSGv5xI+JWr8PCFsRNG+kb9qShb/mH3CGTsRuvZ67sRVqYCaRNYcYQARQG4fdNhDlIp2+11+zx3/twByHXTrNrFtfGTmaYHaXCDWGJwYE4C9mzepxg4YUWrn77u9+W3YWFyW6/7ISRZuLHDeqz1p9Ka36YGbVBkzAJGyOc8tJ94uFIsplIJBKJKQsCAQHBoeXOwzNSTZiwzsdoP+GJ4MIeIYeZ30BIctg8FTbrOUHaUDlrCr+BEExHQlO4SyQmC5R3M4zaBaaOIBsGosyIKedMEB71wTd+uyIl2gzvgriGfcTIfTzXzkT7IgzAjm/5577Z/oQ/yIxwIXkQ9ZL90N7gBlJndg/YF75oA+MZv4OA+o4fUZ+9b4Id9pE26ca9cEPcPPPOM98LEzejXWUPQfQu0sDVt55xP+yCsAqP58gee+7ZDff5JS28813M0rLHxICCNOW/Z/U8Czc9izT1Lux479734gbxnav8AH4zws+deJ6YE6P3FolEIpFIzMMghDgvjQqU0fdQ7bIbIeEMCB3zKwhHhCRHBFAnM8tL2LK2ilperwiBMJGYjEAMEAiIGa+6AWTGbB4gNcicOqGu+B65WmzRxQoh8t4730Rdcq9N8Vwb4xkywj9X77jBP/fc8U2QnjpitlM7xg43wz3xcI8ACYcwx6yh59xl/GZX+LjFX0QqiFIg4t+Eb/nHfW5xA+FCaiNMjDAiu95FmgiXdfLc5gZ45jc7wmQWk5uRvvzw3n1omwiva3wnTK5+Rxpwg5/esS+Nhcl37ESYhNt779j13vPw12/fck/6i0+E23fsCpv04C4T4Uu0R85sJhKJRGKeRQgSBBVwT8DT+ds63yYScZg5lTLrdepoCgiEjfkd1rJaawZU1Kgdr7DCCuW3dC7CdiuNCWEEL4h0zPRLTGbUyRVE+Q0037dD/ZteCcZ460en9irC34xXp/rpfbt3nfzr9L5XNN1rolf3x5oegdHiV3/nOb+a/iSGMHquJhKJRCIxiaGTNwJtlDpmD2677bay06PdA61bMjpuY4ozzzxz9leJkSA93/GOd5TNM6gYX3XVVWX3TeuWwExAzGyYCQj4ri6IJRLzAhCEuumEuU0mop6NVN+Er10YR7IfGO1dIjFe5MxmIpFIJOZZhIBoxg3ZdCD4HnvsUTb3QIYc1L3ffvuVjSiQJDOedfR7ZH5eBzIpLaXDz3/+83KsgM1GqOd98YtfLOrIAeldJ5yJxGRHN4RyNIw0Q9Yt5rX2pVP72O/2s1N69up+5PdI+dbJvdHiV3/nOb/m9mDEZEWSzUQikUjMs7BuBok0m+lQdYYq7ROf+MTq05/+dNk631odJDPWT9XRb2FpXodZYGqyATs+brnlluVoGHj3u99dzrYDpLSZnonEZEaSzd7QqX3sd/vZKT17dT/J5uRAks1EIpFITBo0hcFm522zjqWXXrrcm1nTyTtg3eylM+XA4ecOFKcG2pzJTPQGRB6htPb1pJNOKuntmJSPfvSjZbYTkWeH4BWbcSTmX8h/a36jXMRGOxMFAyBm57UjV1xxRbX++uvPfjMxaLZffl9++eXVxhtvXOpHJzIyVrLSzl+QH9yUJpYUPOUpTyn11qY8BpZisKjpb6/hGMn/drDj9YorrliMcNUx1vgHOn1PE8MSAOFzFI1y+pjHPKakSWxgVEen9qxJVntt//jpvFZwpM14289ev5cWyqW6Kk1WXnnlsiu5e8bzfiB7hUQikUjMM7CToA7erof/+c9/qoMPPriodiKaDlY/55xzyuHqdkCsz9AlxgbCO4HDGk7HocApp5xSvexlLyvHyBDWCCWZ1gkg7H7sYx8rQvTcKBMGl5RHpOPHP/7x7KdzF5dccklJj/ESqbEgtDmQrAsvvLD6yU9+Un7bWTV2WZ1IKB/f/va3q+uuu26uDATKg1gqIC2uvPLK0lfEjsPyqW6k0WimV/tNIz2UD8a9NBmPaYank1FX7HMg7n/4wx+qk08+ufSvwtLP+pszm4lEIpGYNND51dEU0HSoOkIHnMe5mQSpvffeu3rb2942PFqu8/Sc/cTYIa0h0pFQ5PxNMyOIP3LvwHPpTXjKNZzzN+Q/4V35UHcnuv4RlNX/ZZZepnrE0o+o/vWvf81+MzFoznSZNXrCE55Q/fOf/yxCfXMmr4mob72i6W+0o/KAm+qmWStq8HvuuWchW8hGoNnO9hqOkfxvQtkwkygc1tZrN+pohqNXdAp3tFHCu9VWW5XrRRddNEy8mt93cq8Z717TDfHfbrvtyr0jucY7kziWfJMH0l2feuihh5ZBCfVWevSrPe8tVIlEIpFIzEUQ3pyb+dKXvrScm/m4xz2udI5HHnlk9djHPraMxuo4dZIEi8T4QBghIBM8mE033bTMGK2xxhrV7bffXtQDnVkqrQmSifkbyotyEmcQTjT47WzEu++5e8JVeNtBWLRZkSYTDfUyBugQKmFx79ncGBiKNpn//VLR7AWIFcP/MAHhUX7rpm6vnenVftPU/XQf7exYTT0s3Rp9pm+Fx4x3zHz3SlxHQ5LNRCKRSEwaROdLEGIISK46PiTHGqzPfOYzhVDuu+++1e9+97tqvfXWKx0lu2YPuOF3PzvL+RXSMFRpGWm82mqrVd/97ncL4ffejr/77LNPEaYJKeyH8JKYv6B8qL/qoTpaF2onwkQZ5fdYhe/xmCaiDkQb1gnt3OzGNCH+jPRwjWdBIhikIuw10c6P0UwT4W7TIJv8jW+a78eLZriaJkiZ+PMP8Yw+Rl41w9OtiTSN30FqOxmIb+r3YzW9QpitV5Um0kAaUb1WbvzuF7InTiQSicSkgQ5fJ4e4EEzq52Zam+kYjpVWWqk6//zzyyY1iYkFYQQIKCeccELZiImgctZZZ1VbbLFF2b3W+qdEIpFIJCDJZiKRSCQmFRAaKplGV81mrrPOOtXnP//58s4MGrXZF77whWVUNjGxQCzvuOOOMhBgBpNKs/M3qQva/fP5z39+9Zvf/KbY8yyRSCQS8zeyp04kEuNCCvyJfsKMJrWmv/3tb9V73/veauutty6bANlkw9pAxyrYYMLs51jUhhLjg7xxZAKo+9b77LDDDtV5551XrbDCCmVHQ7+/9a1vzZXdSBOJiYRBlboZL/rtXiIxGZBSYiKRGDcInTrGEELroBbpHSHVTFUiUYc1RNauKCfKkRnNX//619ULXvCC6uMf/3iZQdt///3LNvXUNNllz6Y1sR4q0T9I27qJtU5hzGZK91gbZ/ZSntiR9vrrr6+e9rSnlWNpdttttzIwAL7xbSLRCVHm1Hv9ht/KV5S9QSPW7/E32hfPGOFZbNHFSpvlvt2aNs+bZqTn7UwT/FDX+Ov9RKVHhCc2N+JvPXzxvv6sH+CPOEefELv3Rj8hLcSdv373G801kPzjj3Apk7FZWjxTLtjzLPowpheEX8C/uol6wG2Gv3UT6a8shN+9Gn7HdVBIsplIJMYNjb8OgnpdExox7629SySasFkEo9N2buZrX/vaaqONNio7zTo30wyZczORmsmwu2RidBgU2GmnnYrgcsQRR5TNg/7+978PbxyUSIwGmgyveMUryjmuZshtAKZtIHh3OjakHzDYZUZem3T88ceXTbCWW265cuC+Qa8rrryitEP6tCA9dTNeNN1Tj0499dTqsA8fVpYSTER6IDjWxxvc22WXXaptt9222nLLLctVnmy//fbDJLjfBAWBkq7kBuvC5Yf4C8syyyxTNq953eteV47pQIQnAtJDXP/9739XBxxwQPWUpzyl9Ecbbrhh0baJQQn5JW96Mb5td19/xt1rrrmmtKvqR91Efrj/6U9/Wuz3aqQ3v1wHhTxnM5FIjAsxOqZBJlC61uGdDqQ+IphIBJQXgosNf970pjeVWTHP7DTrLLZHPvKRRahQbtqVL2WqjkGOzs4PUF/raAognd4HCIj77bdfyZ9nPOMZ1Ve/+tVqlVVWKUJNYupCfjt/FWEjyPYKhMJ36jG3vvnNb5bjdSBIyGjQTihjvkdW2g2AjgbkBpk8+OCDq09+8pPDfRv3DJYwl112WfXEJz6xhLNTeMRh6aWXLptmdZMezfbst7/9bdmBO9BrenAv0lKYrbF+/etfX76TTs3v2dNXG+hz9a32OdyItNBOS+ux5LHjqoTDOclNcFOYxI1fH/rQh6qjjjqqvPM8CK6wnXTSSWUwoBeIg/hwG4GGCy64YPgZt+uIdPrTn/5UBkHlo4GIgEH097///dVb3vKW8pv7vUA8t9lmm3J/7rnnlvjVwT39349+9KNyvrEwtoNw2qTt//7v/2Y/6R7iLo72RzjssMNKegiHZyO1771i9FKaSCQSHaAxYo455pgywmakrW523HHH6he/+EVpNHW6iUQdOu6dd965qF2a2VxxxRWLQOXcTMKizj0Ennonn5icIKQQfHbdddeykRPVemrRm222WWkHEonRYJ22mU39BeKhPIUwrFwNGtqY6667rhyvBNqmb3/729Wxxx5biDCS87GPfawrotkPvPrVrx72Rzs46PSQ5mbtxBNe85rXlEE/JOSd73xn9ZGPfKQQRfZ6JfLdQPoH8bPzeBDNvfbaq/rVr35VnXnmmdWznvWsEvfPfe5z5d0gIRz8+vSnP112RV9zzTVLe/aXv/yl2mOPPcp7Ghz//Oc/i33lohcT8tNIRj1wtTzhfe97X/WBD3xgDrPddtsVf8GgnvD0apQlxv2g0NXMpkIVFV9gJqKC1SGhE4nE5IW24VOf+lTphLQVTVA1IWxGO5KYupDHhIUoBwSk6MS05WYFLrnkkjJae+mll5bZyt///vdFyDCaTh3ICPzaa69drbrqquVbsw3ci1Fnz/zWFzVHohPjQ7N/b/a/nd43YaMnAvvPfvazkldUAZGJEJxvvfXW6uKLLy4CHIGHGm4dyy67bPXMZz6zevKTn1wELmtDzSYoLwRi5QdcPcvyMHehXo5nZlP/8J3vfKcMVCpb1Oj1Hep8N3nre+WI3bHMbCpTRx99dJnZVD7/9a9/FTeFxUzcGWecUW2wwQZlQMwsZ1OVsxnGXtMD0Qs3kQvr1jfffPNCeNW9c845p6f0iHbTtZuZTXEG4fCNWS7nGGvTGRA+3zHdhKGJTjOb3JQPV199dSFU7s0yI1PqOOInf6B5zFKn9kicgsx2O7Mp32jYeP/DH/6wkF15b3D0xBNPLOGj9k3VOtKvWwiPPg9ssjYSmuHyW1zf/OY3V1/5yleKavEnPvGJkj69IjSG9MsGE+bazGawb5Gr66pPlEkkEonEvIEQ9hZeaOHqzjvvLJvGmPV2VImZATMXBAQE8oMf/GAxX//616vTTjutjJzr3AlWZjqtjSGQGM3mpr4ohKexCjqJiYWdg+WfmU75RT169913L+WAWhoBWPkgJBF6rM+tG0KcPEdArCMzIPGqV72qOvdb55ZZU0Kf7xhlJJEYD5Sprbbaqjr99NPLIKmyp90hfFsvWBfmm0SzH9BmIi/axM9+9rPVox71qLLRlvYuyN5EAkk+5ZRTCpExyyhN1Dl1uVdi1Q3EnVGfDTJ94xvfKCRstdVWG24jfvmLX5YrtdJBQ5tiIAwZg+c85znVDTfcUH33u98tRzyZeX77299eBsOi7+vVKF9Mu3dh+B9k2O+FFlyouvHGGwvRxJOoz0bfOB4zKHRFNhVwhUpiSFijRRNpEonEvAsNWBCDQTZmickBHZ9O9/obri/qV87INHNlcw1qSGa4jFIjmS9+8YvLLIE1Se5tRvHBQz5YnX322dW1v7u2qLM973nPqw4//PDSmbuaqQjhb24IX/M76gPBTCcQTB/72McWtUQDCGC2KtbFEZCsRyLMyt8XvuCFcxjEkrBtRun2228vZWn55Zev3vmud5aZjhNOOGFYQB2E8JuYv6Bt0daYTXzRi15U2hjPbA6DACI52iwg9Ee/1q/+TV9pMO7AAw8s5MrMFQ0PdU0Zn2hQo7X2OtQ2cQADRsImrP0GrQVpzH1th76EcZavZTqrr756dfY5ZxduEOskBwl5r89RDgyOmZF97nOfWwa+rLVcY401CiFWFrRpzfLQyfSK+Oa+++8rRBPWXXfdYbIZ6dWLkY/aTlduKGtx7Re6KinhsUhKzEQikUgk2gGhtAOpw/1XWmml6tprry2qX1QnqZMFZjw4oxiChQ69PmMACyy4QBnVf9vb3lZ2YCTo2W2PsGGXSLMKY+msExML8oPZbbNFyoGyoYx86UtfmmNzjxCm5Xvd1GePzLKstdZahbhSvT700EPLJiFUa7mdO14nxgvlEMlBHsi92iZXAyP//e9/i3qpfQjYGwTZ4u5b3/rW6h//+EdRl3WPCCAF7SBsddNvmGk1c2cTnFD3tPkXTZRBxN/GQ9Gui497eeG5HWiduQwGoZ7+9KeX+0FC2ptRlP4xKIZgIp4Ir2UAtG+oWys3vUL8ejHxjbJI3Vt5sXaU38KpvPZquBFmUOiqpMT0sY6gKRCMhBhxbjfyTLiAeKfAjmYSvaHXxqddmqdJ061plremSUwtNPOXIKBv0GnZEMZMps0SbAZz0IEHFVVY9hCB6CwhyIR3MUvp3rNA3b4dGKnXUuNCNoxy/+EPfyj+A2HA94nxoS54NIWPSN96Oruv/1YWyAye6eut0SQ0W+d00003FdXAdhuFaUvaCWvKTbhPjRH8Vl6sBSUAmiVHYq3zCzVEdlyb8Hw0k5hcCCG73hYMGsrNUksuNUzyTj755DLAJQzKmkE0ZVX5bvaHvUK7yY+YyKFSro2jfv7Rj360hAXR4na9jTPwEm1fPxGzc+osbRMkm8o7wmlHaQM76vfPf/7zYrff9UcdFy/1G9/gh7ir2waokG+DkNoVar2R7tKpW37SC7SB4hXrVKn227WVWv/ll19elobIC4Oh8me8qJf3dmbBBYZmIGmHaOusfzX7LO5jGWyLfIt4Dgpd1Qw67CIi80UmMnckAwoj+0FU6/CMPQVqLCMBiUQikZgcIBxoz6la7b333mXzBh2vtXWIY3SS0amNF0aUr7rqqrJpBWJrUwNo19ckJh5mfghdhD87JdoxkgrsF77whSKYDQLWg1q/ZJ0wFUfq18paDGwnEt1AO4Zgkkvvf+D+QgQtBdC2kWcJ9c4BZs+7fgnn6go/rQVEMOHRj350ma1Hqo477rjSviEEjsdQp6x5V77VtboZL4QDsUJ4tePW0WvjgxRT12THwNEg5HdpK15BHMXTM4OWr3zlK4saK5KpT4mjaaSL3+z2G9yNPg6QXfkuzww6WEsqXRBOzwaNu+4eOkIn0kCZFH/hC22fXsxEoSuyKQISEzkUuBAaRjKRKSN1/uGGq8xpft80iURi3kU0amESUwtmMc0ymsm88sory6YNhJDI62Y7Pt52feaMmWVkm1BmlszaGRtY6HeSXAwekXcj5SN5wUzMJptsUtRllQmbQxGIBjUgwF0q2md+7czqoIMOKiTXrAPikEh0C2WUnIvouCpLCI1yjuTYcd07bZv3zHhhcCYIk52b7XAKdmJ1xiT1VYQXhMM6vYsuuqjI5Mo94lE344W4aUcRWke8WGMvzgiXMNotmr9m1AZRn7kZ7YqZ1C222KL0L0GkhQURxx20Nch39DUIX7/B7TjnVLgMakW7Ui8rsXvvoKFvtUbUuZ/CgYArP/3Ie5DH4hGmX+jq6BOegwiZxtaBjAb2FARrKW6++eaHJYJCY7QEJFynCFmzk+gezfSMijgS5NdkRpS/wGQP7/wG9VudHunoE++MkG666ablXafymJjcaOavmSR1lHBPCyby17Ved5v5Hr97ba/q0M849Jy6F/Jpg6F+CICJ9mjmVR2Rb9YSERDNOn/l+K9UD854sAivveRrE6P5G++iX7AO+LTTTytruk45+ZRqm5cMHZgeGM0tGE84E0Pp28+jT5CJOOqjG/heGyAfranr9egT4bf+zrrMX/7yl+XZnnvuWe20007lnc17zKBR64dO7U2n9KAmijQw5GUziuIg/FFWfWdzHulhgx4q6fvss09515SPmuBGuNXN0SfSmQajTYmcc4loOfNYfdbG2qzLd/p7Z18286Wb+jPa0SfaCvHlLlVd6ewZ++94xzsKuXO1YZCw2zQs4qE/6DTbKh1C67Ld0SdNSF/uKwN2xRUes4orr7xyWb9pMICbBgGUmV7hWxsNQZ04jwRxtNGaJSv6O4MC4ixdXDuVxybET/r6jnqw81RHOwpmrOiKbPaKKLw2BLBznMRsQoUVOe9UrF7QrCTNCizxuCkBZQBj1MFz/gXB1Qi575SYEpx77MY0dfjdroAKTzQAvmPXlZ+eh33utBt5FW4QR98pXOEGt5vpyR3Pw71menSKH/fr6gftCis/2dNotntfB/+kObt0yoU7vmkXX5CO3OePe/CN9Iq0HgnN976TV9IxGnLh8VzYGN8wkVdRJqKsRB753rs6omL6Tty4P33a9Oqee+8Z9rsJzyHiyU5co6yMB9xVp0B4hN+ziCf/hTXyghEPaSENIs2FpRkedoQVfNMsX+zzg/qkDqEJfibZnDqI/FcWqM0SyKybU9+jHNXRrr0aK8Ktupvcc9g39S4zndtuu20Jo7ql/WkXpsT4UK/H0lm/CJ7ZGIpgSvWPPW3DREJYCMtUdwnVVBEJ54FsfwYLeT4esin/nMWLbPqeAL7hhhsO97Wd3Iw+Tj6PhWxyP85xjH66DmWLHe42Zb926DU9mvVF/+o75zy6IgKRHkynMERdde2GbIJ01mcjNb7V1pONou44A9mAgLTgRh3d1K/RyGYTSL6ZXOkgDuIc6Uil1RraXsANfYJ064Zsio/nscmZDYE8EwZpJ1wI+fnnn19kR+nUC4SnF7LpuBUDvNLB8TzCBNypoynHjQT2QqYdJNmc2F6gT5AoElZmI0lR6cJoIFSWIIYqREDDEYWhW/1uBUrC+06myBxh4D/3hKVu2BUOYRAW9oQjngkPlQS/24GbjO+igst09j1r+ocQsSNszYaxG5iN4D6/xEsY6yb8kV6uncAtaRBETbhHK7DhL7f55x4ifcL/MJ0gf7gZ6cK9etoLU2DxxRYvYWVH2nmHtPmOOxqPJtjlfuQHfxDNZjibBrjrO25HQzVecFOaC7s1Ucq9uLousvAiw52JcDP8FGfPfScOOkLx9027sEcdYDcxf0M5U4+OOOKI0jnZIXC55ZYr5aMf5blXKMPIhPC86U1vKmqbyrHyrB4kBotoQ6S5wQd92zFHH1PaJWaiEe07IdVutc70JCAKozKamNwIGUC/A/oeeaff1O8OGuSoZZddtsymUv+2RrxuDKY4EkWfGeGsm34j4h7XkBui/+63/9wVL+fbmj0zWxduOxLGplxIjjBMRP1GehF/AwexdpQaLZJps55+o56WjHhKdzvQIpTiD9oZgwi0NKWHtBiL/N0raIzCiiuuWJYqzCuYJ2c2QYHjNpbfdN87Ot5Pe9rTSkHhD6JktMpmEli7QsEeleBO/uugNHIaQd+o4A50NaVOr95Ufx3sa6yMdmic6FR7pnAGEbB9s7Pk2lVWhMGiX+EyMq9A23VRpWsnQHHbWUyeh/u9IL5DrIxqNNPDb++cO6Wx6QTpI17ctZEH4c/MxxVXXFE6/SZsJOIsPWemWe/ltzyNtGmGp5lmUd4C/OJvhEF4XJUDa3ksNJdm/JCeKq9yEWe/RbpHGHxXB/+QOASTu87f+uY3v1nKI7///ve/z7b5EDSS4qg8OALCCKOyOdbyX0fUI+En+CuP11xzTYk3hPtPetKTyiHJ1EDUDw22DlPnClR4uNGMr3AqkxpZ9UgdqMN7aZIzm/MH1B11Wlm2nscoN0Q5aEKe1zGe/G+6BVGmGCPd6rKRcG2Wdq1dmBL9g3yX9nYKNmNiBkD/NzcQ5cNVvrtq892feOKJw88Tg4M0Hs/Mpj5ZP+OqrQk3XGOwfzTob/RhyuRYZjZ9T97jl7LS9C8InveuzTg227de06NZPskYvgsjTfghHMIQ/Xygnf+euXY7swkhE5LVhV9+GGSUHuQj95HWdTT9b4deZjaFL/KBEV+ytPDwS/r0AukgDbnTzcymNOdH+K1MSZNIN1fvlRlujyU8vcxsRp0I/31fvwaa5XYksKccycdUo20DjZEDoC2gVujq4Ca9d2cCqTCIgG2b6eFHoQWJ6CwjlWa0BJWxMsPV+UL8pcsu3J4xTfBHOBibWRhxt4bEvcKIrDpjTIY28ZznPKcQWW4ImzhIL+eL2YyjXVi///3vl+/YQ2x6AX/EwcJngmO7QqqxcdYdgtKuQtbBPTsPfvnLXy5kPCDc7coCSEsNiAZZuiDb1v2Ij7Svoxl//tVhfYH1DZ4340KlyoG8hCGjUQcccEApF03wN/K22XhEQycvlAXqYnW/muET53gW8Vc2jcwh2COlSbdw1pK1A3/5y1/Kb2GRZtH4Nd2X1sqhNR+ve93rSlooh+qJ0cwmlCfEwqJ0ZLxZZsWbn0k2pzaijC+26GLVOuuuU3ZlNMhljVwcYdIub5vlbzz533Qr4LnwCYuwaUPUbe3nRMyGzM/QHhiootql3S/qj7PLRFwnElEOw28DygZJDSqaCWjXvyX6B+k/HrLpG30G+dC15GXrmau86yTMx7fsj4Vs+lafF/1ns70K/0MOar5v/u41PbRjdfjNxMAZ//ktnu3ca+e/Z67dkE3PuEuGULelOf/85gaiKX246V2n+LdDL2QTkF7px//wUzoIX1P+7wRu+E6cuiGb+hDyYKS99OGG9GDfcybyo9f2hVu9kE3+8Fd4+dssA736z764iFeq0TYgcWW+TGpX0CSOAkIwdj7QHnvs0ZZQRKFrQoHyjj8SW8WyLonAve+++xaiKYM0RpHRdXcUAO/jmZkv5MeMUpxNVM9AftSNjFegINw3s2TXRc+FrQ6/kSh2Na69QlgRKGQjGtImjA4H0WS/bvgrPt6ZUdShI/dm1+pohjvgW+8UdhAXM2/yTf5Kx/Ar0qVXxHf8MlCBZFlo365cAL+EKcqCPBU/4RHOc781tI7EhllhP8B98B3/fOueCajMZjoRY+/ZU57aCcbKHz/5Ee65//Wvf13ceNe73lWEPZCP7OiYlCP3ENeAQRZkVxy4Iw/VGW43obyKNzfa1ZfE1EeUC/XoU5/+VCl/BBblNchEs4wFPI+6ULfjGXcMvNnkJ54F6nUq0HQD/B4OXyssNm8w8DFWYTfRG7QNzj11wLp2G6JMdEM0kUJ5Hfntqp9ULqzFraNePkZClI/wW99pLa/BB+Ukygp/LCFJTC5EX63vHc7L1jP5NpJ80k/wQ18f7Ypr3WhTmChLzffjRdSFMPp+7WyUW7/5413Tb2a8EP+QI0LukP7i7B7xC38GEf920JYD96MsCEs7+b/f4Ic0CT9dIz0iTzwP2XjQCH9d+TmvYCilphh0SDIC4bFTE9QLRR0Kb7MDU8EQBoK1SodQGLXVAXKXaX7jWSAaxPozbiGpCKfZ0QhHu8ISfjDCEmQL4RsJNkNQAZCMXiG8GjPHB9TDXIcZr5HeCZ942KbaqDYVO+GV5ow0Zkf4IK4Q6c9+NKKRV2bDqO4iQ4iQd2OtXPXwmGWOoxLqYRkJvhV3ZUG5EM+dd9m5qMu2E37qKri+Db/rkOaeW1OE+LIbDVgTdltjX/qIv7yiEkZNmxq5xjDC4T7cCL+lfbyXjnU/bJ9t/Ykyzv928UnM31AulE8wyGdHQu2qcmVAoxvUy78yhhBSZ+e2jX1WX331UreomNPSUM59o/z2CmutDMwhnOpMYrDQhtgZUpsa5aQXTJs+1OYb0H3jG99YyoQNhuwwbC2u3/of/a+2tVcobzY6MasjnMqWNlCbqm1NJBKJeRUh54WZrJiSZBOOP/74YgL1TCAkMXHfhM7NSApBhSoocuIZU4eONQz3uaXTjNmpEOo9cx9+OSDYLKLvRvI/TJASbpgxtB11O5ihQ/LYa5pu8Mc//rGYdrD2VccvvHWiEqCmcuyxx1b7779/EUaFW7zYFXZxiA4eXIWLvTq5YZcfnnvvG2q41LFdCbbI0lggPNwnbJxwwgnDYWM6IfIBkaMWTv3UM2FtwjNhdxU3V6buj3goI8IgjtS7nGdlBrEd2eMX+74TDvbjOCB+NcuQ3/z0jW/5EYiyCd7Fe2UciW7nf2L+RhA2Zeqss84qM1gveMELyrNuyotyDWawqJ6vt9565fw6at/cVAZBm3vmmWcWshhHY400ch31imkH2/M7DF17lBgsDArajOcxj3nMHO1Lt9CG6T8QTHmmnVMmomxoz/jhvbZPORoLaCU5MzHc1O7xO5FIJAL1vmWk/iXRO6ZkS6szsdFJdCR1YVxHRsgPASoIUB06IbNYRtgRQ+4Rqup264XQOyTIblV2LyOIGakPO0E0Quhn35k8iAMIZ93wL4zfhDVX39tApx24RRAcC1kQPqPSoS7QhLN8CBHcbif8XXrppWUWWfpEGtU78nhmbaAZYjuLOZvIzoVUk8UzICzypk7OnNtmRzQHHkcaBrqJr7wM4kU1C3ppTITH99RHCCwgfO2Ir/CIE+Jt1lL5MXMD/BKGukDmmW8IxyO5GeXAe2t5jf7XCUAzTfzmpnfWhJpNN1ChTEZdqMebu54T9BOJJmhLqMPKIHVE9TZQL0cjQf0Dao3WrdtUSDsT9T7qeril7CIF1OmpkPcK7tlkzBr3LNODQb3dNYPsvD391ALTO2uKNEE7I84MBO2j8qY8uEaf47c1Xn/+y5/n8L8TfKdNjHMbLWFw9bze9yQSiURiMJiSZFMHpTMJklMX7t2bqbN9NVJA6AkhJ+AZFUlrPJBTgn0I70wI7J4R5M1K2YHvhz/8YdlExXbR7m+55ZYyUmsX0BCoAr71LDq9OoQ7jPeENQIfe0iXDtL3nke4dPRm7EKw6wU64ti6uUlcgGqbdzp96UHoZIQDEawLCsLLDaQp4rzaaqsVtU/rChF4awzNbNjURlpdd911Zf3g0ksvXexL3/ADxJGqFqLnWeRHt5Dnwi88IbhIW26EO+LlkF75Sa2UPyEQBwG36ZRNlMB3MWMT5cHCarM1hGREEwG3gZBReTOzVMEiTQLcETazOmZdR4qX9OTfgQceWH7Hd1HGA8KiXFNztIOxgQAEVbm0U+1NN91U0p1KmTjG91HWRgK/mMiXuonnYadpmnYS8xaC8KmDyjfC2Avkudkodd/ZbKCNcG6cQ/cfuP+BUq+Q2CgfyqIBmLEgBmJsMoYcR5sY9TgxPtggCrSZNHRs9mGA1SYoVGJ7BbJab4d32H6H0nbJx1/84hdlsyfP2dGGWB/aC7T50UYjnAaiteueKYfcrZtEIpFI9BdTkmyCToOQoXMyym2DHmtCqFVRN0VyjHC2g04OgSRctZvJ00HZdOAjH/lIIRaEJJvnAP98T7BBngg8Rm7tvFUngr10bDpG7sITnvCEcpQKoQwBDeIJ1rOY3ewV1sIgxtzkXsB9HEWCjHgvHI79kC6effzjHy+qcU1EupnFRHgQLd/VyZFwEyoJnYiZtZnWpSKHnke8CBrIlq31v/e97w3vhOZ9PbzdIgTaVVZZpYRP/oi/TUoIT8qFPJaHEUZ5R1hu5x/33ve+95VZzOWXX76E1zNuiC+SyC/rIu3gGf4Hwr61vCOVN2WK8E3YlwfCFekTZcPMKyIv/LHzsbRkr+RbKw7S0eCAtBZm4Lc4im8IZYlEIOpiqEv2ipkzZpZZTfUnoJyZvdxhxx3KOwNydlVeaaWVSh1jlNGxQH2CbbfdtiwNoBGhHmr76+1PYmyYMXMoDZUJZJA2T7NN6wW0aoAb2vaTTj6prOcFazbt9h0DxsoiP4H/2sZOiH6XfQOn+v5edyhNJBKJxNgxJclmCMw6ImTv8ssvL0K4tUY6NO8J7wSPduThhhtuKIJPCOlNUAdFMs20cYOQXt8tyzNCvfuFFxpaZ4fUIGZ1/7jfrfFdhMWaJ8+4r/MF9zrVmDnoBVTNguQ0hTG7nXrG/fCfsCF+yPinPvWp8iwgXDEKbbbS2kLxl95xLqV3wh15gCRxGzlHuOxCC/yUVwQNeene5iS+lR6uvnOtm07gv0157JyL5JrRJOQIi7Dzj7t+I4r8JZxce+21bd1nP2Z7lIMgmQEbn8Rvo/KPfexjy30gCOHvf//7cv5qMz7CZnMpwrnf7DIB98okYd45g/ySdtKI33Ev7Rnv+UnV11EF4VYMICQSdUQ5vOyyy8qsf69AJs1sGuzTRkVbRvAPYhhlEslw773fNER6hbCCQSxq+873BW7W601ibJA/0f5alhCDnxDXXuD4MgO3tEBsHKVv0TcEDJoZhICxuF+HTdWUK318IpFIJCYGU5Jsxmjndi/drqgMOg5EB0OY9s5VpxVEpQnkK4Tudu+pZjmrEQkgvHAv7hn3yAmicuddd5b3ntsRT2caCPudjDC4Ci+DKBGkPAu45w91yV5hxhD4wyBXhAnbwodqG38DQaxtntROyJDWhFIzfb6TlhEPYQySGTBDK60Iot6bhSZc+EZ+CQv77g0cmJnmn/d1f7sFNS0qr/IphBruR7iUl/BTmPhDKA4S3YQwhFpqMzzsc4fxjh9mh+r26m6aYW1CehvdDyG9GQb5pUyaPUUmI+z8qqc/P72XDzEYgtgjseB3u/gl5m+oJ8rUJZdcUq255pqzn3YP7QHC6dzcOBvZmm3lMMB99cvAk/KsrnvfHJjpBtFWccM6eu0F9+tb9ifGDu1JtEMGEJqbRfXahhiQfMc73lHMHq/Zo7RbykDg1ltvLWrWUUae/exnD7dndXsjQTkK+/oaM7EGDhOJRCIxMZjWIkV9ly6js7eLqN0723U+VJp0Kt7pRHqBzs43ZtVCFbCOcNOIdl0A518IG8JYF3Z0Qjoy5MKmKmbt4n10cuyYwTriiCPKjBH3PBeeXmANivVz4HtCUR3W3FHnFA+daTP9xMEmMdZBNv0W1pO+elK1zUu2KeEnKDbdj3Rfcoklq0svu7T4B9JEWhEOwYHtZmSlSaSb7/yWFlScRtrBlqqTmeQQTCIto2zUEcJFxJNfNlCKA3/jG254h8QSWIUDSRXnOswgE2Y95z9ihcT6lhvKhXWkEPGqoxlG6Seftt566+F8a8J6TmfMKdcxe9gu38C6SeWLXcSW3UgngxiE4iae+cxnlm/ERdpDhDMIozSMgQ1+MfUwxDPwPPz0nbVM1MtGgrWsoV7chDTljrVX1MWbkA9UMDfddNPhsCXmHSgn8lBZbZbpfqBeJqjsU8tXzgyo2WW71/Li22hPDIgZgDv55JNLGRUX9TMxdmgLDYBpR+1iXZ8l7KZ+dypD9e/PPvvs6pBDDilLHeQdv53fTBull3IR4XI1ixpnXyvX0Tcl+gPpSUvJAfXqXK/1t1P56ATlJDR6HIHkWLi5CW0RmY82nLQRvkGimd7kOXKgOutscZoIZJXo+8kMdYw3/TvlN3nPgPuuu+5aljqo03UM2n/tf8hJNB7BIKjvpFPIvxMF5aEejoluj6QHw9/f/e531WmnnVZkPXIo+bpf/eWUJZvW/iEs7iUW+/yLgiiMkanRIHLXTol27ox3nquQCqBKQfVSR8c9bhNsIr7dwhoihBbapU0nsilsOlwqrsLXfI8Q22zGO6ZZeKWHtACEzsZC4lavZIgclVyEMtwBfjHSIXZZbcJz5AIpEn7+RRjDnTqkO3sRTtf//Oc/ZRZFoxD5Fn7bZfJHP/pR+ca3TTebZLMO5QJJh3ZhgWZ+8t8srwbBQEM7EMRtxCPM0jLKRRDzAD899148/Q4124hj5E3AweY2tPK+6R4g9sgz9zQOUZ7DvUA8C/Az4mqTJurZIyHJ5vwLeYtYKP+XXXpZmaXsN9Rzwlio1iqblilQO492oVtEmQbrxZEKg0HKoc1tqPMnxg7tE0GERoxBLuvoA93U73qb1A7aWEffcKfe3vlNgyMGIXtBhMtV+2+TIEc9KSvt2rTE+KCtl3fKimsv6FQ+OkE+I1aIg30YYmB5bkH5Mliy7rrrlriNN36d0Kx/2tIYBLfxFi0sA3nCRV5oDm73I/1Hg/bckqEVV1yx5NFEk03uSw/xtmzJb4OcykxMIk0k+G9QFez9Qq6dSJD7tYNRX2kDGZATrpio6QemLNmkJhmdUieyCUHA7OIZZ7yF3Qi/TW6QOG6pINzQEfYafu4R3pEE983K0YlsgrBTX6LG1A7Ujqx1Ya9ZeMUzyKUNhxxsHekRz6kqyTvPhK+eFu4ROmlcJ6gBz21CozJHmkccmnEF+Vknm77xrXQg5Nb9Z0dY7YIr3euEKUB1uh3ZVJk8NxrfLhyBpnv8FH5ClRnAZn5E2tmNEdnacsstS0O67DLLFjXqIMXA3yi/ET5XcXZVsZXFOqheq/zt0lqZdPacjsP3rpFHTD2s8SwQaec7nY7zDUcqT0k2518omz/+8Y9Lvapv8tNP/O9//yuDHWbJlBFCiDZQmRwrrBO95NJLyjpmbVmU9yx/40P0H+q7dbzyqRc0288mkE0DG/JJ2+KqL7O+XPs7lvyLdseVBoc+ynpTz9q1aYmxI9I66luv6FQ+OkHZ5L/+sj5YMbdgINqyKmGRJurPINGufkTZZ8gjynxcm/bHm/7t/K9DGiy15FLVffffV+QO+VXHoP3nfpQRYQEyCvSLWPUC5SLaoMiTiYS00M6Ke/gvPaST55E240XvLcE8grXXXrsILJ0KHihwyK+rI0/Ad/VC7zdhyAyXzJEhGrFmRekGyARCMpZvAwoFVQQjD+0adLNs0dgqMHUjXio59TI72AYirbhH1WKkjkK4CYfcD+GtbhROwilyRhhxHc3o9Jn4HUck1BtCYWbit41DVI56Ho2ESGd2Y6Y20E1nyB95jSzF+qQ6xJdRhqw7MrtpfdqRRx1ZRhLr/gmDcgnNRkXetIM1S3WiKe9BvAwKeOeePwiv970Y37kirq6JRBPKRb0M9huvf/3rS12J+mzzqo1ftHG5V096MYHpC0yvVl111TKop/5qC7N8jx/aOgKzdol6/yCgXdYeatfcG1zUPiG444UyoJwxI7W5ibGDbKF8hNG/TKSRpyGXOPe1+X6ijTaJnLbgAkNLlNrZGaSRB9JD+6fMk3PrBKfdN4M0cPsdt5d6yLSzM2gjTSItGPfSw7sI10SZkGMZ5cN1IiEtlE9h0ba7Fwb33cjH3WLKkk0JGJW8ExQwlU/CUk91jQyvZzx1DL8VTnZkhvteIWzW5tUFo16hQd1zzz2LEBWdch3Imh1K2xVcdpFm6w+js3VlV2EXL5sZ6TQ8lz4B9+Ic28/Hd3VjZtiaAOslkC6qq34z7puGEGFNQ/x2lqhvqTRzD+rXCDPSHiSrnYmKEg28cEv7gPfh1mhADhn+mU23HkUaBeQjtyOtGMfJvPvd7y6qM9QSzKbaeEqFlme+4Z7f0ciJW3NWE5TJOtgXb/Ei7AlL+E0VRBxHMsIZJp5xz/dIsvt2iHhJs6aJ52GnaZp2EvMWtI3KlXI2UvnoBWYcIdzaa6+9yjoRZVA9M4Bi0xjqusp4dMrdGlCXlDV1TX3VDyjr2rTE+BDCiPRt1796N5rxXVybBgx0Gnw0A+m4p9h8DQxCxPFe3BgLqMopJ9wcqxuJkRED8upyyFW9mHblohejHYkZKirz7exMpNGGMbEbfzs7/TTN9JQHoP2Lcq//Fxamab+dm72YpntNo2wE2Z0b/uvHXJUT9yE/xbu6jDQRhr/NOEwkxN2kk6s8YYTB736GZcqSzX5CBdUp0XPXaMxtKAQaDo06oqbDjwLCCK+O2oYyngt73ZiBY6yRim9UfhUNLCKn+qESUHeY2xDm+rUfiMamW7DPf5seURsjANURZSTSs27M2NigxBmb1gY4bsVaMumtkmtwpD+73SLym3pZNFbc8dzvaESbxrum8W39dyJRh/Jhxlz5Vs7Hi1jzyT07azt/Nso+9XlLGaigA2FEPe3FRN0Au45aHx/uhOCVGDv0HfLuWWs9q5DCXmGwQTsjn+RJ9KnRfmpb7Wa++eabl0EH+wPEuZsEVar69TzuFbRy+M+/bO8SiURi8MiWtgvo2MDGNDq7uQ0dpBF7hNNuXkiGjjM665itQiY9a4Kd888/v3S60eHGFSGhKkqoRGLvf2Duk+t+QzwJOd2APenrKt3cU8WlJkxQBu5FGYl8qBvwHVi7ceyxx5aZWzOeSGeo1fZCOIPcciPCFWFIJPoNJPDXv/717F/jA3Jx2223laUE6kKUZZoYBsnKxmfTH6oH6lcvBrGM2VPtmXrBT223tjExPpT0bbU3Sz1i6IioXmGwQZ7Id/klX+TXzBmttrZ1jTbQvXJhkNeSEfCdAYTp04ZEl7G0efYzcKROloVEIpGYGExZshmCPtMJ0bmNJOgjXTpEap1I3twGwUlHLUw64eWWW6502gFxJgTY0KXdTKzvqK0RGgLsIVQrrLBCtc0225TfOvKxdOaTHd0STZCuBKsoS9JV2hOMbWTx05/+tKh2mWGEsFc3IVQpX5EfCKYjUOSfTYv4Ycagm7BxjzvCQl23TjS94wbDb+/qv5n4XX9e/51I1KF8rLPOOmWgpB/tAZVcM1fWZmuLuIlgaq+onasn6gtVuHq71i3UDes1wa6HZja5g1zkzOb4Ib+0PdrAkTYU64QgqfJcfi+2+GLFHPLBQ4ZVIJHSaDcRTm2bsggXffeicvWsV9iEyjnO4tGP8pxIJBKJ0TFlyWavIJTHVYcWxDOEdwKM4zh0ftHhjRXc0MmNpaMEJDHUwghQ1m4GcQyyIB6OB7nlllvKfXwj7IRGW78Lg7Aw8Q3yE26F0NcEP70LgaEJzyP9BgECapyjFfk2SNTTtl4+hINa7aGHHlpGy83S7L777kUNLPKWPelcL1NAoJKOypV1oHZOltbhVx3NPIg48yPW0oWdEJ74F2XBffx2bUI8woyUp4n5F8qptY6rr7562fAryAC0K0/tEGXxyiuvrB73uMeV87xA+acxoj2yjh1iVnKs7WNdQ8AAoXCDsE6GwcJ5HbF+3RpvA2RxJrV80/5I+9GMPNBeyXvnYIPn2rXLL7+8tEMQ5QDMeLNjeQfYCyDKVDeIcsoNA3TKhO97cSORSCQSY8OUJZs6lzDdQCcET37yk8u1Dp0iOLNprAJQHTpaI8KEtuhYxwOH4wZxrJMF7ltfWN/Ewb1daAM62yAowoK4Sosw7eC5NTQjpa2ZOufaOe6C/9R5+2m4u8EGGxSBZ6LIUT0tpFmULf5LZ1dE3fEQ1A1tvuS4Ersie+f7umDj23DT9846tVatnfDzpCc9afbdEMIOoY3gFPkn/5l6WOv3IwGZEEaztO3IbmL+hjKkfCCF119//Ryzg92UL2DPGYnO4EUqok01O2ZtnjMPHUehznzs4x8r985wHMuaQIi26ZJLLimq5lHfllxiyfI8MXYYeJCH2grn/xa11la7M2Pm0BFWnRB9HrsG5tZff/2SP9o1u5G//OUvL4MS3DOIt/fee5cN79gxUGpQok5EO4Fd4QNtrUFYuxTb80C5TiQSicRgMWXJZq/QGenMCCZNxJo6h+vHrNJ4oFO9+eaby30IXePBU5/61EJq2hEVxEwHG4jONlAXFnX61rJ4NpoQKa1G2/LezAVVXEeFIIWbbLJJXw13IXZenRuQ1owyQ3gSDvfShhBF7fAtb3lLEXaRT5taUN3yLgQc1xDOuGX3Wlv8N9M/ymQ8qwt0dgVGNvkdbrsfyUS4I+wMoZEbiEQ/ymNiakH5UC6s5TYgEoMbvUDZdRwTslBvj6zdpI5uI5j3vve95XxFxwe5P+CAA0qbWy+z3RjkQni1seqTNki90HY79zYxPugPtXnKgfN3zzjjjJLuo/UZdWgjw76BCwMM8sZAqLJmQJFatXcrr7xyddxxx5Xvotztt99+RcV21syHtDdGw4MzHuojLrroorLm/mlPe1pp+/ox2JtIJBKJ0ZFkswWdTlzbzWwaySXImxEkvIwX//rXv6pTTz213PdjZFVH/apXvap04nUyrDM36kz9NyD8Z5555rCqmTj7Tqfr2BGdfSehgX3pFOnWhFlbQoA0I5iIYz8NYZX71qrWZ1nmBupCk7iGQGSXWffeSytk08xhPe3j2zp5/PKXv/wwAh1lMvLFd0FqDSbU81z6ALthP+4Z3zHxHLj3z3/+s8xC18OSSECUaQNI6ja1yRiUqBPHkdC0o57Uy2YdUT7jOb/jWddmgaHt/o8//vgya8otbTgy431ifKA6G9oQBiBoscgnbUe3M46RD8rRC1/4wuqLX/xiWRrBnShvIO+iLPjGoMQuu+xSfs+c1R3Brbdpjk0pG1C1vtPuGbBMJBKJxGAx3/e8CFO9wzJr5ly2eBYdn45JB0vdMYR7z3S47I5mgPCD0LHPDSqQOsGxCD9FoKoZ4XIEivDUIW6eUVEj8DHIDrgPssiOODsHM8jKaBAnI9qOQ2iHE088sQgR3HWVXp0Me9yV3sLFiJff8dw14sxtz2L9T93E9/X0iGftTCcIBxLOSJ+mCWHaNUbK7d7pXUAclQFqhAYahE3+RzoJN9g0qB6melqHPW5F/OELX/hCsQcRJ++Z+j0T6e15+Mkdx084pD3SOZGoQ9lXBpG3k046qZRzZUiZ7oSw4/xMa+2oQdogiJaCa5jNNtusEA/XrbfeujxbccUVy7e9QLhAu7fN1tuUehhhqNfJxNgQbZx2hAaHdZcIJ9R3Ee4G4daee+xZlgS88Y1vLLOO0dZHXtq9m4rtxz72sfIbtJ/dtFXRztl93YDam9/85tJWd/t9IpFIJMaH+Z5sBnRq0fFYe0cwDyElBHx2rEe0uQW7fhPCOoGd+N6Zi8iBjo5gH89HM3WywDTBjo0TnOPYBPdj9ks4Tj/99Nlv5gQh8NGPfnRXwiP/pI2ZjnbQqR911FElrN105twidCBe0uUf//hHWbdjptXRLjvssEPxiwBK2KUKFennOmgIGz+NvCOR1vrUzY477jgcFuncCYRp6Sy+3PNN5Otf//rXcq1D+SNsQbv8USYJatwD6cnIb6b5O8ouP8Xpz3/+cymTQSASiTrqZQIZsC4ZehXUrcOkSmsXWgZ5YOK3OuZ67rnnlg2DrHuOWaxeoL4Y0FO+teWBLNuDgTWVH/3oR0t6B0EczbDXNGD9prJ13XXXlWc2d6JxoX2kWrvRRhuV78cC7lkzbGMgAxh+x3mhiUQikRgskmy2gbV2hHOdHBKhQyKIh3DlPdVU6mDd7G7IDUAk9thjj6JG65mOmZtN4/lopgnhQ3Q223Sz2U8egk71mmuuqa6++urqj3/844hn5b30pS8t8e1GrUgnbWTYxkTtwiPtjjnmmLKeUHw6gXpbkDVxoVLlHNAf/vCHZfdLm4RcccUVRRC1hgvpDMiDQUN8qOyGUORaNzaOQrClH7udIM1iRrOZ3p5BPV3dUx9zpQ7YhDRTJutHU7Abae8+fjPKMn+k+9///vfqNa95TZnVNIM7EeQ9MW8hyo8y8+IXv7hsrvLhD3+4J0FduY22rQnuhFuu/KGO6VoGcFr3vRj40Ic+VB100EHV3fekmuSgYUBA+2GQQPpHOzOSifJUN9ZgRn6D/sXaSgOgEN9qo3qFMqWdRWQ/+MEPlgFCfnbbXicSiURifEiy2QbOmqSWGtBZIQchFFl7Z9bNGW4E907wLaK32267lTVPOs1+wqwmN7d5yTZlE5omdOJmNwkDMftVh/hSaYNuOl+zcWbIqBxTdWtCJ25EWhoih52AsHOPIHHKKaeUDUPER7jBNUiUI0LAe3mB+A4awve85z7vYbvCBgwefOADHxgmy51gBifsiUe9PNhcqQlpY0MmszR1uwH+mg0w+2s9HbelWVzD+M3IH1fld6uttiqzovK9ns6JRED5UgaVGyQAkTOT1dzsZyQoazEopHw1y3AQjrg3e08dk3+AiPRiDHQht6/d87VlQCUgHIn+Y4nFl6je9773VQceeGB1z733zNHmtDPtBgc8jzIATQ0O5Ub+BRntBcrC5z//+bLRGrXfUKFVJrV7dX8TiUQi0X/MF62sTqppdG6u8b4OBPKd73xnIXGErOjgdEo6Jx0h0kith9CF8LDnPWLCjt+uZkDt4Gjdndk5AlR0rKXjnS1QjQdGbXWg/HN0SSA6UcKdtSrWCnrmN7vg9z777FPiGB28d6MZfkkbcXU8AXDH995zX5r++9//LiqjRpT9RibZc1830sDGRR//+MeLShZIGyBkRBo5buX1r399ufeePxHHQUJ5uP2O2x+mphzpJXx2TLQWyMZAwhXhQ+4ZdqSN2V5xjHCLfz3drGeTF/E9+FZam90Mob0+yCGN5IkZbGvePvOZz5SZBt+H2/yR/twyCyvfNtxwwzIYICyRxsBuIhGIOqhcKit2d9X2GTyLegp18lBHlGOItrQT+DOS3Wg3wpT6NdtfKuF2sUUu7Dyr3tT9r4c3MTZIz7p54MEHqr322qt6zGMeUwbd5F2YdvabgwMQdtvBN8qCazeI9isGQmySZ4djSwXinXJQN4n+oZm2vZp+g5v6QHKSa8hm0X4MAsqzNjNkhF5Qrz+j1YuAfr1eruNal117Qa/+RzqGiXwcq2mi6X4TIz2vtxejud9vRJrJ/7FoYkxVTLvjjjv6Xtsisc2aXHzxxW0LQuxo552K3wtkom8chm9EtQluWuNh1k1l4w/7rlEAXSNcrvWCSXjRSCA/DuwnbAXETYHlXhRcG2eYVTJy6pB/75AKW+9bI3n77bcXchCzit5zJ9xtdqLCjRwKl/B3qiAaUeHlzm9+85tCIiLe7b6lRmS01zvhQJyfseozqrvuHlrDEvk3EsSFHXbF6cgjjyzpFOkC3oUBRNE6TGlknWAdjgexCyuC5Ps68QmIj82NzMBqRMNOu7BaL2odY9Mtdu0ojPjX0Uz/ppv8RiIJL0bGqZ5G2nnnufSXn9J29913L2tL/eY2QwgWT+XBb/Z9F+kDj3zkI0u5cfZgHeIRbn36058uZV4a1MtlgB1uLr/88mUdLpVHR+N4ZnZd+Tj77LNLfMz61MMQ37aDdL/gggvaNp71+mjX3SaE1QYiBh46leXE5Icyrw6st9561eGHH14GuIbb8ukPEYhBoVlGo9y6rrnmmmWHVOHymwmor1n++o9oL2lK2ABN36udjDZR/a+jnieDgIEHM+OORvnvrf8tx4Jpk/UJwpNlYP6CtoHMoq+T9wZso+/UlrXrR8cD/aEyHjJfU57ohKb9TuVV+H3DP3Hlv/aYMSkw3vIe3zfDFfW42R73u361a+/riPfxPMLpd7yrh6lTfvQj/No86R/XRCs/kmwO2a8XYPcKicbJuh9qWRqoWC8X9+KpYDYbrHge4LcwswfsIl0E/xD460CGbJARbvt2NCCb3GGf3zbVsbkGRNiaYQLfIAAIEDvei3c3+VFvUPkvnY499tjZb4fSINI4/A2CVU9r8JudsN+EcCK0BAb+8Tvi2g79JpsgfaQldeRXv/rVc7jdzp+Ic/NdIOIa712Fef/9939YeCLO7Es/6mp22oxyq1yHfwFl1KxOpCf33Ue6hX1pG+46EsDsezsk2UwEovz8+Mc/Lm28GXWDGspBtHGDRJTpQNQXpPfKK68sgymWBih39bpXL/eJ/kHd1wdYXnHyySeXPvnCCy+s1lprrfJ+pPwaFLTV8l27udPLdqpmzJxRBipjZisxf0GeKxPkD22AfjHaqXb92XjBbe0MP5XBXv0Qxjo6tVneq2PiZ5KCbErDyZnp3BKO8aCT/4Ou353cj/fxPNLP73hXj0MzfZvoFN9O4KeJJvujGHTTFyVa6T77mqiBkGLmB6wfpC4WRFNDEuQwCmWzMnsenZoCHwIPewzSZN0TaPjaIdxWcN2PZhAGCL/s3qpCCauGrl65NEgBo26xVtMImFm5biBu/Iy04L50qqvwCldd0ININ3Gqm2j43beDzUgQvMgXbk8kxEOcpZcZbCp6nkW6NuNZR9gLu3EVV256L9+23HLLsslPOyh7kY++MbvpXFXfxmx53Q/wPNJT+kZ5hHr6KX/yxcZV7373u2c/7Q0j5VtiakIbJs+1HQbiDOpRVVQ/5waUX0sBCFpIjnXPyrU6EO04THS7Mb9AeYjZIu20/QxsOGcte7RPEwnlUFuon/399b8vy1iUB2HMtmr+g+VDdsI2EGoghLGMxF4Fg4B++W9/+1uZ8LDJ4aCB0JIhtG8GfMug2xVXlnbRAEu/EWk4kplq6LXNYN9RcmS0bvYsmV/wkHTaZ6hwCIyEVxHqhuDrqkNAfnrNTN+pWIx739dNCN0xqsQ/zxj3TRPPI3y+QabiG52VtSjseBfkCLyP78KA+IPwRGMA1o6YeQv3ofl9CEXdCEfcrxMRV7u1CmMIhdxxhXrnT53VOkRh1ShpnPjv92iGGyHMAbd18LaWP/roo4saqHAIA7+FSxpEfF3rhr9Bgut2rAFypp/GU3rxr06Wud0ujYSFPf5CkK1I3zqav5vgPjviyA1uCw/CGfFsh/APXJvh9J20BHlgB16ol61AuBX57KqzjAGLcDuu7Ea4ohxIu3oYIm3YNSuNwEYZGQnUwfndDvxguMeduvGc32GEbTSTmNyI8ihfd9555zJIYR1ndKyRz9BuDWevqJdLbUX8FgYGqaCdQeuAKjq/EQvh7HYALTF2qLNRr7UztFCe//znl9mV+jFhkV/RLjTNWKGM+T7KHT+sIbU8hDZGnJsd/VVi/gL1bvtGOKOV7GVPg4MPPriUUfKKPo1RhqJf1Dc3y2X0zcq55/E7Btk8Ixcpa7Q+DODqW4G7iy26WPnG97QAwr4r/7WnIYNFfxoyQlzZDfnG1W/2uMkPGoOeUSP3nn+uMVkSdSDaZ37xM95zh/2oS37zu26kH/kDsY0rY000GTCWHHFH2CKdhEsYPeN2PA93veMfw6737JX4tMIJ3OQ2+AZ8R770DsiKnrHHDjekr2fSjVvh3iILL1LskH/dA/vc8k2kS4RD2IQ//HT1jhveRxg8Y08YPO/FTFUMRLKT4BLfboXQTMwoJFHYekUUlKgYUXjCRMGIghDP2a/baz53ZZrghk0nQgVThQ173jXBLX6DOLJvfZOO75BDDikk3DNhBG7UDcS7SLORDKhA9e9tFx+qnoGwG1eIjWqEdzxQ6SKeRnOcj6ahjTTlpzyvV8S6EU6Vkn2/wXEc0ssaIMKC5+3yph34paILD7fde8YI63jBHfH70Y9+VAQqqKd1hDX8Yj/gnfySJssss0yZtdUBIq7SUFg7gdsaQRsSSSObtUS6hdvxm3uRbtLXexAmKh5UDh0HIPwa19HKQhwZMBq4w07dgLgZ3OhH+icmF8wq0mywRph6d+S7steP9Zv1Mqn8ctszG12ZQSNMOipJG6vOJ+YutPOETzPe+svLL7+85Fm0Sf0GwVp54IcN+Z797GdX119/fdn125FVdYzWviWmJoKc2Bfipptuqm688cayptvO/W9/+9tLP478ISn6Tn2UGUlLmajl+16/puzoI5UzsAyKNoUZTP2x9/o5V2WdWwa9nBtuP4o77hw6mkzf6/df/vKX0n9zg5v8IAf43j1jgFe/yR0Elrve84/7NDnOO/e8cn47eTtkDe65R6IQWvEzGHjhBReWJVbcjnQRZsZsrPixb3d7bvrdhB3vHeOn3RUWa6JpMXhOfVQcGM+AezRfuCdMwiatxeGMM84o9RS03eGO8IlfIYGz5Vt+Cc8ySy9T3rPPPe+C1Nkb4ytf+UrJE/54Fvkn7W+55ZbiJnfY/e3vflvc4IedtCNPpatnoQ0hDvxjPMcFzvr6WSVM2jsE2wkM8oC/njP8jftuzVRFd9J7j5D5QQKhXWLKYIWA3V4hA30v4xUahaFuIrO57X68iIJv0xdCjYJmXeRIYDcqlTVNZkZV8PXXX3+4sQl77eA7frrG/Wgm0lQj6V6avOQlLynv2oEdjQt1p3bwvhfDP5VRA+KeGttHPvKRckSMNYiPf/zjh/NLRW3CO2F9whOeUI42QVaNQloHxk0VWFopUyOlWR3yPcqVa6SRtBSGgGdjgXBw1yHk1gI5CxS5j1kUacuvCIPfday22mpFrYdO/+te97ryTLp1KhcB/vPLFdF0pI3GlYpvdCDcEr96GeCu91R2jUheeumlRSBk1zvh5GYT3BA+7rULW8Q16qP7uvEdP/jtfWJqQb5aanDCCSeU+mug6Lbbbhux/RkPSvv54IwiIFoTaKMiwoGjgUZqXxITi4UWHDpWRB9A+8IghJkkG/YMAtof5QI5eNrTnlbaV320NnKsbXxi6iBmuvRtNnOkMaWNMlDlHbITfRcNH/IL2cg54uS3HXfcsbrhhhuKHcQPSbLkxUaM3HnlK19ZiKtvlcWzv3F20X5S9q666qpSJrmJOGqfDJL5xmZm5AbmyU9+cpkx9I4spU3VN6+yyiplQNr6S1px4qEPpvH1jGc8o2iW7LrbrmWgzSaN3Oev7/W9SCZ5imxg4IddR9LZyJJ68cILDW0qhCytvvrqRUOFP3bFN3CoXjUhDR71qEeVtIzB4yDr6py+HpF2VJzJArO73BNm4ZJGVJrJT+QffYfw8M9V/XU6AQ0J6eZ9yFy+d3ayNFtxxRXLoJYwGGTyDPGlKSZdrJWkdRN9AiJro0p56lQD6W9mW7gRRc/Fnzvbb799OeeXbCe80p0/2jThNqkiLYWByiwZV15Jx5CRXAfV5s2LGMgGQQqGQiGx3TeFDu9knBGGZZdZthSeXjoFma8zU+m5XycQwH3vRxOQ6+jkdz0+/GY80yjYYRRpqMN7FcbMkYpJiFdRfCPMfjub7P4H7i+V3YiKb6AelrgvhXaUOASxkKbCBH7zx29u+82evHAvPBqSfghn3BE3JhonfssX+cAv6lRGlRCcpp9GojUCsaBdvkk35cOspgZYYybs8iHSKtD87Xv+x714R3nRsEQYI32bqLsn7FBP/0g/blFbifLtmc1SjJwaJfROXOUB/5UJm/C4FwZh5C73GA21+AnzaKCOc9/9QzPB0njJJZYsxzyEO9/5znfKSKJ480P4+Ecgdyh/pEl0FMCe5+xGGQpwM+Lvm0iTgN/yR3y50+69MCvn7DXdb6L5fWJyQ7lRzpUxdZYw89vf/rYISYSuejkbC9SJcN+oN3eRCcdTmd0HZVR9RHKj7ifmDtRf+aFcuJoteNe73lUESHlHyG8HdscCu2wT/m1GaHkDcsAt7YzrWN1NTA3YeM/JAgbDXvGKV5S+TFuCnCE0b3rTm6pPfPwT1Qc/9MEyOEIVH5nQt+rPySzaFn0qrTSaSI68Q860b9ocRFH5/t73vldm0y27OuusswoBQfTIFAgWOzbKU2Z32H6HaqWVVyrPDBZzR1hovymz+mozq+QC7pCTDMJbMvDWt761lG+kmOzkmDlkLuQJBAihRcKEU9+sXbZTt7Wq/POOPacEIFvkA201Ocm9CQszv2SFOrhPfr35rzcXksx9hFZ6sUsO5N7KK69cZjgRMO6ZoKEhKG2kFxmP39KUJoJZXvnCfbOgCC0SR16SXtyXD2C3fbKK/oB9pBaxFz97CWiDpAd3THhIU+lFxpSeZErE1P4m0tygAS0v6Ylofv/73y/kF2EVNn4jmvLe99owRFj5+Pa3vz0sl5L9aBZGmUPo5X8vmKryz0DIZhNNMtDvxGy677fCodAr/EEGRgI7CuxIqBON8aDpRzPcAenjXaTTSPYC9fSM+9Hi00QvdtuhGb6Rwl33Z7Q0rccnEOkRjWkdvaRPNxgpPiOhGZfxpmcndIpvJ3SKT6f495o+ifkLygcyiGAAlTXryIs6/IyZZZCN0FCvJ8pQCCqgTnEnBojMLOjodd6EJjsyE0SijU/MfTTbhXr+EiIJyYR0wqUzgwnDBga8aw4QyP8oAwEz2tSyow8gXDrf2C7ou+yySxHElbEsD4k6zKyZwXrve99bjnizO7H2xD4JZrvMbCJDSJOy6DetqhikRZAQD7NwyCjiYg2ocmf2U3lUrhE4s2LWC2v/EJh11123EFDlVRvHnnLqO7NySIqybzCeBgC3DM4gLGY2f/KTnxT/DawhZwZwNt1006ISi7x6J5zcpkFnJk+Yqadqcy2VOuWUU4rGCXLNDZpiJkkQKwPg/EB4aZZx6/jjjy/v3GtfydJ1hExNFdjsJRJM7VjYxUWcvDNLKbzCZXYSkTUIieT5XnqZbRVe32oTtO9IIY0V7YT1+Hay54YBAO6xgyAaVFL/qc36FtGk5RLtg3CY8KHyK71iwB+Q7J1fuXM57k98kFWE2cQRAs0NAwlRTqSbmVDtkb0B5JVw8weZ5Z64I6YGKxBqZUTaI+29YKrKU+OTWicJZE7dKCi9oN4pThbUC1wzfk1Th7jM7fiokE3BA+RLmF4R8ZyMeRVpPhnSvh8YrXxBp/eJ+RsECaPY1v3YnZBQZhSYsEDtnCBBaNAOIBCEmag3rp5rP2zwQpAgzNjMgxBilkEnHgJBEot5AwRNAqc8tcaXwE24JZATxgmGAUKcQYZ6HyLvgdaGWUzfEhBjIEIZswZ+LH1LYmpDudBP2Zvg1bu/upRDpNEzBAwhtBQF8URYkCTEQbvEDgKpTCKhyjGCBUgszQrl1wygpVJIUMg/2jJXhE2bCNYCchdx9YymD1KFyCCXVG2FRbsW8gRtKOERBpojcRa3ehDPlHuEMsiU+sJvM2/8cdb2eeedVwZ8XMWVm9poWljR/vIXAfSNNhpp7BXciPAKF7Il3cQbqQZqrpYAmfWktcIYDBBuYeEG/6U9mHUUJu4i0uKmP/E7ZjelIXv6GESWMTsqD6WZtkKYuGuvDWtowy99jHsEXduknUIgrTc3EOF72O6l25WZaW5osxiDqsLGbXktzgx/qdG69mKmKqYE2RwNUYkS3SMay25NIpFI1KHzJVxQWzPabMSYwPPZz322rG9CPgkbW2y5RVGtNPup0yboGI3WbiOs1n0bndfZ2+nQbKY2h4AFOv3E5EUIXvLJlTBG0LTm9rTTTitqbWaKCM9mJQ0qUG2z4RThk5odsmB92GKLL1bWk1H/o9JmxoIapHVTyho/XBOJOhACbYZZRTOUzoI102lGb9999y1tlXKpzbEO0j3Sg5yY0dJeIQHUaKmHmkW35wE1UYNh2inrxz2LQZEAN4OIIFTIERgs46b3vkF4+C2cBuNcg7DY64M9v9Ubblk3KJzcFM5wC3xrsIZarplEblO7RdwYs4XaVN94Z8ZP3RFOxNvMnN/c965XINDCKK7Pec5zhjfpEn6bCgkf9VRX9Vr+8C/SRjw8Y19/YM3rd7/73UJUbfBkVlY4vWPXukphN/spXox4GtS6+uqri5v8Eldx8q22JtJXGuqDzBL7bVCC20glNWZho44Lj1nhMcUN7hkkiHtuQ5BlcLV5WWIIyRQSiUQi0TfocAn9hAcdMWEISaT6alTd6D21J7srWhtDCEQsqJ6ZLTDbQKgg3BHgqJzp2ENYICQYKScYcDsxeUHgkk8EtphVUC7kH0HUAIMyYM2ZtU9miMwuhABq1kJ58i3Bn5qgGYeddtqplAPlzDvCprLm6nkiEVB+lAszkoghFVGDGLHBjfKJICk3ZrSUO8+UJzNvBryUWbNfiBOigtAgfoyBMu0QkmJdKHfqxvpAbimr0S7S0NCeRfl1j9jw16BcncDElVvCAOoFu75Xx8SPO3a+ZU94rC00S+udAR3E2DpGhNt9/Kayyz5/2BV/6cI9bvUK34hjxCvCyU1x81vb75284Z923XpH8N6zaDuQe26a8TVrKYzWs3rHDRs1eW+22JptgwmnnnJqyQu/qdqasZbH7HNb2IRRvLUr+hebmCG0Zp9tMqT/UV4MalG/Bs+CTAo7N2lWBOQb9/kjTJEG3RjxYXzHTDXMFbIpQwZpIAp7P1BGKPpgAvVwJgaPetnoxjTRzs7cNONFOzcnk0nM2yAMEB50nKBTjs5UO2i02UiyUXOzWNTQdK4EKG22DR6MrmvDF19saGMwiKsywh1+6NgTkwMhLAXqQhNBU37KO3bq5SHuqauZTTC4gIRSk7MuE/EkLBLaPaMKGMKoq3LhPtxjEomAmSvlJAYtQJlRJpVP5Y9Kthl0atqxIZDZQW3UiSecWMoW1UukCamhlfHNc4Z2waY6q8wq247TUP6iH+Mf0ucZv6w39+yUk08pYeC+cNjcihque7NqQcJA+ME7G+OoC0il5QQh53LfzF6QTW5rH63vFD+znNRZkSdtLhJtDTwi7fuoR3EVX24zTXgnftKCH1Hf2PWMCXCPfWHyXBiQfKRefAHR4ycSLI7uI/y+RSxBPxEbEdGO4B87do0VBgOU0lcct3nJNmVTJWd/WjdJc0J+Rtjlr2+1Ldyzm69+x9pV6swGOQ16Wd+qv3r+C55f+iRrU21kFHGStgh75Lcr8sptiLLQjWG3bqYaprRkNxUzLJFIJOYl6EiBAEGty9E71GAJbEadCWxmCnTcNlvQ+evICQd2WXafmHcR+d8tCGoESSqOvrWRkPVX1toRDvfYY48i4NXVEhOJkWAnVm1IlKsmtEve77fffqW8UTNV9mhbWAN59jlnlytVVESCmj+1/n3fsG+ZzbQZDLVcBATx4d4aa6xR3LZhjDbNjLznyq7ZybO+cVbZ9dTGP7vtutvwDs3smT1FuoKANEHFHHmy4yliRbXccgW/rVFEpJBVcbKuU1gQUX6zI54IMnVds7yg7WXUr06QhsIlPRFV8RY338c9/8F9E9KRP+L82j1fWwaW7NhquYW2nzvcFn/pYOMmBNxsKM0Ym/OYpRYG9sXdIJQ1td7JD246qtDOu0hkhBmiLLgy3JAn7EaeSCPkFhFG2OWJZ2BjIv0VDRzkGfnkjriKlzRx9RvZ5m8vZqpiSpNN6LWjSyQS/YGOZywmMbWgI9bpXnHFFUU4MkNFADKSDfKcEGTU3ui0zTsIGb6rCwmJ+QPy3UwPtUICW5yVFwIzWI9l18x2/btndZOYPxF5jzAoP0hMO/LDnudUuB1XgaxRwbRG3EY6CIUdUZ3PiUggo5YEICDs21DG4BniiYho66wztJ5Y2/XlL3+5HPXBLbOczoNFtJRxO9J+69xvFbKjfFtGQDVTm+jbOjlWLzxDaLmB9FrLaPaOBgCC5RgUYXQ0CUJlNs5s7TZbb1MGbPhBDZ0KO+LmGqRIvJlOkJbSLMKGrAV8zz1pHukvzHUjnRE1hBGRN0NLFfWYY44Zti/sruEHtWfwrK5m7zf/pTUSSw1Wfsg7xBvxRBINOMh/QISlr/TUzwB1W7vP6n+ERxrJXyq1wsJY+sE9S0KsN5f31nIqK8IBZm3Fn+FfEPBujPDUzVTDXDn6ZNCIjFcYZXonyOiJRKf0GE94xlJII70CE51fTfQa/7kd3kR7THS9SkxO6KhtrGFjBmpKdg00ih2bNGh/XM8/7/xqt1ftVjpsglhsxd9s05rtVWJyoR/9G4HSBi6ETEcP1L9xILuZTUA4Cfh1NP3Pdmj+hHIg712tCaYmi1w0ywMNCgQKgdH2TJ82vfrdtb8rawip1yIM0QYhU4iLdsk3NqvhvrWIZhu5jSD5JtopO7ry1+8gT77VJlIntQER4sVdM6f8Cn+sb3dP3TYIDD8Yz2y8ZobSjJ5niJfBPESLXTIw94QRyaI2i5DaYMhzRli8ozKKSMXma4FmekE8k66+4Q43hFUY/BYO60GR3zr0B+xIC/GX5jZMEl5uiLfwSy+Gfe7pO/yWRuLlym3PfCuNuStNPNfPIO6R5jYWE+7YnTjCy32/pRF/5KmBTxtAQfRByge7YJdf/Zc+ivs333xzuSKowC3+IfvdcBDu16/iw412aT+vYkqSzYAM6yajJzpDO6XHeMIThbUXqKx1zK38CvQa/7kd3sQQ+lWPZjW4xLQORbqZ+1OneZ4caNavZj63q3+EAUIMQY4QQ3VWB21GU2deB/e004z1OdZMWTdjJD7WTUGznYrfncKXmFxo9lF+y8MQCs0yUGWT787HI/jVoWw55gHhVAbMiFgzR9BU5nrN/ywv/cV4++Ox5sdo/s6NPG6GR1mNsj+W8HCPTNtsB9uB+0GM3DPql7rje+/cCw+DqCFo2uDxplUz3k33mr8jnIF++9/EeN3vhE7+NyEfoJ6v3eRxv9Fsl5sYb5h6S5V5DHMjwxKJRGJ+hhFgba+RYyPfW2211fBIcKjO1kHAibYacUAYbMRgd1Ijz4mpDcIfQYcgbVaFyqHfb3zjGx9GNIHQTHXQjCZ7VGqpsilHzVmURCKRmNfQifjNi5jSZDORSMw9aDDHYhLzNqg3IQTy0u6AdvOjTmWN0KqrrlqIZdMY3UUW7CBoTY9n1iC1Iw/xTWLeRORfmJgJMEjhOAZHDVArpC5rtrKJmJFh1wwnsupq0w73TfcT8yemWt5H2Z7XoH7XTWL+xJTO+SzYiUQiMT4QcuqmE5AGsKGC9TPWyHz9618vZ75Ri21CO73UkkuV7fgRCTslPu5xjyubNdiePzG1YWCCEK3c2BwKwbTDZmy2UR+IYmImXFn6yEc+MryxiE07ENREIpFITC5M6TWb3aIbAaqf6JQe4wmPzrhXNEfL5nZ+9Rr/HFSYHGjm21jKYsH0Octjrtmc3IgNFgj/scEFFcgTTzyxvLc1vLPhbPxgHR51yTqa7Q/Cefnllxf1Wyq1zmNbe+21CxlBTOL7qPcT3X4n+gvkkco14uhYBwMNZsOtI5PnykAdzfw2+33qqaeWIybApkIIqHLEbnNNWBPN/iPL0/ggz+y6qj2Q9r32z+NN/2gfYlfXZnsz0RAGZVj75zrmfrFL8I+Jcq9+aHfli7ZWvYgNi+L9INdsNsHf8FNYJrr+SZdoG+oQjng3HvSav5FPzX6w+XuiYLDP+db33PvQuaT9QJLNFgZduJvolB7jCU+SzcTcQjPfkmxODTTzsV17EYIMYWqvvfYqB2kTXJw/Z/MWZUMnZg0mQaOOpnsIJbvOTrNrrfM4zzzzzCKc6JijnEW9H097mZj7UL4cRr/BBhuUHRwNTshzM92x8+RoUM6UqZNPPrmcK6g8OHvP8QfKSyehrdl/ZHkaH+QnI93lnfrcC8bcb8wGchm7osrLEObnFhZbdLFyXnCUq17To1dIP36pF8D/Bx58oORFDOwIQ5T7Otn0bLzp36m+RfngHxLcrG/j9b8T9FEGQsTVoAhoa4RDeKTPeNBr+IUn+kT5EvdzC8pClB91qF/oSkpnqSuLiUQi0SNmtfqmuukVuqq6SUwsdNwEDEKdjVoQTcIeYd+aTSP6Oi2dmHt266YJxBWoVNpUyCync+XYDYGoSRAS8w4i/8IQguW1cwjtQuzsP+WF4NUURNshhGeDGp/85CdLOVQGqWOHwJ2YOBC2o14T3icaZjSjvXE/t3H/A/dXSy6xZEmLuUF8EV11BOmc27O8oE7Km2WWXmauhEebot1xRTKDaMazets0EUb/Gajfzy2ov/JI3igz/cLoM5vThhr66cXG2Dv3adMmt2Awa9bEiqid0mM84Zk1s/dRoWnNmaS5nF+9xn+yl6/5Bc18q5fFmSOQyHbksk5AOs1qJgaP5khtkyAGKbDTrI1adFJUIs0yOfbE7JROFdEEI7mjgd3w47DDDituOXfNmWzcahIIfifmHcjfOq6//vpyqD1B3OH5L3zhC0v+K1dMDD6MBO+5aYDDPTcQTeXCDKeda0dDMzxZnsYH6Xf44YeXPJQfve4oPd6ZLWUGuUI0HaO03nrrzX4z9+B8S+FQ1gZNsKSfPIh2Msi/39dcfU210sorFbIXbazBHr8namZT+28tvzMq1Xl+1zFe/ztB2ggDkumMUlhhhRXKLKfy2gxPr+i1/RDfv/3tb+V+xRVXHHj8O8EmfbvsskvJx37OsraX0pHMlpneEh6ZVvIVg3SmmdxGNe/VtHMnTZrxmoeXMc3NkJk1jWndtgGCGQbiqyZ8P5IbicGB0BIdoo7VLAKiaXMWgpQ1c6973etKZ0XQZIdAo4PvRDSBfe4wzlu0sZAjVOxS21TrIVgSkOomMbmhXBjBd8wJ4U65IXRuuummZW2ve2VMOfC+E5Qp5UB58a3y97nPfa4ISs7ifMlLXlIOmOfmoAX9xFD9/ehHPzo0e7XMMqWtmEijXMlrZeeiiy5qa2cijbB85zvfKQRYuW9nZ5BGfdNuup573rnl7FrwTphc5Vn9m0EaYTn33HPL4GGQ236aTtBGaAe0GxdffHEZkNBPaS+kkb5qPKZdmEYzwqOcMu7b2enF9Ap+irurncBpJykP0qKf/enDZzbLbOYQM58++9qimUVY9CSuvSBnNufEIGc2Z46hsE1vFao6cmYzMRY08y3KYpTImN1ENIvNOTQnHsL0Qk8fQuRus1TMmm0tZz8Hi3YdmM6I0RmZmXruc59bfu+5555lB1kdVwh8iMB48OMf/7gQBrCej6olmCnlB1OHcCQmL5QNQplyQQjfaaedigDqLFaj6t0QzNFAiEQ4HLVjph3RXGeddapzzjmnzF40y0tToMryMz4Q5JFMWg3yWX73grEIzHXEDLd8pQkhHHMT4m+WNchms/z1G9JPGQ5/+F/UaBdbrMzg2enZAI+0+e9//1vSayJnNuHxj3982a38rW9968PsD9p/8Yz82HrrrUs7ZG8A6WS2M9ZxjhXdxL8OebXFFluU+wsvvLDn75vo9fsok9LdkhVaCfrZaKf71R7O2crOJppEwelVy5NWmBlC3YyWzRnTZ1YPLFAzrWdpJpd5cAymnTtp0ozXRPkaaju0IzNLGzJz+v2ttuahTT9KizPcPs4s7Q0TGGqVRkbYb36XGAx0ZjogndENN9xQOmz3u+++e5nR0JHrvAidBJrxYsMNNyxqPdx797vfXa4EBUKS+8S8BcSSYEPI+fjHP16IwW677VbO1pSv40WsCzZAcf7551fLLrts9bOf/ax66UtfOm4im+gMhEX6u45XJXEsUK5gsgwaSAsmZjXnBhBN/qtf2mTtdZCuiQZ/DQgpG3OjfES/gWTKDyaIlXeuE23UFabdu0EbfbV487+pOdRPzDmzGWRz9pOZ06i6hYDYEg6n3d961kqYog4XqN+3h4o2mTHRDUCn9BhPeMbybTM8czu/eo3DZC9f8wua+Tbn76G2ZZq2Y5aR7gWr6TNbHY372e2JAS6YNm1oRLbTjOWsEbI9Zzr7C0JbvY7JVwbRpPoYM0dmIHVe4EqoIdzoxMYDgoBdSp/5zGcWv4488shq3333Le8IUM1NSCaLkJloD+UB6TvrrLOKurX1uNZwLbXUUuX5eGfCfa/c2ZTF5izU9TbffPNCQqlkX3XVVbNtDqFZPrP8jB/LLbdcmTUbS90fb/pH/msXkJpYKz43oS00296rbDMWSD9Gu9nEYx7zmOo973lPWU8P2nUEI2Y2EY/xpn+nPPd++eWXL+HQjjfDOWj/lY/pLW5j46Ttt9++/D7zzDOHSWj0YWNFr/Io/7fccstyb0ZxvISvV//r+X7llVdWH/7whwcyszkH2RzOopYAaLaBMDdjgfur+6o7qn/edmN10cVfrx6xzMKtinx3yxLBkeXOjUlTTXOyYSyqp+NBp/QYT3jG0pg1C+fczq9e4z/Zy9f8hraN3WyV2WkI5t2LV1v938uqxRdZvlp4oaWrB+/zrtWeTB+apVqg9QfhTrQwzSZP+wRJLgeL6Gy0LTpyHdONN95YNnK59dZbq9VXX7369re/XT3ykY8sHVevnV0TTWGBezq94447rqheUXNCGMyEed5JuEhMLhBs5duTn/zksgMtofPAAw8cLlv9Em4Cyu1vfvObItDdfvvtZbdbKrVmPAl2/GMQAsSE8JcYHwwcIFeE917r53jzn5DMDe2GPJXncxPir80yMCZcE6GNwZ8gcdJBHVC3qK9SXd1vv/1KuITFu4kkm9wXDloqNvJqYrz+dwN1XHyd5Qw0IOLZeNGrDC5/ttlmm3JvLet40Wt9UwYi/y+55JKBqdE+nGzOnnloFdXZZPPe6t4Fbqt+fcMl1VGfe1d1z4P/qe67d0gHvrnWaiRM6zHyE41ZE1C46+iUHuMJT68FHZrC4dzOr17jP9nL1/yGZnmqY8EZi1aLV8tX7zngI9Vaz3hBtcjCy1Z3/W9o8wKaE9Najcr0mdSwHiKckbvNUqF9giSbg4XOxoyTY0jcIwjbbrtt9bvf/a562tOeVjrqFVdYsZoxc0i9tdfOronm9zHyrlN88YtfXF1xxRWFOJxxxhll5iJVI+ctEGg///nPlw2fzGpaqxk7QcrPfgub3CM4/f73vy/ndyIfq666avWDH/ygkBHhIWjxW9kb78zC/A4yyCMe8Ygkm7Mh/pOdbCJaiEWSzfmTbEb+D5JszhEqTs40A2E9VVlXNbOspZpZtQrqwtOr2+67o2pRz2r6YgtXCyy6YDVtsS7NogtMbtMuzIM07cJQN+2+mUjTLkwTadqFaTTTzo00c9HIkxHMYtOrWa22ZZHFp1cLLEKFZ6hxL2RzNmKdeKC0S0O3iT6h1w4R0Vxg+gJFnZVKItVEwrkNDRAGRJOK6yBQ1OEWXqSQAMeg6BhtLENtdyIEt0R/Qb3ygx/8YBlA+MAHPlDKVhDNQQwcEL6UHQMjhCjl9dprr6023njj4p8yFH5PBpXLxPigbSMgu/bazg0C9bDMjfDws5v00AdPBNFLTE5oJ6OMRHnpZ3loS4EL4Zwt4pm9XHChBaulllq6xXSnV4u2iKbn1nLOaYYExL6b6S23uzHtvh3NzPHtGL4fb/zr/pcwtLEzBhObOvVi2rnT0fQj/GNyg72GabrTjVu92m+a/H5MprQtC8+o7rrvfy3B7nbDaqWT084E4Qy16DoBTcw96IR0On//x98L0TSjiSDYwY/g/uCDD5ZRewL7IIAM3HPvPYWcPO95zyvr/PhlvU+WkXkPn/3sZ8tsk3Vbr33ta+cYMBhUGYpR+jXXXLPMHii/f/jDH6q11167uu6668qMhkEMMzuJxPyG0Ujo3EKvM3SJsWMi8n+E3PTYAQQzi1lw5vTqztvvrqbPmFXde/ddrScPtMyMYRMbC4UhUIaZ0fp7cNaD1QMzHyjXuvFuIH8zW263MXP47/dsU/uy7d/MWUNmrH/N75v+F1MLWz39mHradjLTp81qkYGWYN+DafrXLu2YehhHC/9DMR36m9WK+0PGyMmQWsesWQ9Us1plqRj3s99Zsxlp9jDTcu8h00qrlpnT/Vb6NsPazowW/tbvdqZuZ7Tvm2a++L5uWnk5srmvEM3pC82qFl10aGOXhacNHalkreb0lqFCi0QUUjsKl6A+myq0vWGojg0lWtzXnwGVL4I3IJnIAPXYAw44oKg8EtS///3vl4P4YyaKkE446Af542fTALeRgne9611ltvMf//hHUfmJsApLPR6JyQEEEtlTRv70pz9VX/jCF8rzI484clhtTx7W83oQCOF1jTXWqK6++urqqU99ajnUnWq2NZ3xXnlXzmIdUyeMVI/mV0QaRHpEvnZrlIUYgPBbGfGbGQsB8c1ohh8xw90O7AjTROWtusJPUAZBGD1brNVn1ttciHQOw562Moxv4517z5p2IPxkL9xW/vkpTEzkgYEb13C3bvgxmulklz+B+n0gykOEUTjqphPa+V9/1oS8D7+0ZeyEP76N9k2ayK96unZj6n6H26MZfgqPe/ANRFpFnLo1wgBxHRTa5EyrABUDtglqZcSDrYhYR9V6+NA6TTdhWmiRlLam9X1HtPsuTIHraKaFdt+GGYb7MK3/rcgwQ6i/a5rAnM8G9v2I4e8WvunBdO2fd2Fa/0cIf5P8DZHHMH7PNmy3Pi+m3A89H/rVBsNh42f4C0P+PmSg+Rsaz+ZgK7V3I6aH+zCt/yPl38NMYM5nU+X7h5lWmo1k6oMbLbEOtSxuPYTOnUVisEAsCTQ6TkZnZhbx9NNPL+8RTSqJOqrohAOD7rAA2bXmj/92zqMSKcy28Z8I/xO9wdo9Zx0qK3YSpm7trNTtd9i+lK2JhnAoQza1Uo6pzlozFarhhMsQ6qz5S0wsnHUoj5QN+SEv5IndQtuRj/Ei1oTzRzsSQniYILr8nojyKgw0RaSBK/Bb22Z3ZethvasTrvFCPAP8CrfLWtN77ylEStwjndQLdgaRHvwSBmHifj0vGO+19UF4Bw35oQ2L/Ig2QdiUS31llCH2Bg3loK7uH3XCM3kyFkxEue6YUyGPD8vkicR4YU3wtNmVgmwY8qFntfMXE1MTs4b5wFBHqW0ZUp1NojkZoBMn2Olk3TsA/LTTTisCulkpB+97rtPT+U80jLYjB3bD1bm++c1vLkIR6PwTkwMEQYaQJl+oX59yyinl3UEHHVQENOVoosFfRnm25tiROnZVtlmI8ziVKSSHEJlrOCcetBbkwb///e+icn3UUUdVX/rSl4YI2PTO5IrgHCSlGyib7NsVedddd6123HHHOczLX/7yUjZ++tOfjmkwKwT5bsPED2lg9+1XvOIVZWffFVdcsdpnn33K0RRBKoJwdkKkR5iRwF/v627zyxFXtFoe+9jHFqJlKcOxxx47MPKNsHFX27Hddts9LD88+7//+79ybu7xxx8/+6vBop4f0kaeOBv4e9/7XgmrtIh+c9Dgj3z48pe/XO2www5lsz5nXdvPYDz5Ef05w50w/UJX0t30ln9hEolxocxoUdMY+vmwSUo/ip3EVMasEfvsJJxzGzoYHY7O/nOf+9zwjKbObOeddy6dklFcnW6Mqk4kCIfC9ulPf7qE00ZBdhNEILoRvhITC3kFdsFUXqitvuAFLyjlR55NNJQR5ZdxXI/zPq3dJFjHLssGNKKcJSYWygSy7zgcO5a+973vrc4+++wym3X3Pf2fOVIO5be1uxdddFH13e9+dw5jQOKyyy4ravuhwjpovP/97y87xpp9lxY0A7TDyMVNN91UCIe61K/w1EkFN4M88WuzzTYrpO62224rbb8zce0kTUvB734jBg617TaCa+aH9v5HP/pRMXZGnwjU8yNImT0LEN5vfetbpU3RViy04OAHOxFaZda694svvriUTVeaGWPtj8Vn0Bh4Szpt+lBhrBdK9+MrpIJdNw2U41tqpkc4eL5uesV4v3f0Q93Maxgx/rNJ5IMPtG6rBVoVs9VY3tv63ZI3mCjvZZarJ8LJj7oZJ4S5bnrEiPHvEvPa99NnTpvTtL4ZybTLH+uM5Xm0C3VtCqYTwtX2rifqqLe9cR8jsq4hdBBuvvKVr5T1kYTuo48+unrlK19Z7n0TnZNvJho6df4+7nGPqw4++ODS8RJ+7HLazRq7xGAgX+qmDgIigcjs1Cc/+cmSf8oS4ShG0MMMEtxXXlwJ1crLox/96HLuphl7AhwVX2s47YAsjBFWAiX7zXhGPQqT6A1maaIcaFeQq49+9KNlECDgOU2LsQrTo0F54CcIA3J12GGHFaN9sWMysuG4nLA3SDjD2GyuMmem9Wtf+1p16qmnltk1KujHHHNMCXO0vf0uf8get6nrmlmm1mz2/+c//3lZ42yGVV585jOfKQS8jn6Vf/FT3w455JBCat/3vveVfPCbJkvYoZ2gbNRNv/HXv/61+sQnPlHu99xzz+oXv/hFyRNpwr+Pfexj5Z3wPEC4HTC0QdJ/nXXWqQ499NAyYAbKy2Tu/1I2S0w4Fl54ejVzxrRq1oxFqkcsuUy1wPRFq1mzt8VdZJFFK2s7E4nExIBwodMkOMeIts5Up074es1rXlO96lWvKu8GIez1CgJNEABhdGabEXizsOKQmFwwI0VgBKpnVAIJkpNFRTWE1ljDiRBT0/vORd8pKn1mQM22uWb56j+Q/pjNlMbOQ7UmW9tDZXOisckmm5QZVW2L2VXmLW95S/XEJz5xQvLfjJk2DnFA9mgBmHF/2cteVtppuygrs9IHAe03lHlkRp589atfLfmjbV199dXLwADiLX3233//Uo8HBfGT7m94wxvK7DZVXoOKT37yk8t77Yi+adCgzq0cGoQQhtVWW63adNNNq5122qm8N6Mov4R3ItRolQF1Rbl44xvfWNJDudQnTsRgyFgx5prT4gXDBk+om9b/mpl41MPG9Irmbq29Yrzfd0IzvZtmvBhY+M1sMTMWqKbNXLR64L6Fqrtun1Y9b73Nqqc86ZnV4gsvUz14b8u/MgPWAr/rZjaa+TvZ4j+/fz/REMK6SXRGfQSa0E+g0FERHmwA5LBtHZjZzE996lNF8NGZsje3EWF1NfpupF98jDDr+JsQjzCJiYM8Yb74xS+Wmc1ll1227B5MYA1h2XVuIMLGEKqZWMO5xRZbFMJpXbAZT8JdDMJMhDA5v0HbIl1jjbjZI2tokT1r0SYa8pva7sc//vEyo3XCCSdUt9xyS2kblZdBg2qmcudMWP6pI6F5MhHgn/bVDF4MAlAztxM5NeOrrrqqrOPXR1jH2W9If4TXIJV4x2/tt3t5IozKx0S0H8961rNKvA0CrLDCCsP9jx2twXre6I8GddZ0HfySHsqD/DFYLB2Uz8ncx/UcMsJ853knhaIu0IwkAg55H7tTzohz+FqYQ5V0WP0uTCsMtjCdypi5QLXAg0tWCz6wTLXg/csNXR9cvFpg5sKz02NexfRqkYWXqBasFqs22fAl1Zc+c0b1xte8p/rkISdUb9j7HdUjllyh2EkkEoMDQT+MDipUcOzsSk1Kp24Wysh6CFkE8EGOZHcLnW1AeDbYYIMyE2VWhNpvYnIBwQQkwsYayhnyRpCcDDPlypCyw1BJs4mRGRN1YK+99iq/2SHQqQOJ/kIbJK21Q9obKsxmrZCJuZHeVFi33377YfVZM2sG3ahYT4Qwv/LKK5fNz8ywmrnk580331zITryvt8n9hjqJxFgPyW+zemYUEU6b8yDDz3jGM8paxUFAPYzBnSgX4irO1ub/8Y9/LPfy5CGOMTjUVehtymOTIiq0Z555Zjln2mZnwirME0F++SVNYm2rchntk/SarBhzzZlzNmmIJBbTenfXXa1ribOd6FoZIBMWbAk0C9SNjGkRp9a7aQu3GpxFW+60ZIhZC/tm4db7mpm+aLXQtIfMnbe1HG95TPXS2r+Hg+cPmZFmaGKNWSdM9PfT7MT04ELVe/c7qjrr2Muqc46+ojr7i5dWZ3/p+9Wzn75+NW3mgrPTvb3pN8Yb/zpK1O57sFphuSdUr9/1bdUTl1qjeuT0VaqFZ6xYvejZr6g22mC7lpvOljKYEGYIs6a1hGOL+Ga1/GyZ4Ti33tXNwxf8Db+ZE7Pd6YTxxn9+/749tBczWqZ1nT3INJQVbfyZbZroMvsSNQTBrEMnqfOyEycBx9rHDTfcsKhOBbHTqRtpnizkgBEWV7DGy8zUFVdcUdY3iSOhpQnxZBL9B0EnjFH+B1tCkXW/f/nLX8q6SEJZXSCSd+xNJJTjpoCqHHlGmBQmJNga5V122aUImgZflCkCuDIVZFn8PIs61a5uJToj1iLaeIa6pPS1+Rf1+Gh/5APIp37XX/7FYBu3bYRjB1prNqlxCoNZvQ9+8IPD7c0gsfhiQ0c4menln3DZKVcaGQyJwcCFFxqMWnfUkainNuKhPeJ82iDAyr3BAGs4+w1tgnok7lHHtBvCZFdicBSXtPBs0Ig85xctIJsWWVerXFhesuaaaw6TzSing4I8EQ75Liyu/PVcOZmI8jlWDKTXXXzJhaqFFlykFfmZ1YJVi0Xeu3g1/e5HVNPueUS1wN1L1ozfLXPPoq13LYHnnlYla9kpdmeb6XcNmbC74P1LVY9c5hElU2V2aeCn0CynqlN4kpnNGS3h7v5lqsVmPaZavFq+Wqxaulp0+uItG/OysDS9lIu1n/2c6lGLLl9Nf7CV9/cvWi00a+kWzVioWmuN9VoScR/jN0w4E5MfDyeaicGgLhzrvGypTx2Ieo7O0+YcOjEHes8LMNq/++67l84WqbHBkc64HeFMDBYEIIRNHljbpRy5xkj8ZAfBUdlxzI91WQRdwq2ZnCCccR2EsD+/QXqrt3vssUf5bR2aTZqksc1pQDsVRL/fIEuaIYx1ea973esKuaIminCa2RSWSy65ZJiADRI2mRFX7TLiZQbN2kl+m2m1Rq+Q45a9IOP9hDK95BJLlis/+WWWl/os9d7LL7+81G/k9+tf//rsrwYH9U8YzO4ien6rl8rMROQHf/ipDNqw6dRTTi1E2+Amld4PfehDw/kwEeGZVzGmltJkBhF+2PhdM/+7/YHqwZnTq4WnL1I9/QlrVt/40qXVN7/0s+rc435Snful2cb9cVeV+/OO/k114ReuqS74Qut69K9az3/esv/T1ruHm7OO+3619ebbV/c+MDSiWCrl7B1vA8JXN72ieUh9rxjv903MnGkk/0FzQdWMVmFupncTcyv+vOrknaq44MKLVNMWmF7dPevuVj7eUT0w8+7q/hl3tMrSjGragkMzXXMiStoQ6vFqF7p63MNeLxgp/pzqxrmRvu8Wk/X7iP9I6TDW9B4vOtWHxOj4z3/+UwQ8MHqNaC6zzDJFCLz9jtvL88mMEDp0+muttdYwySEgECIJbWESg4e8kNbO4jNL9IQnPKF67WtfWwT2yULOuikT4mFmNgRbqrUEf3JHzGwSuhPjg/S03vr6668v6SxNqdOa3XSsA9gU54gjjiiEo99QJuWlQSprNWMn2Cgbdv0EYRDWQUO5c4SGK7KL9GrLkGCEvE4EB1GftJn33X/fsNYBP/QPMXP2lKc8pfQT0mIi1Jy1G8Li6C2gYmzpBP+lwSDBD/EXb+WBevfmW2xewmJNr3xRdpUfYXQdNAaR5xOBAYR6erXYEouWdXn33zOjWnDaotW0B5espt23TLXAvctU0+9ZplqwZabf94hqwXuXaN0/olr47uWqRe5+VLVYuS5TLXTPUq13LdO6LtC6Mu7L7wcWb0kXQwuYTeff3Srs1GnNboaZqpg1a/KOmnQtxlGXnH5/ddlPfljdevct1X3T/lPdM+tf1X3T/13dX/27+vlvdC7dVdipm9PzBtrl+Ri4bWIuY8sttyybHTzmMY8pwpZNH3TwOs55oWMLtasQzggGZgJsdGQwMjGxIJQiBY44IYzFmk3we7IDkVTuhVVZoroX68MI/NZwKmveU3VMjA/aGcdqBJFTbqjTmsULsvnnP/+5/EZIBwF5Ll/tmmxAwYxqtB1/+tOfSnmwsdVEQJm76+67yrm0iEwQLUZa3XHnHcNEcxBkSz7wZ/PNNy+/9QU33HBD8QsJBxowyv9EDLbQiFDPbNQkztZMCqP6KK0GCX5Yp2nAyXpV6RLtgvWaUWZtLOZZDj6NjDFJEgRKgmaYJhZfYvEy4rHE4ksMzzxauzljxszy+/4HWhVk1vRq8cUXrZZsZc5iC7bIabVQNb2VkbPuvbuace891YKzv4Hp0xeomaHNLO6+697qjjvuqmY8GNKtqISZE9MXGHr2QMvufffNqhZbfLHhZ9aTNhFr0ca6Jm2pxZcq3824f8itTpjjTMMxqJDed9/QQuoZD85opUtnotbMt7Gc5ykdGYhwd+XOtAerhZeYVf3r9j9Uh3/y7dV/77m2Wu4R91X3VDdVZ5z/ueqbF5zQClC3B30PxeTuu2e2ytuQubfsZtt6Xje9Ypzf18tON/nfRPP7KKOuyu69984qZTmeNdH8vlcsOG2BauEFFi7XmbO1lrii3tdNPG/9KiY28opy0M4MQqs5lueGSYyMGK3XhprRfP7zn1+Ipl1dTzrppLIO5sFWOwwEsHmBHFhLKpzawI022qh69atfXX6b6SQMEIwACaIeOQgBbX6G9JTOVK4NAis3iAE1O6qJBjMCBFd260aZrJu5DUIjOUNYoi5Yw0mFDvbee+9y7h+oRzHLGXFP9AZpuMMOO5Q1kcoNY4DCwJFZLHlhF1BnCjpbt9/1N4gTwktdFMlDHrQX3/3ud4uqJD+t45yItsOaee0YcgV2fnUkj7WTdnW2Ll0ZFRbhbtan8UJZNpHDD0eucNORHwaQlG+7k1tfy3/5EVBf5NV4UW8LGP7EWs0nPelJZblE1Et1jp9102+su+66pTxIf3GXBniMddzC5t6uya7SbJCI+AlDmICwRLpMRvQ/Z6qZ1d133tEShu+ppi08q7rzntuqGdNvr26fcXOLhd1R/W/m36sZS/yvun+h/1T/ufvG6p5Z/67uuveO6v4HHyjrPBdZYuFqoaVnVLMWu6O6b8F/ta53Vg8sfFt174L/Kea+llt332fUyYLuFnFZuHNl8wy5XHTRhVpEeKHq9tvvrma2iK9nMwaQOUZhFmw1oIssMhS2QeORj1xmtrA1q9Vwz37YJwSpqOP+B6Rn613LuIdCQFxn348Er+685+7qvpn3Vdfd+IvqHe/bt3rpXi+q3rD/ztW3LjylmrnAvS1+93AHZo0gg8yYHWdm0UWntcjYYITjOtnqJA71O8+VUWWVOrWyu8SSC5WyHM/6DeF/cPbamCUWn3OkLtJg7BityRlAc5R4GHTg8tg6NDs/2iFUR2qL90F3lhOBD3/4w0VYIjw6diOEAB2z54n+g9B3z733lL6PUHr66aeX9J4KuwMboFBfHGJvdkn9oUJnd13kmRF/M1CDWFM41SH9DBDZ8RSpoc6KYL3tbW8rG9JI+1VWWaW8c9Zlv4HsEtRjHZ5ZTYRGu2hXWucsmsVCQvvdt7cD1W3tsvqj7TLQIRyM2TWDNxEOaddvxEyiMi3O4v7DH/6w7MDq2cEHH1z8p16MjII6MQiiB9w2wwvWz040nv3sZ5e1vPoQcTcgawbTYICwUXNWfsjg2oCJRvRpMeA1Fgwq7+roiw/NmYWlllikWnSx6dW9999VXX3jz6pXv2WL6rUHbV69+NXPql6+3/OrzXdfs9rxjRtUO7/lxdW7jnxT9cDi91X3tTjCfdMXrB5cuKquuP6iaovd16l2fMMLq012Wb3aao+1q232Wq+Yl75mo+r0s05ucdpZ1SItgfv++0cWjgjFC7QKA6gchHZmqaWGZjanISqzZ0/bwaTQrOl2PW0J9cUMPQvU72u3BUiAmVgzUU2wW7ePSIUZC6xRgoUWXlCyjIgI/yhW5kCQCsFqBm1Gi6MzQT7aFaSH4uTtQ2bBBaaVbxdeZHp11z23VQ/Muqv63123V3fcfW81PFHdQpkwHXajPRZo5c+CCxoB0/DOqu6+a/ILy6JTTCuCw1FrQ7DDntlL5VfDpuxGOY4ORxkfdqeFyOemeSgPRgeNAo2W8ltvPOXznMGMH0PuDvkB4U8708LsGdBqloEB19q74WtiUNBp2tHQKHmcLWjknOCiw5zXsfzyyw/PPB1yyCFFDU68xNssaKK/oMGk7BCMqRrawZPwRQ1vbhzK308QwsQJIdH+Wrtm8xg47bTTilqttlLZUsakQaI3SDNpGO2Pfi3SNGaO1FtEfhCqrPyUt6uuumrZKI3KdAjtiNcO2+9QBk9WWmml4eeDhOUMG2+8cbX++uuXg/vdm+lUn2ycZL2iNJFeymUniFvddEKUZVdrMy2tkAbAPztL77ffftW5555bSBc3B0lWkG1aOGCmu1+ohzvSpV36PNiStWyEZOZdfEN1/qlPfWqZbadBI73YG0v54GfddAN1JEyER9jqM529gluDzMdpLaLSkHKnt0TI2RlgO5dpD1b/3955wElWVG/7TMfpCRvJGQSJkiQHSSZQJBvAAErOoICSQYICBkDJ/kEEUYJIUpKgAgIfIApIzhk2T+78nae6z8yduz3T3ZN3t9751dzbN1Q4VXXrvHUq5BrS8r83H5MTL9hfuqIz9ZHQwiEqH/uJqo+xJcIwWL3BHMqu7qIsthi9Jd0uQfoFkSbNlM62tGy09g5yxLfPlhWmryNZfY65e0+/81c582c/UKLW6Cws+ULJ+lhUwgcYz96USmocULoJ0QRUGuLQ0KAVsBhzW4RE9JhTBjO5ebJMmz5Npkxq0Xey8tY7byhJ65DWyc3OssrWC6TVzSlUPyCjxLWAPMjU3jJQcCSBo6U5quEQng0jbGpslk+utoZmfELefutdt18R/jIXsahxJt6FQFh98QcFiZHhXU1yxlGXy0ZrbS+JYqM+l5Zisk3OuOAH8vhL/5BcNKNhasOm4WbTeVl1tVX0w5hyYc386GPnj4MLJ6PPq6zKaXCkQY/l6Gt4Gv98VNhyhPTm3R3kQRrLx4LGifD0fkSi7sMLSWAJaBb2KT2v6aO8aFgcSygPDy6DLTQy+hGbTO/Z7IzE8nElyUmJJRqkp6FHerKdSq603LieC15Qn3tlXwJDQxs03ZZ+yUVkUkurTNf8bdHjC88/7+JcknEp/e63aB5RJjSd7n2Fi2+sKxBfRUzjq35Gc03u+VLwmr4IVld9PsIiTWX5VgDWVoagEg7lz8WxLIMCQ4TVH8qAu+b8sZwwaIh6z5UnfbdZy1NbW7emsUVWXH5llU/U7a00c/Zsae+Y58g2acVP4tdbN7XQUhfZSoePWHB/VsTLbxz1xMWxXA5XW2U1N6yyrbND3nrzLUnn+JhpuWcurfpPGeZ3Uf3N61VNrYuvS5Miqn8WhTBcWUhH5eyTfikbfmJHiWUmSSRXIp2lfXaJF3Ws9DywWIclbnWyAk/3GAQQTZQnlIlbb721t9fWFL1aG7yJChp9Gl425//nP//pNue/9tprncLK9A7S6TFyQMGyaTMPP/KwU4jB8/odZtgbZWswTPTyRp1AyabcMOQShYw5wbao1p577ukIKESI+8NR+BYGQBDpxMIiTN5Xy1/kRfmhHCFb5A2Rwh/qLOf2HHW7mn/4YeFinSQeg4HnCQsQD1O4iQ/X8Ytz4sGxXus16aE9pWxUqwuAZ7BW0dFLes3yisMf4kEcSB/XwvIwomjlkHPiwG+GvR533HGuQ4j37B4w+XLkGn7bPZ7lHiTX7hMH3g8TXt4bDLzLtjYs4mZ1aDAQBnlC2MjE8scQ/l1L+MSZ9LACO8/T4WrpD4PnyXdIHXHgSLnkSNgWP/zkWX7XC9ooAIEPp6cayAfih2xo9+otn8DaRCzYDF//61//6tJj5WwkMGSyGdTwiIsplyiLLNjjzssXVfV0R4OqNO71YiEu635iS/npsVe5RYMK+rvY2CmPv/kXOeW8Y5SAwNrblYyUE6sKsfMaBVnrUaGQkWK0KPPmipLZpMxT8tqUJMpNSgBbZc1VN5EtN95edtx+V0cIiU5EFeaCErdYoiCvvPWy/OvJh+VfTz0or7/9gkyZ1ihzO2ZLqqVcaIpaGfWdAkdHCEqFuKi/o6oQ57P6MYxHJBWZJp9eZwvZeL0t5FOrb6jEdqokYi3SGJ+saWT+W0xeePW/8q9H75PnXn1S/vfu0xJrysm8zrnOx2i8lNElwlsUl9zO5l6yGS+yzLUSnUSPnHLWsfKqvh+JN8gWm35JNt5wW1l7rQ20EqhAlFRlMz0Sz0fk448+kIceekD+9s87JBObI7nGHpmp4fHZbiwXnlLuEGREsh0ROeZ7p8tyS62m0slJsikm6Uy7XHfdlfLOu69KUtPzua12l603/5ysooQnHku5Yc9d6R5pbWySe564U55/+Um55x9/lvb8x9I0ST94GT6UWjm7CRXSWfp4sRKtpJNyyDePk8WbV5BUrEmvZyXWnJXr/nSVPPvGvyWnaTW0zROZtnhS5ranpRl+2S2S0r+N1v2sbLflzrLemptIU6xZ2L+VCpdMNcq8rlny0KP3yF33/1E+mvOKI0yJpily/BGnS0txGUckkUIu3iYn/uwQyeoR2qRZS82TBsj+0ReLdJTmFBcTKpXmWXLuhadIV6atl1hVAsOZE5FmWWn6WvKdrx2q8p7qym5G0/jim0/JH26/UPKx0pLuYPLkVpkxs02VFeaPiLSklHxHUtLVltc0bi4br7uVfPpTm8mySy0vXe3dMrV1mis3szvmyvsz3pXnXvm33P+PO9Tvf0vTlKh0prVRTIn0pGmMihLVNJW+X3QTaO3TSpTrzEijls3W2BT51GqbyQbrby4bbLi5TJ+2pMaXZde1TKqDAL757uvy7Ev/ljvuu1Hem/G6SKJDP6gZiTfSKaA1Kl9q1EoyKbgwCKsSILfFMtn8tJLNaIhslp7pTzY9hgcjkRwZFoViTIPI1g42FHBhAgoB6WUYLZYBzu+66y7ZeOONHSGo1hiPVOO6sKKSMmRKCUoTFvNvfvObbjXaSsrbgg5TKo1wknaGXbKCKoorDsWV65CGsAx4N4iFrbyRvnrI1UjDCAByhWzayK+BQHx5ljzjW1ivsl8NYy0PSz/pAZwTB35DNhmujGUyKCcwENmqF9XkR/0wsskQ1DCqkcVqqCV8I1KQTfCXv/yl99pw838o8Q+SzWoIxy8cXr3xt7JCGWE6zYQhmz2RmY7gBefVlahSHyBpoBLZLBG+0vWCkqj1VtlSLji6RDYhn/lUtzxqZDOZV4VZyaZ1nBSjSsjK8eu1XBWlEdLTndbnIno+WVZdbj3Z40vfkU3W2UEKuaRE0436eMIRRMhmQzQt0caIFDQdPYVOiUay8sDjd8rvbrhC2tIzpCc7zxG/SDzmyGZOQ4Rslqwu6vRiTOOS7kjL6iuvLYftf6ysuNQaslzTKpJR5R6rWTEfl4Y8Q0GwLqnyTJjxLiVRnfKPpx+QK6+/UNp73peenF5TcqiR601PmGwW03mJxpQQNvTI+b84S6Yqodhrr69Jc2o5SSWmSXNymuSUyEAOC7m0NCZSSoLjKrsO+Xj2m/KL35wl/37tMck2pqUz2y1J2AfidP81femiNCthPu+Ea2Td1TeXdCEvWYi8dMsvLvypMPd07699W6Y2LSdTmpeQXLdKQ4XRoKQE61aqMSHvd78jkVRGPpz3mlx0xY+VeD7hOgsy3dleMk154r18ruAI+rk/ukrWWXFjSRZSks13S3dhplx09U/kgafvUjkpo2wofZgTmpbOHub0RpRUtsoma24pX/vyvrLikmspaZyk5GiSljEWtNE8zWncGaOb1Eqisk43zJa//O0muf6m61XOUbnmshulJbes28OUvMwkZ8uXDtxIMonZjmwCzUJpkqXk97/4m0zKLyON0aQ0pHpkRsMLstcBO0q+oXtQssmiVS2JqbLu8lvKsQedKVMal1VhJ5To5+T5t/4lJ1+wr+Tjc8tPl4b/kiXJpHJwJZvxhpSsvPya8q2vHSTrrqHyybO/arMzgmLFprMlqgp1Tj8yXdlOaZka15yaI/988m75019+J299+KLeF/lohpLzJiXOEWvgIuIW6pG4xLJJWWHSivL1r3xHPv+Zr6hsp+hzTdLV2SUxLY+QwrzKk6KZkx7Jxnqkszhbbv3LdfLnv1wjscaMdGfbXU9aVzeWXpWblnHg6ruzlM4PRzYzDXL2iReFyKbKzX0msKa7auAxQqAxoeHAunf00Uc7hQKiCSEYicZ1ooHGl4aTdLHYCKtbsmQ9CyGZAjYYFjblf6QRLi8QKqxHEHq2B0H2LGLCfoCgFpkvSLA6Q526/vrr3VBawCqZEGzKDx0eVo6of0EgnyAWtvJG+jzZ7MNYy8PSb/WOc+LAb082S/57stkHygBpx5/RJJvDk2oVDHU1zIHgvFJl1UVbjyiuKKZt85RgRfXjn5ki22y0m5z2g5/LuqtuIQ3ZuDQ1NEsiYkSTIaqqzOtv5TaSa48pJ1lM4vnFZdsN9pBfnnG1LJlaTRp6UpLv0fCyWgEZDqnCdiRTXVTzNaVsJJWOyx7bf0cuP+dW+dRK28jkxPKq+CeVZDY78pgr5iWtFDWn4eViDUo0okr01HU1yqbr7yyXXHCTfHKFDdS/lHIqZdNKhkmXU7sdWS+nU11Dg34EslogYgnZbKNt5PuH/kQWa1xLWqOLKTGISba7XYrdGoL6H1P/MumCdPRklHjFZVLz8nLyCRfJ1pvuqsSvKE2N8zf8DFulwDE8ed6cNpVjQpI9zdKcny7rr7Kt/PCQi2Sx5DpKgqdLZ0dOutTvHi2E6UJOsvoRm93VrkSoUWXcKktM/qScftylsvVGGp4+25zSNClzcESTY0TzQMknpLCzrd05kIiTfpEObRisQ0Gl7q61zcu6/IVYbrfx1+SkQ66UtZb5vMR6FpdUdJKS35zkM5pZWkCSiSaJJxol19MgPRgPuyfLVz97jJx1/NWywrT1pCW6pOYrhFfzpuzCYAg1FtJYtDRnEdfd1a1lIa5lp7rixDRgtwBVJOr2K2SxKOfUP/bP0rvqUDhKrqUpIY16P9cZkUmJJWSHTXeXS8+6UTZZ44sSTy8t8dx0yXQmJKtpaoylVFbNqvHEJKaUeErTkpp+LXcdrbLlp74s5598tay8+PqSLE6TpaZPlqTK1Q3ndeVLFZtIaTjt1Kal5JjDfyqf2+Y7+rWZJt3dEZnXmZYcZU0/VlqUlDwq/eZ5JdtRJbuJ6DTZY9d9ZZ+vHy5dHfohypAehhJoelxHCQGQDXQEkcYqznUmhK97jDRoNK6++upeK8wPf/hDNy+p2vCyBRVBJYtFRVjggkU+WEmQax4jC1bPxGqOEot86dBYffXVnZLC8K6FDXSwobxTl771rW+5kQKklXldEE+zZnIf5+ExnoB8UD5xwyVSCxNMLnYePI4l6s0fSGHQjRTwy+QxGliASx5R10xSYsbQSkjH57faVfbb/TCZEl1WEkp8CtmiKv0dSnLmSjE+UwrxjyUT/ViV6RkSb+x2Fs2u9g7pnpvW56fIlMYV5YIzLpU1Vv60/m6WqBI5FPOoNqCQJUduVWnPtUXli9vsLkcdcJoq/ZMk05VUckMvgBKTYodkI+2Sic2TnIaZTWi4jW0awbxEm5qksWm6xBumKDGcIt8/7ExZYck1lTQ0SiTfUAqPOYJYhQKOPUvTPXl3/NxnvyTz2tNCE9aQUAKXwCI4S3pkpuSiStySaYmmCkp2c9KtBCytrCEhS8oh3z1e1lh1XckpEYU0h0EhiylLaow1SoGhnJEWSRVbZI+dvqppU/JXwKrcqbKbLdKs5DbVrmF+JJ25j6UQYQx7oyPNCSU58cxicvC3TpD1VttEkpGmspWqFCg8msZaU6scpeh6gLu7ezQvYpLS63H9XUI5f7Uuteillmir7LT17vK9vY5W2U2TTFtcWlJTND05iSb1oXiPyn2OtOc+kK78RyqDDomrzOmgyGqerbL8+k4GnXMh7RpOPNbrwnD7tdIb2TjJLRBAbyfxxNqbzVVXHiCVPMeqdswBYX9U2yMVCzkWvDxkjiRq/Ho6M1qGCtKcXEK23ngnOebgM6SYnyyx4lR9MO4WmWqdykrNSvQLH0mqWf1q1LxoaFMSmy3JMapkMD9dGrqmKNm/UJaavIoUNd9y3dwnjRqYll9cU2yynHD0KbLy0mtKx7y8s0xm81nJx9okr+U1m6TczpZMfE6pTGkYEMFEtEl62qPyuW13lz13+Y6k4q0ya5bWLb5PZSt0HzSOjoSGnBHK3nO7Duyax0iCJdpt0RasmSyewzllezwa19GGzT9B6Z86dapbkZY6zEIO77//vrvnMXLg28jWBMiWjg2sJmYtWljLFySaOkT62BLloosuch2LN998s9tOCGsaRHNhJNseHh4LF0aTZBqG3BJAIMyFgfUk6EYKjiSpYmqWkwbV1mP5hMQLSVl5yTXksP2OlyVaV5ImmS7RYlzyBVX2Cx/In+65WE445+uy5/4byD6HbirfO2YH+dllR8uf7/21JFvmSVMr1h7V65U0tiaWkVOOO1uaY9OkwJ6NWL5UmceiGVdaGCs0yyaf+pIctu8Zku1KSFIV7lRymhK/iHTk35brbj1fjjjpG7LfEV+Qrx28uex71DZy0TUnyGPP3i2ZiCr2rJ6rBHJyYjFZsmUNOfx7JzmimenqcMahiGjj1Es0lWXpkVGhkydPV+KSc0N/06m0ZCbNkzufuEF+cN535dAz95JvH7+jnPDzA+X6uy+VGT1vKknodHPgpk1ZSro6ijIlsYJ8b58jJRWZ4gitEU6UAhBRsodFL9qg4TEsMq1EXdPe1j5bCessiaRmyUNP3yBnXrivHKJh7XP41nLiefvKLXf/WtINHylZmSc9XWk3PDOSbpGkEsJv73moEtdk73xZZ/lSmHUhFk8q8WxSpbBJ84p5LqVJzpC9QlHJOX9KwJvjLfLJZdaRI5XApgqTlIQVlLRHpKtnnsSaivL+rFfk9gd+K6dccKB89/vby5GnfUVO+8X+cs+/rlOuNltmd3ykoUVk1VXW07SzGuXgxR6ZoER05UtEEQUqp5mQijRWJOqVgB8oYSi8nGPRpEJ3dZXyBcIJSdNkO5KfiLS6To5DtAw35JREdyecUtPYUpSP2p6Xa2/9iex37Ofky/tuINt8dXn55hHbyAWXHyk3/+USyRRZgCon+bQ+L4vL4k2fkDOP/7k0a163Jif3prY0MiAhG661tayz2sYyuXWSe691UkoalLze/fDlcuJP95Sv7r+R7PiNtWX/Yz4vv776ZHl/9vMSTWQlHo1La9Ni0hJfXL6627elMdkqLc2tmr4Sqe+HIJns50Dgtz3njkMD6Qu6RR3UL1OE2Q+NDdK5tvfeezulGCWYsoX1ZWGEpY8jcvjc5z7nVkWl/tmwLTq8kAlkgOtB5zE4kBHWY8oXDqsxZQyZM2yZIYNW/hZGyx4dF5Qd2gXOSSMWTvZkZGGcp59+2m0JwXXu8/1HHhxxIFje7Hrw/oIM0uTaTP2+WBkZa0dZ5AjC98KO+NrRzkfS4afFw46j6cKgw9vAaBae4btH+WxS3WuswbeDck6dGI82iPQTPsOaOVJW0DstPlYOhuqCeVGL41tCXuA4Jz7DcZXCGMyRZtJvaR8tjLluhlJaHHZ6ygqqAqsN1rRD9/2BxLNNShAbpCffI/FUVN5470U56exj5ZpbLpLn3npUOhNt0qXk4+P023L/47fLVTdcIGeed7TM6XxTCdU8Z43KZbDuTZX9vn2QtKQmK91R0qfkhxVi8xklOZFm+eoe31PFe6ojmuwtlpEumZf9WM799Ylym5Ket2Y+J7My70hH8UOZ2f2GPPDY7XLuhSfLX/9+k3RmZ0pn10x9r1P9TTmCsevOeylhTUmzEhO3+msvSuestAoYzpuXnMzseVuJ3tFy/hWnyf/ee1zemPM/+aDrNXnq1Yfk2tsvlQOP+Ya8/NbTkoSQpTvd9i4dXT2y6nLry+qrfFozIGjN0yKAxSuA5maWs6ZnuihTF2uV9sz7cspPjpQLLj1ZXnr/Kfmw61WZm31bnn/jEbn5zqvkqOP2k9ffeVaJh5J/hsnmCpIsNMp6q20mKy29tiO3DtaOhsKbD71ERZGPS8/cqOz71cOl0K1kR8kTRLSn0C6FZI/cfv8f5MSfHCW/ufHn8o9n7pIPu1+Xdztelkf+d59cePVPlDB9U96b86rKfbYmVT8ssZSGX7J8DATN7mEBgjpQpXUp01s4KLcLS380N06WffY6QDJdcSnmEq6TpqNntrzw1pNyiub1zfdeLe90vCrxxfStKV0yM/eaPPzMnfLbWy+W8351hksfe9SSn5Fss8Rz0+RbexzohouXOoQYxqwHzfuVlvukxIvNLgLRaEHS+XZ54OG/yu9uukRe+/A/UmztkOTUrMzqekP+8f/ukKOP/67MnveWfgznSSGndUspbbQhKVtuubV0BRqy8qhghz5STl4HnaH825WF4HWP4YJ5SjQiKL277LKLfPjhh27TaRYwWRiU2XpBA85cOo6PPPKI3HPPPU4Bo47asvEetQO5sRq2ga0JkCNbNrDS8aIGiBWKKtsHPfDAA27EAHXv85//vFPu6XSkc8PK2mgqdBMBfGNQnFF8AbIZS0fYKM4AWVd6JuiM+HC085F2xIN4gUr3R9pZWnCsnGqkIpg+MHvO7H7PjoQLxqOSs5WHgY0QCLpKftbjwv6FnZVL6in5grMtdSDCtBNj6QDfEBwgn8bSES6yIC/4PVoYspZX1O+lOVOezdUC3jPU/T5kxFwxIZ/fdg9ZZtqaqgSnlOxANttkZtd7cu5Fp7uVTXsSPVKY1CA5LU9zVdeak9FXW5slMS0qL7z7hPzs0lPdkNB4s5Kk5rhMbpouW226gyw2dUnJoEznlUCxMqd+LNZbdwNZWRuV2Z3tkmvISzbSKXOyr8s5v/qBPPHiP6StOEciLXk3BTOrcenKFSUX03g2dcmF/3eyPPfGfRJNztVCP0/SPR1KZuOy5eafU+W8Wa/lJBLLS0M04xYUaohmJaLHuR0fSybbLqnGiKQLs+RXV50rL7/7pGRi7TIvPU+6ClkpJvWD1qRUNMrw1g/kzPO/Lx/Pe1drT1qySiZaUk0a0jTZ+FOfdTJT5tor76D12W1roe8UE/rBjvTI7J6P5IIrTpcX33tSso15mZvucvNPY80t0jhZBarP9eRnylnnniAz5r6qfrXJJOVzk+ONku9sku232E0aBOtByf+GhhqKnJv/xwdaz5UcfX6bvWT5xdcR6Y5KtierclFSm4rIvQ/fKr/+3TnyXsfzMi/6seRb89Iey0i6UWWfUoKt8X+/42056aeHyUsfPK7y6pSs3i/0LphTGfq9qohgzHlkIFcNVmd4FtGzsNFOn99F1vrkp2VK65LS2JSUfFQJZfoNOf/yU+SFD5Tg97wvnbGitOsLHXpMp4rS05iW2bmP5Lm3npAf//yHkonP1HzrcZbylshU2W6LnWRK0+JOnkXSTZiRqKyw3Ipa3uhRowc4JolkUf6uZLM73SMdWty70hoz/fBEm+JaBrqkK/ux3H3fHyQSb5OY+s+Q8u5sj8qJRQjIJE1HgXHBzD2Oly3nSnpxLEgUcKx8bNd7zwNuKJ8kms2gW9RBL+WTTz4pO++8s7M6rbXWWnLVVVf1Kh2G4PnCDJT9T3ziE3LCCSe4xp0VeefNm+eUDJQTj/qBYkI5++ijjxzZ5Jzh2ZCqRQ2UKVPmKWcslISFkwWp6OShDkb1u8u1RaG8odAD5IJld6xBPiBn8sQU+PEE8rDFd4zojCUIkzggD0gFdZR8sU6QsQZ5Qvjmxhp0+iAT8sPIpuWNbX0zHGd+1uqQhxFlzis9U4+rFKfBHGmnU4y8sPUORgMjtvVJfwyuxLD1CcgPsBrt428MthqtvhcpfcyiqrDGs1PkhwdeIFsoiYrp+wUla/mmHrniDxfLXff+wc1rS02JSkeGORSq2Gtdj+WV2OXy0hjPOj8KXQk5cL8fyS7bH6RCL0gTez4WP5bf//li+eNtV0le/WxURS0qk9yw1y3W30nfa5VMT1oSSnCu+dPP5fa/Xa9K+SxJYDjTSBZUcWaPQ87ZKiWHtU8b6BWXWEkO+Oph0hqbpmmLSlNrSuZ2fyCXXf0zmTH7NYmV636xu1lOO+oK2Xit7SSmhKughDKSysl9j90mZ11+gjQt3iAd7W3OMhaPN2gloTdRzzV9kxuj0tww1aVnn10PkUyXPqQEM6IF6dlXHpaTf/ldySfniFJUF0eU/sb8FDnr+5fLuqtspmHnZNrkKUpk2+SZNzTff3qIpBaPypyuOW7OYVNTi3R3dkkhnVECqzw61qp0cpLs+Nm95Ju7HyithWkiGf2QtbTK3/99p5xxyUGSTigZVDmwpQYLNBU7G+XMY3+t6dtG861JSaoS9Pg8OeHsw+Tx1x/Q6KYlpr5HOlvkRwf8XD672VekY3anTF98uszsmSkfzH1DDvvB3kp605KJzNN8zklGk8nqwY7AqSBYLbchq/GNN8sqy3xKzjrhShfu5HirhgnZKa1Gu9MBn+63Gm1WZZLMTZM7f/OENKUXdwsQRZrSkku9Jzvvt51bmTU/yGq0LEJVTKdkg5W2kXNO+rVEsq1uK5zuXI88+sJ9cspl31M/2rUciiw5uVWys+Ny9P5nyFaf3kOyMGWtdx1K8P58/2Xyxzt/I/m4kv94QfIs3lPMadktSAurzOqxc25RJiVbNS9ScvhBP5Idt9pLUl3TJZfJS9PUrPzy2jPl5r9fruns0vyOSCI3WU7d/yey1XpflMboFMnlM9KR/lDuevBGue7WXzlC3jyZlfO0vmQ0DzTMVLRJpk1aSjZafytVIFKSapmmZX2uEtGP5L4HbnVxct+MssU8yvxN1xE0/3fA7bOZico5J7L1yRcllp6s5FgLrV5nMS32Lw18WjyGgLlz57rNr9944w1nbXnwwQfdfDKAAkiDBGhoTDFcmIFFAaWK4zrrrOMI0iGHHOI26UYeE0EhXZBgShHl5+CDD3aLT2255ZZuRUcUlkWNcKKgmSXPFFiGr0M0mbe/5pprun38WKjKrFtBhAmo1c8FFdQp5kozpJq00BExloAwUD6ZwnLGGWe4VU8HA/InnuQj5ZdyPZLAzwsuuECOPfZYR/YoI6ONoAWPc8odI17IE/bBxTGMlLiYldEI8XBRrfwSznnnnSebb765bLLJJr3xNITrQ72opf4gE9x1113n4sMUE8K1sjAc1Bt/5M+cd/C9731v2AS83vjzPASceLz99tvy1ltvTazVaCF9A7lqCD+nHKTX2lMLUkklpWVWEVWBbL7JViqYlBIh/WA0KfGSWfLgo7crN01LvDEuXe1dSjo0U9V/yCULqlC+lZYqUdEbzQ3yxAtPyaxCh0SbUzKvo1MjFJNPrb+eNGhBdHq0Up/urohsudFn3RBR6crJ9Napku7qlIceu0+yxTb9kDSK6t1uU3+sPhCoSLQgcWUVKQ08Ihl576NX5ccXHicnnH+QnHbhwXLcWd+Rs3/+A5k5753S3qF5hKEn6iLqGCZczMadBbRHCcC/Hv27IzOZrozrLW2MK3HLNUhC09Os0WrUm/gxt61D7vv7HdKZm6GFhc0u4pJQDrDBGmurXyWrplk3g0D1TDW3aEwLkmnoljv/eqvEmyPS2dNemtNZ7v2BFLAQaUT1tGyxW9q7Z8pD/7pbL3RJWolxXj/YNDI0tEojnUWNlU2tQjunlb1ExjlyrXQfSx+rGJNPzOv84tZflkynEqzWKdKT7XZzFK+76SIVUaf05DokV6AnUyuNSph34yqfBm3wijlSUZSunk55481X5MEH7pJJzUq6XSqHDmQ2kKsFzDWmnGhJlLaZSh6VYG6+ybbO2teSaHRbw0xWwvfgA3/RvOzSbCp1WGiua0NYkGRCw1JGXNQ60Kp505NV4h/tkiefe9Bt9dIQKYpSfcl3N8pm62+vD7OnaGkpfsrla2+/qmWlSd/JOwI8adLisu2WX5Bdvri3NKSb3IrEOc2TJoZva3nqbsjIxz0fyw13/1b+/Pdr5U/3XCZ3P3id3P/AHRqnkiwZ4N3QkHbOWabdRb0Xdlym6jqyryVRSaa5Uh/W/J8krsx/tfTNcGJZxGENJ5gzZ47suOOOrsHYYIMNHNG0OXSA+ms9miB4vrCg3zdGHeTHGtNrrrnGNeYXX3yx24eTBjX8vMfgyKlCSpl5+eWX5fe//72TIVZNvi+cL2pAHqSdOoZcKEOf+tSneofUYuFklMHHH3/cW1etzqHoLmwg/YwioM4xgiBYt8bCYbGz/Nhmm20qPjOWDtD5R7wq3R9tZ/WSTgC259lwww2dbkZbwLfRnkNewfdGyxGfnXbcyXX8UXcqPTOajjDJC4gUpHuLLbZw8qB9IG7UybF0tEc77LCDc5xXeqYeR77W4/gWMeqJ85VXXtntGcw5oEyMFIZs2bQ9NIHmTz+UhsMNDOYCArNs/qxs2SxgmUx1y2Nv/EVO++nAls1kU0zmtKWlRYnDhqt9Rs4+4kq3IE2GlUKTGXnq5QfkR6cfK80tTSr8oqQzLPFPWtRB4FQRd78jpaX/G4otstTiq8v5514n0pOSKVroutIfSHvkVdnv8D3dCrOxaIustfLWcur3z5fm3DSJZmKSVGL69uz/yf4nf1nSsRmSiMUlpwVYOV0/o05AVA5h+Zii7cC5Mjgsm2ccdalstOZnlSArQVJS3C3vyvmXnyp/f+4etw8lFSOi5CpfKC0IAmx4YjSfkGmpJeWqi2+SRHZJlU+rJLSiZVOzZKcDN5GextkCr81mC46AJ/NT5OzvXy7rrLKZpGIpJSwF6cjNkvMvOVUef/l+yUQ7pCEaVxlD0ZVEKxlhO5moxhsiD7mZouFdfcnNEu1Z2s0bjGr88k3z5Mv7f1qyjXM0v/VDoxlYsmw2yZnH/Eo2XmtbiRWp5NoIJ9rlhLMOk2fefki6pF2JdFI2XH07Of3ASySZW8xVpIbGHnlzzpNy+PH7Kemcp6Q2oxQsU+qsYH6t+hMtk5p8g1YYiLuSt1SxVbZaZ0c54YgznXWPVYWHatlMxwe3bLJP6kCWzcdfuE9O/fVBko7MkcaGRollU7LJWp+RM35wgeQ7mqU5OVWJfbe8/dELctCxu0nzNMg8K9hqQxCjV1zjovnr8lj/Ilpn6IxsaZ4iU6cuLhefe5U0dy8rsUyz1pWcvNP+vOxz4hck1zLPkfKGbExWmrqWnHPyRbLE5FXUH/ag1RofVdJbnC0vvv60PPqfR+Tvj/xdZs6ZoXUwIp1aByNxPtRZSTUlnVVbU6hydsntJdn2HcCyrP/deRh0njSko3Lujy6SDVfdUWLpSb2WTRZN6tsypQ/mU/+r+oqFG6pfixpoQGmkGAqz2267ORLFkD0sTQyhpd6AwUjlSDYq4w3kEQSKBYovR2Sw5557yn333ecU0T/+8Y+9DauB76rHwEBxxWLHysbMf916663ljjvucMSKzg6zlCyqoIyZ0ggh33777R3pWn/99eX//u//3FBb6hvljLIXLq8LevmztAHKCsr9WMJkaqMWqoXPs8SX/CLfBvtODgX4h/+4kbQUDQbywL77tAtYefnNdxC5WB0lbvwG3B+JvKqWPsLEsWgia56EEa4P9aJa+KSTfLB8B5wTJ7s3HAwl/tZJR9jEYzxh+UNZoM2kTowEhpQqlEvEaS4MUxfNhcH7pqAC+11rFrW30wsh0q1CmNfe5jK3KdHsKlC+q0E2+sTn5d5r/ys3XvSg3HTxP+X2Kx6XP1/+mPz5sv/njrdd/oi6R+W2y/5Tcpc/IZefebMsGVlaJjdMkWImJbl8UlKNk6Unk3aCp0LmckWZnlgM06Wz8kFi5s2ZK13a8FJoe3ooKAzfLEe0DpgMgnKphIISA+ZY8jEJE00Dv5FFN3HXeBJ/PsCuYqlSD7Ay9sq9HGbw3OAqJB8uTRdEmn0pISdBBZ/g43FV6LL6oeZP/XbWOH2O/SydnxTgAUtEf7S1tUtKC3l3Ou0aaeLf1NjYa6HAakO62MsyqxXCrXqs4TmnBMwtAFTUygvRdMC+mZZnnn3cWX5riUMQ9kECdk6aKjkD1uPge6BfZVP58Rs5ts9rk7TmFVu/tLdpeVY5rrTUqnLPH56Qmy992JXZOy57TO685Em589J/yx2XPim3q7vtsif13uNazv8hf7r0Ibnm3DsllV1Cy2VeIjE2ik3L0ksuoRRcFR8lqXHNqAY9vjnrBfnd7ZfLnOwslUpWSWZCcl1RaWqYKuuuuIV864vHyRU/vkOu+slt8u2vHCmbrb29FDuwretzPVr34mzHE3VDlaPKOKkKmlhNEi6q0o31lq2wK4EX1LmyWCKaIenUhYHyYFEBKwpS341oMlzq1ltvdT3YpnBUQrh8LqxguJg1mpyfe+65Tvm699575aabbio/5VErUIiYE8zQUNoHFp5CvnzvsaIv6jheR98AAIK9SURBVDCyldO2adVVV3WjCyCa//nPf2S77baTV1991dVLU3AXNpB2U7gZBTXWoJ6jryHjsR7CWwmUA+Jk1sSxBt86EMyX8QR5gzzmzps7LuXfOiOQB20ljnPq7Xjkj5VT3GDt9VjBvl0QYPTtkcKwc3o46grFfihFn/LJdiAx1XIxxbNtxuy2We5eKjFJoplWaY4sKZPjy0ksO0Wi6akSz0yTRG66uqnuWozfqpgnMktJZk6jRNJNMueDedpS6MdKBd3UOtnNaSy6TfwZ9liQdVZfQ9X2tCN4Dhou+3TSQwPJJF5ZVfRHGjTiBoacQuBAQc+pIMH7WPZIRDQRd2QMigfyPEt6tJI5p++Uzt3tAVGqlJES0Sz3gAGuGziNal64XrsyyXIEUF3wOUB5mc8SFSAb/Gfl32yWxiLuhiNF9Xcmk3V7l4G8pqurs8sRTva07A/1AZLZ6+itUvKrj83VMtKenqNSUIKu8SqlPxiZvtKMpbmfRVrDLKoEa7GiMYzaEO4IYAhteKjouppG0pHXcsfQ6KSmO9mQlMmNS0lzw9KSyk2Txsx0aexZTBq7l5DG9JL6e3FJpNnTdJpMa1xBMnMTrgxHskkndxavgscx1xdgZXblRK+nphTlb//vDrnm5otlXvo9ae95XxIphtHkJZ+OSEqmydTECm67nF0++y35wSFnyK3X3S/f2v0IWX6xtSRRbFE6mSgRas0bNzxaHXNKcX2k0mMswPdov/326yWad955p2y00UauHg6m7IXr5sIK5ECjSWcVbqWVVpKTTjrJ3fv+97/vjh714eyzz3bHr371q27oFYpSJltSqBd1oKShtELAKXtYMm+//XY3rJ3OU4bLYfG0TuyFDRAJ1/GvaUMWpHMsnW03xjn5EL4fduSRHe18JB3gaEMVw/dHw1lacOgglEXyA9kM9NxIuaD/lZxZ8WwF2PD9Sn7W48L+hR3yMFKHTomjvHCNe5X8HE1HmbC2yeI4nkCPt87ZsP46HAwpVSjhjjSUfvYq5r2OawFXGXoHYuTIkZ6jgAeG0KGwqlfOUtHfKsKwqLjEEyUiQ081QFmHgNDY5bI56enucQoG5yYw5qvhXBgaFpfRv9k0n/mVTZOiUoi0SbwpXxqiyZIqWhicUqbPtiQTEtdYTZs81V1D0Z48ZYo0phrVL/xWbwPxHCosrU4GZae+S2NTs5tLB+FBzhAgjhAJkz2AhLHAC8SUoZZOviFwxd7R6u3SCXng3KVX0ZxqcaSMtGHRBDxnlcTQ0pJy93mPPwPPEBdIDsQYb0skl7woEb2CJq50Dmku3ec9rkEwXaHXwl8oN8pR/SA0aX6RpyWCP3/aLH7OKQniHfyzuWul0hBAP8taX7oM+INFmT/SXw0aVG/YLm0uzcixdCw5zd/y79I7DGVVwqmyjunHmOFoXZ2dEi9/AO054lma20o8OGcOAotTFKQn3SGZfFq6IOMqr+5iRnoK6rQOMA9UvdZnReZ18sw8uf+R6+WHp39d7vz7pTKz6396bYZEWeAqkpHuni5Zeuqy0tgwVZqjy0ljfmX50pYHyc9OvUG++uX9JdKj+dJFnpXipv+V4MbUaZw0arYXbtgx15fK5M4ZGqzkl2s4K+/1gvoQdAs7kDcNNo0CCgRzLNhMHtxyyy3Ookn54771agNX9gMueG1hQm/dLzuUiKC8aCMOO+wwWW211dwQM9t705736A9kRplDKUKWt912mzz00EOy1FJLuQVYuI7c7LlFHcjB2iVkAxZffHFHONdee223bQwWTiydyMtkiwxNEV+QAdGkrplCH/zmjIVDSUb+5EMt4SN/O9r5SDriQt7y3UEulZ4ZSRcGYdPpyD3LF+Jkv8ca5I8dcygkYwzLA+RiLigPzofjgv5WcwA54AgbNx7f0WDZB1ZeRhLza+oLAObNK1UQiNDLr7zSm2kgmtTK3ZKWfHKepKMzpaG5U6SpTbKJ2b0ul5ipzo4ll0nOlHTjx5LVY1fxHa2hqriLvqvfS1aSZa7hx++/L7lMp6QzpeWRIUBmbStlFmTM/awZAynHQXJNOg2EY+kdqEBiCQS2zUiJ7ChhUmeFqkQAS3EeDDyXVbICghUkDAgpUB8HjFc/QPBCFj5AurWq6QcRU77Is888W77TB/eB1IqAJRCCBvqIilYQFqgxp78hWgyBzmWLkog3OVmYHIKyHQik2Z6ng6Ea8JJ3IKYQSkA+a4nREypwsBIX5NnnnnGrwpJm5J1TWbZMaZJ4S07aC+9LOjHXOebZ9iRn63mbpONaPvWYjc/tK9vJj1057knqs7hGLdf6TKI1JZ2ZglvQKdXcoDIoxQdC+cGsV+SWO6+RA47+upx14Yly76O3yRszn1X/Z8msnrclW+zQDGmQpthkmZJYWpZKfkK+ssM35KB9vy/JSJPkVaYuFeqhm1eqeQCRHAylfArD5DL4ux6lOYgABZVtPGwo6CWXXCKbbrqpO68FI92YLCig04nG/ec//7mTwbXXXiuPPfaYU5Jr+nYtYoAA4ShvfHtPP/10d/2AAw5wVjuPweHaDW0L2IeUocfrrbeeI5xf+cpX5L///a97hvKIkpkbB+Xbw8PDoxIG0veHguqa8wREolEkrUouK7FOnzK1fLWEfLRHnnztHvnCd9aXrx+1vex1xDay8wGbyK4HbSa7HriFO+5y8ObqNpZdDvm0ug30XI/6e7cDtpbd999a9j50e9ll3y3kuwd9VRl+p8SiCWlKNsvMj9/XcyUv2XSvUjJtav/w64EjIBXcYICMMCeynkLghrSWyQ9bj3DOtdJvDbP8211TF4Sl0/wYC6AMdrN1R2Osdw5QkHyv8cnVJZcuWZ2x/JXSUY4fRMcRzUzpqGDF23i0WT6x8trCnp+VSG4QLg8ChIm0G2qRAe9HlehX2lOUhZWCfoMpk1okpQyQOarNk1ol0dwi/3npKfnqgTvIV763sSuzOx+yiXz50A2d2/ngLeQrB20luxy0pTotz85t0ut2PRi3kexx4EZanrdyqy0z8r6o9SWtpDtWSEpjoVESkaSS7YR0ZbulLTtLnnzln/KL350qh/x4Lznx4v3k+nt/Ka9++LjEUm2S6Z4h6faZEilkpTk2Vb7wmT1l4w22cvvPYgwuaFKxiOaj9FqWSGclV1BCWrpf0DzNO2LKNVzJ6ulRDYzYQOm//vrr5be//a3r+Lryyitln332GbM6uiCD0TDIbKuttpKvfe1r7pzhtDlV9M0S5dEHK1NYZihvr732miyxxBJy4IEHljr+PKqC4bN0bLD9CcPcsXBy7ctf/vJCP4fTwyMI09XMedSmV44FRjNvxuXLZquxVrLq9Vmo5ocRjkSyQZqbEtLdlZGXXnqJO+pZwVn0UOZX/sRykpxUlDmZ92V29l3pTsyR7uRst/Iolp50bK50x7H+zNHfs/T6LMnF5zmXjXZId77Drb6Zy2NSL1nScsW0vDfjPVXM24VdBdNK+uJNTbL8yqtp8Am3uqlednEMEqM+kGaNnz4XzbMKaYtEs1OkIT9JXaPq6+XhM2VrXDWMZQ88hQ5CN1Zg1dp4rMFZLp975hlHSIygMSy4KT5FPr/DTsLGjN2dgQnM+owjMSpqHLJsUFmySnBzY7NsssmWksuWhhUjvcr5hGzLJ65c9eVHA/mseQVZpeyaU8am5FKVBX20t7PAWW4pE1ihiAwopSOqP5lDGo3lJKLu2WefdmXNFI62jnmyyhoryoyOdyWXaJe0s1LO1nLcpuW4bOFUx96llGmskBm9nkl0SD6Ga5OCluNsvEMrS4/0ZDslmUxItpBTuSYlkWtRN0WShckSb5ikZTwhxZjKJF6QSHNeumSWPPfmY3Lzvb+V759xsJz2k6PlxdefkNaWuOS6sxLNpFQOCfnidjtpeWaLnlK6o5q8KNayQYtKSQal/AwcPWoGZeSGG25wwz9RYM8880xHNM3i6TE4mDtljel5553nVlF99tln5cILL6xqWRrL7+5EARY32kBG8Zx88slOBkcddZRMnz59XBaAWRCB1dw6iShvLE7FHE5W9V3Y53B6eHgsmBhJwmlacN0wBbOkXONN0PUH23EEnbtWbrODhLOk/AcUT6eI9oezjuj3ONOTVRIRlZ6uLnns8X+pkpCVpGrw0VxcloovK9tv9HklcVGJJRqlK62Npb7DHL94vFGi8Wb1h7lMTar0tyiR0t+FuHR1ZZXgJKSno1Fy6RZpTk0pEQDJSzRZlI/bPpQX3n1dejTyTZOnyIzuLmnPFGSPPb+nqZ6qGVOao+Cg8QzKJ9IQl8bkJFl2yVVl989+W3bZdj/Zaevvya6fO0z22uUAiUmzvq8EV8lyRF9y28No41Nkb5FIg3IXPFIFyVnZmLc5kEOOJQXeWYzqVuSVsCl5cnPx+MPPcoEbqBNgpEFeKhNzcxezuYw8+v8e1rBzSuiKEslpnhZaZdvNviQtjVNVvhG9Hpc0w0RT+rw+40Z2ajFTbqX38pLp6pBcJiObb/EZSaVaND1Yd5mhilVOnVlte88ZOhaVF158Vp/JSVOz5p3GJdeTki9+/qsSL8a1/Gk46pgvS8FNKGEj4LiWgRSLI2jYm2y0vZLcJdSPuHpbyjvCKbiBwsiTnWG7tGx2yr8e/af6w4IKEVVG4pJojMv2n9tJmlunS6pF/VMFDx6XYF8VjVM22yE9uR5nTYwqUYw0NEoxo2VZSWSDxjMVnSKJ4mQpZt0wAImixOTUgwx7rW4hG6y2tayv7pPLrSOrf2JdTQf7bTWqHFVmKnuGdXUXuiUd7ZKnXnxIzvnZSRo3jXtXQVoKTVKYl5e1P7mWxDS9DUo845ovjbmYc5BOymEl5zqaHFnXOOP4JpSP3C/BviMlpzXCuTCQJK6XvJqb4IAgMiyRb4st3MA1jjZkkXOU03/84x/yyCOP9HN0sGFV4t1vfetbTvGHJOFMWUVxRbHlGHYTHfXGN9VYWtYfuSED5ILjmskEiyXnWOXuv/9+N+fwX//6l/zvf/9z8zeplz/5yU/kvffe680fs3Ly2+QLIFuVSGet8R1tWPwGimcYlBOcpZk0kGbetaGznP/hD39w34UVVljBLdxG2WT48d///ncnR+SMzHkHZ50f+AXwx2S4IMHydSAHYbRzYOnHEowV3fKAsvW3v/3NlT+Gz5544olucaW5c+fKF7/4RTfvmjzgeeSEH/ZdQJZWDj08BoPVXXN823CUT6fnjDIIfzAXRrX79SLsX9hVQ6V36nH1wPImeB68NlYIhzkacai7ZYTzjEgUUDrrDL6oAZeUzpIrrepZkKef/ZckWiFqOTdkMqckc/ed9pbllljVLWISRxnXR5k/l+1JS3d3j+Qz+tHOK1HJNck6q24qN1xxh9z2u3vlpqvvkj9cd4f86dq/yjLLrCgt9ILruxklBOlIl/zryYdk8dRi0tnT5XorIw0J+czGX5SWyHRpirVKtkskpjKKaZlzsSSOSoAzXaoW9zTLJuvuIN/a63A58FvHyRH7nSr7fP0g2X67L7iPwpw2VTCVZ7GFSFpdJtOjLiuZbI9kORb43VNlnmGpsAetdjUVfyfL2uBIgx5rf6MelIhFBOKuccJS+dyLT0om0iZRJVq5rDa8kVbZcN1tZKcdviZJJfnJaJOkEvqeklTKp9vnsluPmvCGrqI0NUyRg/c7RpaatrySTg2iQlp75aX3KCtd3R3yznuv6M8emTHjA+nqySmJXEK23epLmhcRSage2pSMaTnS2GqYRWW2WCwpf1g/l1/6k7Ld1l9Q5QCPy+ERrrpsWhVXjYdmqXO5Yo+89OrzqqVktVy1S7sqL3ktm3vs8k0lbs2Sbs/KJFU2JqUSSijxJytNTQlpbW5UGptSApiQTdbeTm68+h659ep/ys2/vU+uv+x2ufaqm2Wt1dcr74ead7Ggzpx57Lly9g8vkJOO/bGcc9qv5HQ9X3ax1bV8qkLepYp5JOo6OahP+ai6uMYr0yHPvfSC9Gi9aVB5Nze2SlOiySlUgDIRV54D0XT9IoOgj1QumuAj7sh8d7dTRrG0oaQzvA4FFMWTYYosKnLBBRe4lT+DbrPNNnNK6dJLL+3mf2GV4zffI1NQyReuLQpgFVSUcGTJin6c41j8h6HGWIA33nhjmTp1qttbE1IZdJdeeqnzh3xhWxRIFUMbTYY4I1Ej3QBPFCA3OjdwlB8j7wz1vOmmm+SQQw6R3/zmN06uH330kZvvirvooovkrLPOkh133NGVVxanogOEd1544QVHlPCP9/CTcBY2UK6ApREL8MyZM90+t0cccYSwD+mUKVPc0FnKFxZ0yh1bxlCmkDPv/OxnP5Nf//rXjpQiJ8ofegFEk+8FRyO0Hh4eHqONkWzvFswvF4SgrLgzN+/BR2+TD+a8KB35eRJrTEm2EJNlll1VjjzkeJncuLg0R5SQFJqkmIOQ5CUZy6u+3i2pYlJWWXIN+f7+p8g0WVkWK35SmrNLSnN8kjz1wpPyzNPPuo88Ols6X5S8hvXIo/fLqx+8IBFtWCJ5JSANjbLy9DXlxCPPkmnJKTJJn00oj9Ugyi6mpCclTbKEbLPR7vLtPY/TBCymhLFFMijzhbTc+8BtEklkZdpiLW7/wmQy5RTHoEtwjJTO60VpjqeSc4m5wtPfqQjtfvnauMPtj0nRLOXvQ0/cofn7grTn5koklZS29m7N/2bZe6+jZYetvuY6DJSHS6Y9J436Sgvr6nboUZ9ZsnlF+c6ux8h2G+4hxc6U5JSEurIzCGIxJVuSlb8/erd0SZs0TV1M4o3TJdMTk6WXWE0OPvAYaWldTJlVUhpTzRLR551iqnpUc1OrEtGl5MDvnujSwarAmWyX6zDIpZXApQuS1AdZpAcXS6hLRuXu+7UMz3xdiVxaWpona4FLuHJ1+vd/KovHl5finKTEOvW9DPRSve7skczstOTnxmSNpTeVg/f6kTTOW1Yi7UvItMia0pNukueef1WefeYZzV8lmhhxNdkQwedfekkKGS0LmaSkCtMk2bOc7L/nD6Qlr+U32UqvjDPyFpRAUx4SsUmy/Mqry2IrLC+JaVO0HkBGk/LOR+9K1o0dzkikQQt7g9YJwfXm3nwO6zvWR4a7m2XSWeRdFwP39d9CDpRGlHAUynfeeUe++93vuu04TjnlFHcfSxsKJ8+waf6DDzzYz7HC9lNPPeWGND7//POy8847uy2gzj//fGclQUFFgcWSZJ0BCzNQ8lHCWUqf7/UDDzwgX//61938uD/96U/y6U9/Wi6++GInC+SDRS7oWPkZksUqq+yHiOUJee67775uE37z3wjnwgY6O4zMcI6csMDtueeesuKKKzqSiTUTGVonyf333S9//ctf5S93/cXJG7lyD+IOoUfuDBPdZZdd5MYbb3Syo1wujEBeEGrKCFbeY4891smNjqE11ljDEXIIOul/+OGH5YG/PeDKHXJjlAJy+9GPfiT777+/PProo7LmmmvKtttu6wg75Y33kB/lsBJZJ9yg8/CYyOjTPSeIvjkBMFHkMJp5M85fprDNbWAbXFHT3Wet02iXCUMxkpNMw2z5+eVnSibaLt3FTilE4iqoVll+qTXlp6ddKhusupUk89Ml0jNJit0pZ4WcGltaPvPpL8mJR/1EmotLSSw7WRX4hJLIuBLBHrn5T9er8qJKoZJTNq5nWCSYNftj+cONV2hM5+i1Do1JUXq6emTtVdeXU3/wU9l+k93c3ofJ8h6I8cwUmd64guy0zV5y+LePV2LUIp1tbK1CvNulM63+3Xyd9CgZ6WT+i7KChqg2GtrIsG2Im4fK8GCOzFgcYmOC7Jz8nNzm92Nki9UwYPEr529B87erMEOuuP6XMrvnA5VZj0Rh/0rkGiOT5cD9jpUj9j9Vtt7wy9IsUyXarmRpziSZHlNyv8FOct6pv5Jdd/yWkv5WmdI8TZqSg/esO6tcoaikPiovvvEfeeXdZyUTy0iOlWLd0sRJ+eJWu8u5J14kG666tZK9lKRyi4t0NktTcWnZaJ0d5Ne/+L2s8Yn1ZVLTJEkkma9TsjolE3QipMoVuSxzTWZ3Pi1pTdelv/2lzO3+SDq7OjSklEQLLbLqMuvLBaddIdt9+iuS7J4uhTkpSaSnSK4tIYs3rSbbbbqbnPXDi2VKfCVJZKdKc2yaZLFMROPyxz/eoGWIBJWVPHeIyKOP/UOyuXZp1fhFihqfTJNs+enPy3GHn+HKalTrSSo/VZI5Jc7dLbLasuvJ8UedIdNal1Iq2SA51bez8aI8/cJ/JJEqlRxXthxTDIRVyWn4JbJfzuMByuPCDIjN+++/76xF6667riOGzOF6/fXXnSUTJR+iBFA0ozGt9yHHMEZIKkTgww8/dHMP//nPfzpLJxYSs5gOpXNqvIHiHnTVgIwg1ijwkEQsmZtvvrmT57333CtHH32022piIKDsE86WW2wpRx15lFx33XXy8ccfy+c//3n5xS9+4UgT13huYSRMJmeICsO0d9ttN7fS7CabbOI6Mx5//HE555xzZPvtt3fP8/2iDNI+sVUTZQzCRVsJSaKz5M9//rMjWN/73vfkxz/+sSNQbP1RS34uaIAIQhxZXZZ9R1dddVV54403nOxOPfVUR74ZqQDoQEJuyIHyBDjnOcopQ2lZqfbII4905J7tebDO8wzE08+R9fDwGCuMJOFsaG9vD7We0KeS8leaD5WTXENa/vfmY3LiBftLT2RmaR5hSXN0iFRYdbMfysTBwAbw7qgN93qrbCk/PfYaiXVNcTPZio3d8vgb98op5x0jsWRWetKdzrII2DXSrF6QAubTYUlJxmOS7YrKXrscKt/Y9TC91iqZtEhcSWJ3Z5ve14+8puG111/QMPJuntnaa20gkXyzZHsi0hxP6bNRSffMlXnZ9+RXN/5EHnvmAenumVcKVRtW0lDIRkuWykhCDv3usc6qxpw4LINYatjDk21R5rTNkbffftu9S4/wEkssI4VcTHJZdYWItExulVmd70pn/nU546fHyXsfvi25SFrlqpFW2cYKGuGuSXL60ZfKRmt+Vhr0vUg0J9GmuXLSTw6Xf7/0d8nHSvuLhkFT3hBTeStpThSmyi2/uU/iuSUllpkscW2wsolZsvOBG0omNUuyKu9ctqDpUTKkZPzs718i66yyibCIUSSq6Ulm5MRzDpenXnlAvesq7aGo0i1ZocrWKc2HJpVfMa15mkvJzb+9RxKZpR2p5h4L2Hz5gI0kq3HXllad5kskJQUlZ2ce8yvZaO1tNV5JZ30rxNvlhLOOlH+/+ahISmOnBFyz1q3+W8gk5Ou7HSF773qotMhiku/RlKq80nklglouXGlkXqee5Hsy0tqYVFKaVyWUUqPkKaUyn/uRTJ48WXq6Ne6FWG/8dj5oU0knZmua1AtNk5sbSpnNN8gqy28gF53+B4nL4koSuM8eSHM1vB5V5ltVMehwc4hTzsLJyq6ah1o4E0nN60xWktGk5oMSzViL5NI5efz5v8lJl+wrXbGZ0qjlE3nEGlJuuHeskJKdP7uPfHvP70tjbLrEIlreIgVVMNqdfJJK7B557BGtFzFp0vDWcENkU5LtLEgq3iyZHi3d0R6V9Wy55Lrz5f5/3iRd+dkSU37tOmuKlAmNT09MzvzRBbL2J3eQQlpJsvrF1jDs1ZkutMuMtjfkrXdedcNvV1puVZnevJwqkklNVosqVglXl3qiH8pRZ+wlb894VlSUTpYMHScjHIcc4BsVRe49cTlHyfqnP7GjxNJKePMla5GKu69TpCJCimp5fmbYUh16akIAgmlWCQglCjiL+jCUjgVDgH3YK33gByM5PM99jhAu9j7k+4NlBatnMpGUbC7bS5YWdOscCjv7h5IeiA7EkHmrKPy//OUv5dvf/nb5yZEBK7BCBrA+k1980+kgQN4M1YXUBzHehCpcVsLlibgjO8oBcUWeDJeFGLL3I2mFsPMe90fCWsb2MpRLtv/46U9/6qzNgE6CiVYew+mtlJ/EG5JJ/rOS8X333edINlbN1tbW8lNDh8kdS+mhhx7qvh10fNABQL5A7pEb8Qh3KI13+ZsoQH61yMK+neQn9WIkyvt4g3STHju33xxJL98ALOX8tvRyn2seHqOBBbpWlbZPKO3vV0jk5PLrL5Tf3X6p0oA2yWQ7JKEUYVpqcUnJVJmeWF42XOMzsvna28vGa2wjTfnFpNCdkubkVOno6pSegr6TnCv/98cL5Yn/KNFMz9JWWol2Xiun034jEqNxjmRkbvdM+fU158ot9/yf5GJzVIPudkQ5m1bimZ0mS7SsIp9e8zPy6TW2l2UmrynTYstJNKvkRyvypKYGfXaOksVZcu4vT5APZr7stotgAaC8OvQEghtIWa8fmsUhZdzAVUhCCXyUq3+YnSQq6L31xVnDgSiUyUIlQPpKm/4XpDOjficLcvPd18k/n7pLr7VLOjtHFegeRxqTxanSmF9SUrmlJZVfRibFV1BtYLISqZSStiYlWwWZ1f62/Oj0o2VO+0fq++Dp5GNc0LzPJ7Lyynv/lfP/71T5sPtlaW5kSaEGmZxcTJqLi0uxrVEmR5ZxrtDeKrl5TZLITZZkXMm6UuC33tW8LXa7ObaUIeevOhYniqqwig1xFWZM2ru7JN4ckZbFY/Lnv90gf/nnjZKPt6kPnVoOs66MxiF66veGa2wt66+yhayy5HrS0NUs6Y4GaZ00RSRRlM6GWUoCP5Yrrz1fHv1/f1X/O6W5pdTgGBgJ0KiPn//r0+T51/6fNDU3aPgzlcxqphYTktM6sfSUtWWTNT4rm665vawweTVp6G6SlvhUyReySl7nSDHVJdfedKW889HbSk5L0qRIDC7VKnBlVJWDESv3Ewc05mzhw5DZLbbYwg0xZIEQSIwRzeHCCAZWFEgXij3K70EHHSRt7W29ygZDJSc6SEvQhQHRxMLDvVtvvdXNhWMI7SuvvDLiRBPsvffe8u9//9vNR2T+3e9//3uXpzjCXdBAWTCyTJlgaCcW9kmtk5wMIZom9zBRHSqYx0mZ/9KXviS77767s+Dh94JoeUd2lMGnn35aNtpoIzeKAIvwCSecIE2p/h0PQwWL9AEsxXQA0GmEdR5rJyTT6vGCWP48PDwWPQyZbEIszKEgBp3+DziFEYsqBCMIa+SCbR2WNLOouS0p2KdPr3f15N0qpC2LNcgfb79EfnnFydKde1/SGSUWuS5piSUl35mThkxcsl1KYLpzSjS7JRWPSKeSykhLWt5oe0aOOvubctfj10tHZo7zl8U7G6INbqGUgmSlEO0RSWYlOVnfkw658o8XyLW3/VI+bH9T0koqUi2lhT4Sqt9PSiVlUuNkaZQmDZO5nWzZoXEufiyvvPuQnP7Tw+TdD1+ShqT6rQSWVUVhck5+KqPBGnknZ44VXBA8119VK2V3kBSWjNKV3h4I8z+nEi2fhcMbGG613QFg8/o0B5SYF6RlUqMkmlPSoCTnkmvOkMt+d5q2+HMkqYLGShrnT+WbgMRpgtj7kaGrkURBydEMefX9h+TEc/eTjzpelobmjBua69LRWxbt3H6z/rCGrrLJxdNy36N/kOtu/rnM7HpN482cpZxEY62SaJykb0TcSrGNqZhbtTbWmNOSMltu+PNlcsXVv1AiN1t6lDCmnUtLtqfbLVKVThfdtWxeFb9GJZzpLpmn5S4TnyVX/PFM+dlvfiDvdzwn6YYZMrP9Qw0nL92dWpYTTdLa2CrTmidJlgWkCl0yq/t9mRt5Tz4sviAn/fwQufehG6Qr/YGmn84S5ptp8nBRLcORHi2vc+XDrg/ktF8cI7f/62qJNKeluzBbssUOSTbFlFSmJBFfXEnzZFV6UKxaVBZaf1o1vo1z5BdXnSq33nutK/NxVRaL+nyhqE6puCtzrlBVdq4Gly3kpXN9p3yt9O0wWH5YngyM4JPVnx575HI5efLJJx3R3GmnneSZZ55xwz2p4xAWjkFXL6w3HhLBOYAgPfHEE26V0M9+9rOu7BEPnlvQQVpQ+JkfePDBB7thw9dcc01pf95RGGaIcs82H1iWGB6K5e+HP/yhs1ZjWZpoqFaeiDMrqFIeGKIJEWSxn1v+dItbyIZ3rDxVer9eMLwW0LFy0kknyR//+Ec3ZJQ5ipU6ExYEXH755a5jB6vmLbfcIp/4xCcccWaI7HDhrM6xqJMb5xDLU085VZ577jlHNinzWKMBeRjOZ/JuYajnHh4eCw/q/iLNT2CqYXD1D6KVj3a44YzZBG6ukroubTFz2hDxIS0/2Av1r0wMXFw0BRGGB6jSzvYkieaCPP70vXLUcd+W31z/C3np7SckG5sjPTJDYqluyUTmKlH8WNKxmVLQMN+Z/az86tpz5YfnHCFvz3lReqIMRWRoUSk0A8q+I5x67Ehr2FghE2m57qar5MQzjpTr/nSZvPTuk5JsTYs0tUtH8QPn8o1tSiDmSFfDR/LMqw/L1TdeJCecdpC8+9FLSqWULLAnC4urlKXaZzVUEqpyycdnO5dT2WjIml4W/KhBpVYZMdSzIO2S5f3kDJXxDCVPbSVyG2rkC0qisgyVTbS5PGA/UlVJ3LBMLIxhBK2bznKn4WENLGiY2fhcl5cuT9nzUYmK9dRCdJ0s9Vpe8znnnlXHkfTGCK+U94CFiwr6UpcSrXSuQ7qys+WBx+6QI3+0n9x0129lRuebbkhnJvKhO+LSjTOlKzFDnnn9Mfm/m38thx2/r7w/5xUlVJquYpfGIThUpH/aSukon+stypdSNrn7wVvkyBP21fz7pXzQ9qqko7NFEp0yJ/2WNLR0SKylW96Z+5zc+bdr5fBj95Fbbv+tpCblJavlLZecp26Oullu38yiljGnC0QaJKcKHZ0Z8cYG6ejRY7Mqt009cs9DN8kPtJxc+Yefy+sz/iPtDR8q0ZsnxeYu6dLym0u2uf0141M65W0N9/IbzpcfnnWoPvtf6Sy0SSSOv3lp6yBvS+lxnRkabvOUmEQaRWZ1vS8XXvFjOfmcI+Wv//ijvN/2P+kufqhEnvI7QzoKs7T8dko6MVNefPtxueXu/5PjzzhI7tZn2c+zdUqTy/vgZ6Q/YRwYru6GnLtW/ydpwgPCh0WH4bOsQml1D6XfyOFwgDKKn6Zg4i/fQ7ZVMIvcVltt5RZxmYjkqF6Q3v3228/JkoVsOEfZhoCOhpKdU4UeoPx/5jOfcUMbccyrM6V/QQIdogzLhDDj2AaG+b+ANEIyg+VpuLAtnwzbfGYbNw+UegFxWtBw9dVXu2HwzJE+5phjnJxIH50gI1WfyQM3fUdBXnDOvFdWnsZCDNFl6HOlBYM8PDw8JhrqnrPZFZ3pmAZky1BtxkV4TpUB5ZL5gdFco3Kj0rAQiAYEJ9/AHnHMz9FjbwB6IeBXyUKl0GuuF1ZvYdViaKV64uaCcT59ymIyddpUWWqZZWTK9KnyxquvyMezZsrM2XOV9mjjqkRLaYH6p0RH02xJQ49geil7JAIul+Znup8ObvsVjXtDQSNZZB5gRD611pqywooruni9/dY7Tsn7aMb70tk5V5paGyVdVLIHMSuTOKM7KNwY/JAXcY8WUvqbTfOx+qgC4KyfWPvS7t1ANPpDPWlQz6LFuBImZKCyJW56y4ULmY9m1R/9TRarRw0NcfU6WQpP01siDZBqlbHKBxKWdxYr/VmWkSsfCubAKh9TaKOL7Iuq/JbLEO9beE7HJl76x8rAzDckvN481biR/1jRIhFyJuvknUcwDoSr77E3o0tTKV0rrLCytLa2yIorriQdnR3y3vsfycxZH8uMme9pLDISj5VkUdBydsPVd0pzflmJ55pcuhk6vfOBm0paibFK2YXC3qLAiJNLq5Njows3EU25xXWmTJ0iLc3Nrke7raNDnn3uWS2HGTdXNKYvRSPM0VUPNJ4MnXVQOWQj3a58U7gg4ZRvt2iEEgQXFoVO0xXNk/cxyWq2T5s6XZZdehmZNm0xWWqJJeVlLcOU+Zdfe1myhawSSy0T1Bn2HikwrzSgBOOfwuqsC8OdallWWaa79B0NZ9qUabLE4ktJU6rFzUtDHm+9/bZ88P6H0tXTI12ZjlKexLTsQcopv+p3AwxWf5dWmNX0lMuJyS8I0qQsWc4+6SLZ0M3ZnKxlXZ/XfGU4PCiVq9I5KJeOwJUSrFiU0jJxgDIPqUNJZAgci4awUuze39i7V4EMwsinIaiYjwQoJyj1/+///T837HTZZZd1BApH2JC0IHh+IsHmpqHUE2escFiWWKmX1WPHAzNmzHDbfUAArrzySmflBOTdRJyDyLzdufPmuuGfyBDr4nHHHeeIJotNjSUoc8jJFmEi/EsuucTJDfI+0uV/uCBeVkexoJ922mlubjR5Px5xpayx/RHzX1lBmbiRx1ZvLa4TrR6PNYIyGQxWHvlu01nAews6SDfpsXP7zZH08s3nO8BvSy/3uebhMRoYd7IJUHiDcERKlXCU7tLRwtLneokJFqjyh0SvcdWsZ/b5j5WVXkOxfKNYrlzYKnstbuUPNEACwC6xJA6wJwZrXizesWipojOMEeuP8giHWJRe3sElRnJ5J9rbkJVetviXrEl98ZkPZe3blHB7z8B1riF/eBXzEHnE/OsjCSU5mfj1s+SORsqMbEIeG8py5IoR4d78DcUUIswcxsHlUCI0JWiI6legyPVDLsdm4lFJpNibTJX8cjzZj5J3WJQmVkiKZJVsXnN7iWxm+xYwKi0QNLecLj7Gpdd7498nkFLDBOHVMuRWDNajm4Opx46OTknoB5t1fwp8yDXTc/p8UckuKwzToFk542je2pBiqyeWVp53ZYBwymWBvM+p4t3ZlZdJrUnp6kprHGgoNE5lJTenmYr/zg+8NrLpCCH5VgrPwFva5pT9iZUUPn4oSkPgSu8zXJjniCZeuqGvep0FlYDls8bWHQNi64VbmKlnYLJJ2bGFpwwl39S/8tFg5Tr47ERATvMeObIaJ/s7smjNPnvv4+6NB9nEf9zXvvY1N28Ukka5xYJSyTKHAjKRQNyJJ/PTICVsEQNxZlsJymclmY42iBNDdlk06Ac/+IFbWRiQ92HyPt4gryHrEE3KFvuIYpFji5e11lrLlYPxAoSTRW+wrEJ+ketEK3+mpD/44IPy5S9/2VlkXdnTMjkeeQ0hYmGiz33uc27V5fPOO89do+wxVHlhGL0wEqDc11KWKHOebJbKOdc8PEYDQ6pVKJGoR6Yi8Tvo5gcVPuiqw1l3AsdeQEDKJMRZAHHuHKW3RJpQzJ11TmOI4p3L5ktOFZO8q3gMFVKnZICKhwvC0oFSrd70S2s1GEHu7s46l89p46kvx+MR5/L6gwoeBvE3535rwJyWf/ZD8HpQ7uaqoRh4xvh4pXDUt7IrIyD7IEhv6MmqGFyhLvkEqXOWY4XJpRLi8dIebrNndTrlk61icEb4KyOclr7zweRIvHGUI4ZNdXZ0uyG+8+a1OQsnsqUTA2LGolHM+bW02ruGvjwvlWODpZU0uWG2qjygQFhDgHII0aSssUVLBHarsEYlWJ6DeT0QKI60Nxzb20vKchF/1CUScYnHSgoV3lr0S30LdD8EZVgCpLbUEVTZQSidpZ7nWIXYHbmmtw28b64KSGPQjTeYO4giikWTBWuMaA40n8vKRbh8jBSclVUz7LLLLnPxYo6jdUwsCIopcaZuMYTwrLPOcovLMEQYjBfRJJ+wFrIKKUNRH3vsMVdvJsKwRpTHoOObQH7n9PvBAkDMM8QyjFV4NMpbLbDhpmwJgnWO+beQ34k4LJT8puMIQsy+q1g0KZNcL3XGjS0oZ6yqjnX6d7/7nds2CbmRx7RJHh4eo4fw99WjNgxbUn1q7fghSETMAmTA4tTUnJJUEx9jbXjzSowgmSVtuSpqIW9BmGWzuTnpHGUxp/pcVIkPBKik2PcX+2BEajDUG7eRQLW4EqfxKBM0tGQ9w6UhnyhR7AEHKawG8gzFgeGzEKpq6O5m4YaSv7F4xCnC8EA6MNrb06XypXGJoAhj0SxbNYcC3qO8ED+stm1tPRpGtwsLxYJ7lHEsnqU01C/9tjbiTrkkPAgn+w7SKVKUrm4WNiophpBa50jb0JIzOMrEcqJZKusFijTWBoa7MeQTQoRzZXKclFPCZ5EbCCdzR5966ikXHyOdExnUL8CCMkcccYQbesm18VSsyWNkyj6I5DFEBCsdC++MN6zTyRzECJDfDKfGwr3HHnu4a5SN8YBZU/leMYwWqyZbfCDDiQbymnLHAl/f+c53nBxdndL2fL7O8DGA6S8sSsSWMmxZM2vWLBevoXz/FwZMxHQP1B7b9YGch8fCiHGl5SWrTvnHoCCaQ49qcOI+ww35KI8WaHwgvDllmDgIbjKpv7NZbfjLC8MME4ThnIZT2aFY6INlsdnvsEPNxPX6V8VfN9y2fMQpzXGul32oI+3mD5ZmZ20OhInjmXpcOB5hB/hINzXH3IbY5Hc+X5qPBhHr/zwx5lgammrv14NUitVulUA4gqt5q2GlmuKO2LIiLRZN9pINdwYEG5JgnAYD76AwAspuqpHhj2VrBSSzfI+0GMxf4mB72oKB6trkyaV8IXro9eifnOMwxpnl1BCMO87AjE1crYBUBuMU/B7YefD+wCgX9F43tkDxJB8g/py/8MILcu6558p1113X21FgbiirVfIeFkjLazvaNfN7IATziP0NTz75ZDeM0t6d6CCOrMI5e/ZstxKswUhoGAxvDcqoFlj7UMvzyNPIEntssrIqG/lfddVVvUPXJhIYPku5ZPjse++9JxdddFFvmak1/00uyNVkC4zwB2VeD5AldYT9KZEhnSGExbcVkow1dqxBmCYX0sT8TBaigtgF6xKdDeH6Xas8hwPrvAJf+cpX3IJLJ554Ym97tKghWOfCQ8LJH1wQ5BFli+vhPXKHAuTuOh/KZTZcDthaiO2uai0bwY4Yi3/QERbPUPeIf6Vn+DZypF7a1Ik333zTxRHH9w5/KC8WL6uLYSBfnqXzNNWYKl/tg6WdI36ZHADnxJM6Zd+Oav5ZfvJOpfjUC4sbx1q+UciOOPAs8rVvH+9XAs/jiK/lP+/jOOd93Jw5c1w5ePXVV917A/m3sKLKnE3Agi3d8uxb/3JzNnsis6UQ1coUMD8E9FmHsII4v8IYKkCBIYSAIXX1oJpCalEtluNpJMBCscrWi5BpJThnD4SSOx+Cij9gSGUQ4bmKVeNfjulA8Q9DKUj5rFaE5F8+GoJDPEG1+M6ff/1/O/+cn/397UP/58OkbSCUnguWX/1YaVz7zdm8+i5pzS8j0Zx+pDUc5mru+L2N3NxNi00oufPnf/iB+dIRSn+ogsxX3qqg7udD4fXlVylepQHafaiWn7wBTAz2+ED5YnM4K4E5m8VMXM4+8SLZaJUdJZaZpBWE+qD55iybJcraP04l+Yak2lsf7L7BbZ0zhqCBsYaDxvHAAw90w9qYX4hSEM6/ehVC3kc5oEHj3N5HkbBGDdTqL34xFJB9Affdd9/5FPpaGuSxhM19vfHGG902LtWA9bigZQAFg7RUk4vJFBeUbz1gz0Xm0LGtDcOoxxPh8oYcUPiYn8lwVfZsDKJaeo38cQwq825Oer407H44SiFxo2yjhLElENsEsfgNwG8r32MFwqNOIEfixt6qzMtl1WMQTmtY3kMpP8MBZGK99dZzpIaF3RY1kF/Uc/Ls17/+tcycOdORb+Z4cz38PbPvAiCvKNcc8Ydv41DKMvXD8t3Kgx1ZOZhtaxjCzvDnaiSDdATTFB5ajr/4YYuShQk2aaBNwg+eY7sh1g2gU+ycc85x8eRd5IMsaEesfWEuMMcgCA+/LDzeCYJ4/upXv3KjEiBnjO7gGcLhHn4z8gNLPPGpxT/AM9S/8P2hAL/IV8ImvwcDzyJ3nje5AN61vAmCNBHnRDzhRtOR7iDZJp1cu/322920mqOOOsrlA9d5byTStyCgYq2iyqBQ28I9tSr7Hh4LEphxWFwIyzYfxaCbsHBb/gShjUwNczQnGmgsaIQ4vvvuu3LDDTc4C9xIyZ6GigaPholzAxaroYSBcnL66ae7FXJpzCc6IJnML0TpryW9WH3IC5QKFAZkNpizZ0zpHAogSQxNpYNhvBFMG448Zm7fUkstNR/RrAXIEn8ogyZ/ttR5+JGHXUcA8jMFcSjl0ZQ/LJt77bWXGxWAgo2/lPGxBgoiIM133XWXkx9DVYnPRATE/PDDD3dzsRdF8O21byN7nmIdt+8aZCEMK288PxLfaCN7Fg+IBo5zHGEY4aBc2/WBHCD+Rmx4P+jwG4JIfbQ6GXS8Q53liH8WP8LGX65Zne3q6uolVLzb2trqng2C68Sf98PEF+D/TTfd5Eaf2Erh7ElMebzwwgtdBwAdSJYX1fwjLjxLGjgfLogfYSJPI4GDgfofbD94j3OTJfkYdFae2AkB+VrZA5yb/K1ckC9cJ+32rVkU0O/ryQ8sCubKVzgJwKnoJUJadqD/eyHM135ToQLOFgIxF75f0dWOooaPK6HPDyxbJYctrOTCVk2H4DV3Xs1ViV84vVUcFh+z+vS5vtwJu/pR8q8EPQ+EPSTXD+HfwJ4bwIX9q9GRl7zvBnOSDSaRIqRS75afY1sQPj5FLRQF15MS0XJrpUHRV1gqwuWFOQeOQTcI3Du1uIFQ6dlKbmCEk4cIanHAiXUYwBu2rsHFGkrDbgr6/cdKwjDkPPOR9NqCBGuEaCCZq4llc9lllu1t5IaL999/3+0pSUOOoxFnn0dgDVm9YPEiFA2GCE50oLzQG4ziYQ37YDDFAIUBksUcz8EcFskddthBdtllF2ftHQoIi7mQKFyGiVKOUZjoWGBfUJSjoYKOFKwj+Lfppps62bFQ02KLLSaHHXaY2w4mp4pZvWAFVZMVnSB//etfnXUKRQyleqxhRIF0XnHFFS5OhuHIb7TANwCrK4sX8a1Y1EB9p/yQNxz5rlkeotSH6yHXGRZNJxadJsMF1kA6JSC6WC/xP+jIH75dkAziRnyCLvw85f+eu++R559/3v02kmKOrfSoG6TtkUceme8+220xbBaCB6xO8rwROeKE3BhaS7xZdM3eD4OpSUa+Hn300fLVPuA/7RFD9N966y03j510Yem0a3wbsaTiR9A/4h8GC4Wx6NVrr702IvWN/PnLX/7iCDH5Uw3In/gTNo4RF8gHPyrNyScvkCnxvuvOu9x0DwPnyJR85HsSHPbMtaG23wsiermJU8u1TpZcSfnGcQehpNnsT4Xm5uD1PldyFfVnvW6uUNVpJQs4vdTf6b/5HUppyWlW1uEUoTiSHnPBdJlzsAdqQDhN/QJQF4x7bfFX0QecXlKn/wZ09kzJVZZf2Fl8BrtXcsG0VXL9n5/fv175SK6y417A9fdvfhdMe0Mxp+Uxq8e8NOT1Q8VeqxElNUo2I/GYxBti6qfmgbIn9u9kH9J4UZ8pxpUIJTV/6EmDoOq7ZddLuLQwmGMYuXMRJa5aAQZ1jtya03gGysKATiVhjq1Rep1GrSYXeMdWh+1NQ1/SanR96Q3KoGK81YXzO+jYImdSNCVTovrR5bd+T/i+lBpeLd0aT6CScs7FuSyJMCoE7dxYg0YzV+41pUFDqce6ZsqPNVrm6gW9wz/60Y/cIiqsJAohYvXT4QClg8VimFdqDSAN5kQAMkOWxIkN7OltN4scCls1oMjwLkD5RrFkA34cq8eiFITdAw884JQMtlSpFya3bbfd1m2J8fvf/96VB9KBgjfeQGlFQd17772HXB4ZBshCPpBp3jHFlLrL4jSQMpTMN954w4XBdWDHanB+5vJuqB3bybD/J4rYeChj7e3t0tzU7NLyr3/9yw19M1SSl8nR3EiiFvkh7+WWW87VEdvWiLwBtdSXBR3BNPItJv2WD1jGkSHPcP03v/mNbLTRRrLnnnu6oZ1bbbWV62SCRFFn2daG780GG2zg3odI8B73GLXAMFjqEX4iYzoiVlllFWeRZ0oCIzD223c/R6gIk2f4BvCN4Mi3KQyrL3RS4j+LUH1j72/Illtu6eYyz5s3zz3Hu6zGzQgAOo8Iiw4f5gLyPWcoP3H7zGc+49JHJ9o+++zTu+gW6SAsHB1DpH/dddd1Vvtvfetbsvzyy8sZZ5zhZEi8sT6ytQ5Ds+nspG4O1BmHnOg0glBancUP5D9lyhQXNmAaBOHQYYrcGOILSD95g9zZXojF4JjqwX2+q+QJI4ZY2I5z4k2eWP0gzlhQmcLwnW9/pze8s88+W1ZffXUnD8sf0gtpJJ68j7xYPI/32YOafXRJO3JC/pQX3oEwE2c6fLlHfvIcc/XZvokOXPJtxRVXdH6Qf5xD5gHv0NlABxrngDQsKijlSABU0X5KmxLOSc1TVCjKzBtSkog0S7SYkFihv+OacxIrOTalDzq7XtVF1L+IvhNwem0+/yy8XtfYzzWUXd+10nOx3riE/C+Hz333zHwu/H4VV37evROUz3yOZ+d3DeoHLny9N/z5/OmfzqAbPPywU0JW6AsveI4bMP0BPyqHxzMV3g8/F7xXdpXzo+TC/rnyWEzqMe6O8UJSipmY9HRkJZspSrOEh4nQqZLUd9UVUnqeUn9TSkD13bArNKpLONc/zvH5XEzJa8lpXIKO+Lk4luI+n+u9P7T3iY+Lo75bcuE0WPxL8qvu+qfV3h/Mhd8JOubO5joK0tOWlkK24LZVoWFgL11tr/Qbw4en1ICMtOI2WqBRRRF4/PHHZZlllnGEw11X5Zl7Q4ERmLvvvtst6BIEYSEbGtihwMVLHdYQlFOUa/yaKIopSgCNMQ0xi9qgDAynLOAXZWwg4mcKIGFUUgZrAfIkjK9//euO1JqygxI43sCCg9IZaehTwusByi6KK+WEdCFP5ER5CfrHc6zayjWeM5nUCxRf5jeB8egAQWnOZDNy5513OiIyXGA1r8ftuOOOvUp0LfKzcouye+WVVzrFH8e3ZyjyXxBRrVxDClD6scwz9JsyxjxDhr6zf+o3vvENRwTWXnttRxKwxtFJZf7yTaJMUuYhLRwhmsyFZDgk58zDY37mn279kyN9fL8qfU/wM+jIKwgmW9lsuOGGrhOQkRwQGwgY32nykjJB3aNO0OnDEfLE9kGk6Utf+pKzsG633XZuATjIK98i0u3qo/pBeMSJ8LjOCAWIJHGHKLJSOQvIAb5d9i1mdAnEibnzIwHmjuMfRA7ceuutrjMVue++2+5OBhBO2j5bOX3q1KkuvkynwGJK2ogj8oPUYnkkvnvvs7dLK+k477zz3DNnnnmmI57Ihu8h32nkhyx4h3NI5Cc/+UlHZOmApXxAJEkzw4Ih4sgCf4kTZQB5k1cvv/yyK0s2t5twsTBXGia8qKJ3gSA+SVgaIJduARRVNLEG5SI5ycU75Pk3n5Djzthf4k15yRVLSo57fj7U1pM5IMoWmPlAnPoh9Dtwvxh63+mvZYsJ8XPx7v1dRuD9iuH3hld+vyqq+WeYX14V4x9AKfxQ+gPxC2Pw8MPAGlc+LaNy+GFUS29fvPq/H05H/fGfPz74qc7laURJTYMU8qXft9xwpyS6pkhDvkkTFpWslu2vH7CDHtslj0nQvZHTNM8fj/nKTG9cS+8FUTmN9nz5aP5VK9t1vF+SVeh9ux+oAw4Dhh9Gtfu1I56PyZTIVDn+8NNk9U9uLi1NS0q6U+OhcSlGUCy1fild7xdm3fGzdI4NaNhosLA+co4igKJtK0YOBbzf3tHurEX0XOOvAcWBhpP9HQENIKBBrge8h/80/DTiNJ6m5I4niBdpIT5YHmjoUTAA8atHgf7pT3/qepkhmviJYoW/QQT9pBeeHv+hgHizEjHkGGWIHmzCRBkaS4Tlg/KMMjxU4oRyxTxKKxvIFGUWRY0hZgcccIAbjk1acXQQoHhxXk9+WZ15/fXX3RxYhqDhx1A7VYYK8oswsWhiLcSqMRyQhnpBWbJ6UCsYesz8TfKEIwo0yi6kZ2FGUE5sT4N1EtIybdo0l3bu8f38whe+4EYuXHPNNc5KxfBK8hqS8eMf/9gRML6FEC7m3PPbLPlvv/22s7ox75lFwD744AO34BZDyLEociQMyjvlBfIEWaEDgA4EnmHIKs9ZPTKwQikEBVLDyAvqFeUP8guBJDyGSFMWsfQRR/yELNqzEJ6rr77aWVgZrWJECsIDweL7x4gbSCUEiraD70JwlVyssZBlFpxiCC4jDPjN6BJIOjJCntXqM98/0ouMIIHID4es+Y5zD2J5yimnuLCRG51ZDGkmDMKyjsHf/va37lsDyDdIon3TLX+QJ/kD8V566aXdKAxGtNBxgMXyiSeecPWBcIg/JJx0W/4gY+JEuHwnra0lfnQmQHjpnADMB4asfvOb33TfPdKKjCGzFk/aF/wmjciKePPtpbMCf8gr0slzFtaigH6r0VKESosClRxqXz6iSmAira5L0jJb1fAu0c8gj6tCPVChG57C4ubW9UM4nNDvUDwGJEtlfyNGJAZQtucnN/3v974/IKr5F0Z//3ozpIzw6/PJPfw7JL/q4fdHMRSf+cMvn/Si1vSW/O17PxTvXtQX//njY1D/i6pAq67Smpws7T2dMqlxqmTm6QvFpERicclHeyQbmyH5WJcmtI/khAl2WKbhOAbTMnB8QPm9sH/z1aUqshnk/ZK8qrw/SPwro9r9WlBwKwM3S6M0RybLnHl5aUxOlWKulMFGNkur/QbCm082YYTvh9M2uqBRp3FHGWCYK8OAUACsx5RjPTClm4aVRhG/aCzpvTbQuKF4WDjAFK56QIONNdaGDoWJ2HiANNFIozzT02wNsilFoNa0opgYKQfkRziN+GWkiLDJz6HAlF564LGKMewU1Eq2Rgrh8LDUYXVk+FlQMa8VDO1DMQeUuxOOP8GtumjljiG6DD+z4WE8A0ElnHo6XYLPMtQOhR2FPqycjzZQiok79QIlFAvMcFCvvIGV9Vq+H8jNsN7667khlhAJgD9j3dkx1giW6YHIJmUU8sSQSr6byBWLF/WducgQCzo4GDbNOzzHd4c5fnwPIBwQEZ7DesV0CSyckCS+oXw78Y86wGiR2267zZEKvqsQtsHIJnUF0mR+kx7C5DmmULCyLsQGEox/XIPYEB/SAaEzgsd0ALa3Is+JP+mDZEJAaZuom4QDwWaIKKsYA57lHbMkYmWF0EIO6UDDYs5Q1Frah2pkE1IJed51112dzBjSSvtGnSfveI60QzgJj7JMPjBUn04C0sToIfLJ5mAiE+RBJ8Hxxx/vCCEE3vKHUR1u33VNJ98ViB/kEnkSXwg18/sh67FoTLK5rNvqCAsr5YjOM4Ys26gDvrF0BhBvhhfTiWGrHxM/0kBHKcQXcu/Jpn4Hg2QTuGZKlbsCVh49MucsH81IAUWwAacVpawMDkw2wdAbiJKybO+Hwwj9rhCHMDnpp/xr/Eu/B45f//fn93/w96vHpzL6/Bs0/k7u5VMwUB4EyEht4ffBvRl4v3/488cnjMHDM/kPEO9e1B7/fvEJxNuV42KD224jEtGPJMNS9SNBZwEf9FyhKPkGOlJ63LH0Ds9p467HAf11CP/uS09YXv1Rfi/s33z5OJB8qr9fkleV9weJf2VUuz8w+uRRCpMB4sRXv8kSbUhIrCHpGqOilMimhcXcWoeByngvwvfDaRtdoAzSyGAVw6rA/Kl6YQ2YgQUJaPgM/KaxN6BQHnP0MWL74gI7VgPKKe8RHlZDhv+iTNDwTSSyybxUrMU2jMoU8FrTCYxsotSgvKCcGZlE5iBMzuqF+5ao4mP+ouAcdNBBrvMBJRTFYyxBPJAh8cLiiBW80sIeteDZZ591w8oAcmK42Morr+zywPKEI8qlWeAXX3xx+dQ6n6rbsm9kk+Nuu+/mlFE6XCyfxgqkE0WZIX5mXR0OGFJHvTKCg8yCCjX5RTllHh2gkwLlNyjfWkF94XvEkffIj7GW31gjKCPIJmUWsgkRgPyRn0xHwFJNveBZ5G91hDxBRnRs8C1EZpA75l5joYK0mL8QJTrAIIgQNsgUYRgIC7/wHzIDuTNr3kBkEzIJ2YTsQErIP8oKcYM0ERdIIYQGQsUoA4gQ9cPSwQgV5k5j0TOCxzeJ+0ZmiQ9kDNKE5dLKIGWTeBMm4F0IEkPvGfFi8qQTDdmYrAdCLWSTkR90ggEWFyLdWI7Zvoe4QECxyhM/LLO8c/3117s2kW8qMoEQQ46xJENIsQBjZeT7RDpp2+y7DwgfRzqRMSSc/IEUBvMHeSA7QLtIObC5/HRAER4dFnQqEG8sqqSBuBJ3K4/MNWW+vCebJczXylINSsoqw9pU4KrUYuXBIhHNN0k0O0niZcd5rKJrqXCtdpfItPSGEVe/+s7LvzN6NDff/UmSdNfnP+fZhP7uix/H+ePKM8F3guH1f7+SG8C/wRxh6HPmBo5/STb9/M9ViEvoWtXwQy4ZiM/84QfCca6O9Oqzfe9XiHevqxB/PQ7k+r+Hayq5XJPeV8cx16yuUaLqHKFUNDQwYDNeut/rH2mv4Mrx73PB333npfwJu2D8ykcnh/L94LlzlX7btfJxkPdL8rK4qeN377XAUcuJc73XBnLV7oechVd2ffEvxVMKTZoHmhdKNN0nCOLsyDPK6fAU//EAjRcNDQ3UUIgmKLJqlgJ/UOiZrwJQRGlgd999995G3hrvINGsByj0Fh4K9YcfftjbEE8EEA/SzXBKFsMANODDAQoHioARQhYDYogURABrwEgCiwDWAJRAC28sQY87SgzKjA0VNFC+6gFzkgB+YHlgHhlypNxBCt0q0npEUdx+++0d0TaiSVjcqxe8i3UGZdUU4LEEMkO5hvQNt9wBhtMxlxWLCwo/7tBDD3VKJx0hWL5sBUuUc5RgC7eW+m3PImvKG8MhyS/kb4r2ogbKPqQE2VBeIYt8n5mLx3BTFoOB3GHxw8rGOZ0yvAPJoZOD9x742wOOmNnweIgMdQsrKPfpiOF9/GG4JMSC31jhsIrVQibIK/zCwgqIM453jTyysA51gW9KJbCID/lNXEk75QZ/IVX4YeekzazeWAlJN/Ig3hZ/fkNIqQfEa7QBWQMsyEU8ySfbj5Q40wlj9YA4YUFkGCv36UyDKL744ouO3JE/gLrLO/jNUFyIKemDPPKb/DnkkEP61TMLAznyDUXWkFoWkLNOO/KCociQffzmHUgq8bT4GsGmTo/H92uiwpWkosq4v2PenqOdzmHBdNYhFv9Q16DKOkPdyBqsFjF9bDAXr9PF1M9+17S+9nPBexVclGP5WXcecLXExz0zQHg1pSf4rrqq74Seny/+gXvzxQ1n/pgL3a8pzgFXNfywC9wf8Blc+F7ovV4XfEZdxTQHHPedK5fF0nuFXhctu9LA8JyWW31AEW0oKr2JKQFNKUkyYtqofrIwkt5X/3C9cQmHXeF6v/SF79d6PezqfH8+edm9ar8HcvZcrS70vuWP+45gMS4k1cVL3xCVb3+gGJcdFk1cVajn/dzYA8JiCwPVCxRCs+jQuDOnxFYgRDlijg4NsDWMpojgUPbrBQ0g4dGYYo2F1BEuimq9ZGQ0QEONwgTZYIjSSAF/UQRRZHbaaSc3rAwLkK2QiPXYZFwP8JdhWgYUVuRoq/yONVB2TGnD0o4SBoxw1wIjiUaWKWtYdPAThZS5TrF4zLk111rTKW50kgAjmoTF+VBAXJmHhWzHGsgPBRcZjkT+ITPkiF/BTg+O1EEWgTFSgiUGElBPunnW6jSECGsK4bDJ/KTWSeWnFh2YXJGlWZIhKBBO5MJvyi/Wpi9+8YuOoDFElbrCuxAa29bnoYcfctY25Eu+8F0i7+gg4DuCrFmJdLfddnOdgiwMBFnD4sa0B/K+Guicor5QDoyg8JsjZBDLKZ05xIvwwyD/sRgCiBRpJFyID0SMhXMoX5Rn/ISIcU6HCvMVcQwTZegwllz8wOo4VnUPOfINZqgzHYDkGWnmO4rFHysoecY3lm8qC5UhMwg2FkXmufIseUC6kRH1wPKHRZeY2oIlmHy3/GGVXuRCnpNWjjjCIv10ENm8VjplaS+wcpM3DPdlYSbkTryJJ+/hD0esqjZSwaOEql9SlMGSs4WDSsM4zc2PkrJCMTVXN2pSMIPA+lpynJdIRZ+ze5AMIxr1IfhODe87ol4rSs8GZRWULy4oS/eMWYLMOT8CruL9WqEyq5ivw0WFOLi4hVDp2pBQLkP95FCy1AdB2S6RoKBDBn2OuJfKjj4fdLXKqTf8IWK474fjT5mqx1VK+wCuhJLMwm7gcoWixTMLJkwhZ/ggDU29oHEFzCmh0QrufUnDz5wRCwPQIKIsODcEZd4UFt5H8UApopHk91DiP9KgMQcoAigMIwHShn9YlLD8AJMpacaqgKKIxWO4gMCjyNFhQF6NNVBKSSv5zHA00mkyrQVGXIBZUlBcUeQYHkxnCMMSTUlDSWfhDIYhQkSBWc4r7UtXDeQHFlIUuvGQH7JDSUdhHYplNgzkb/WKcoh8AbKFUCM7gCwZosfcWs4B79VaJ/GXsHq33dDvSXfP2O9TOt6grENaGOrInDyGVNKBwFxFLHvM4cN6zG9GkEAMkDHTFHjX6g3kEsKAP9Rp8oY6AJljuCWWaogPnTn4BRlhqxD2jmTYKySH/K4GCA0khnrE6AAsaPgN+eMaVryvfOUrjjATdhjUETp7IKQsGgT5ZeVU4st7lAme4XtEfPCPIcXEkzKOfBieS9iUe4aV8hzvWP0fTSBz4su2JVj6Ib/8Jp+wIjJ8l/iwYJ5ZninrDEll6LC9a6OBiDNDqPGL/CGN5A9zVMkfCCrbqrCAEHUdmdrRzvEfOTAslxEIyIj5tFhGkScy5lnCpr5ypLzQeYlskSfx9OiD+5JXVDBxZQWQh0rERxVG9kFUxXdAFym53j0GA47FhnBZ9bC/00IdcDm9lmvQY9kxrLe/C4WpzsJwvyMax7KThpwbDuyc3rM4VI5HyeX03mAuW8UFw8CF49rPcV9db/zd831pBSr6ktP7QX+z0VxFF3wGV/KzRqfPksbgtfnTH5KZfk+DLvx82PWTVzTk9FrF+AedySf827n+ZQlX8ierz6rT8qBPBcq3KhPM13TzkUsuWH5Kri9/+rtguH0uHP9+6XWuLLfeONpvc5XeCTp7ztJHmH2uVy4BF453yTEnG2e/zYWfr91VCrvPqSyRv3Mqe3NVoYmyzoMgan5/dEHDRINpCuJQwbwUFBvzB0WB3neA0muklLBMAeXcUKtSSmMKTJEn/rzL0KFa/RhNEC8IEwoGcRoKKskHmLKGYmX7t5lCiFzozWY4FxiqLOhxR0lEaWWRo7EGijVlBaWLtHEkbVZ+qgFiaUDZAvhBJwidH8glrITyDrJm2BlDbyGrlFksEfWC8oj/KHW4sQZKImnMKbFgqPpIwOo06TH5cg45AOQTv1FsrdzZsZbvCn5GI6W8xipD3CnrVscXZiA7kx9lkDRjuYJwMq+Sc0gj8w9ZuAsrGsNeuf/nP//Z/WbRGL4FVvaoKzZHHr+ZxsA3ibJBGOQJhJVRJxBPjlgmGSUCmaPTCsuy5R3fAvypBOJNXMh7rG3nnXeeG4HBSqqHH364G/JJmDjCxx/SaNewArJKLosS8V3j24N/DB0lbQzn5Tn71lEukAmEliG2xJUwWckVcg4po+wRL2RBWJyTFo7VYM/zrn0XrCxDFokD8kUmHHF0emKBZfg8lkoW/OF7Q3yYSoEffNfIHxz+B6eW0E5CLPGLsIgD8kR2EFH8oyOMbzurjXNOPQl+6yx/iBf32A6HfU15nzmv5DHxZ74lVlTig8WTuZubbbaZiy9yZ49gSLLNbacu8h5hES86Dex6MPyFHfMtENQPKHJYejjXoyl21dQ7rIn9Ufrg2VUUXIBiDkor4AYQUiAhBoNh/vD6/zaLioUHZQYo1iWEwp/PvxCqKLgN4fRUwXxPI+sAeuOvCrs7lsNHuS+h//PzySvkXzUUy+H0Yr73Q7/D9+eTT/l3+PoA8bJOjl4MGL491/93b75qePSw8zOqlZz7Ef2gkD/u4+ful0qD9cQDKyd9GCj8Eqw89aF//PvK2eigev2oFyH514n55dcfkXIDkVfZA/KG+bPFkKBoYEqwFITiZeWpzvI90kCRp7eUBpy92eoFSjnKOcoQQ7pMMXjttdecwkHZ5D4NlTXaKFGsSMi7kWhf+q3xHQz02luDhxUERcWsm6YkjCdIJw0x25QQJxr8IGpJI2kgLQyPY86cpQuLA4olc2u5BrDUoXyYbFHCWISDeKCYocBUg+UhYNEJFFMW/kCZMHI/VjCFEmWI9JNulDZQi+yCwGKC5Q1ZUS5JCxYThqNRNlFsKfes4mlgCCIKGEohzxOPWmAy5HjLn25xZZzh6X3fgbEB+Y0lg2Hcv7nqN735OlKwsgmxYOg9CysB5gmyCEo4j+op73yHsIxBquiowSJHWVyYQXmn7kISAHINgjLI6BDkyLPICmLC/poMrWU4JM8gP+5zTv3heUgCv7Gu8T2gPhuJDxIISCbfaxuybnEiD/iW832FlEIMw98T3sfxzeMeZAVSiaWSNGGRJBz8I07EHb+oX02pJsnlcy6OvI8/EGsWBIMAkTb8RCakAfCsyQv/sGbynq38zDmwMIMkDmffzYHAfdJLeBYngH/IhfJO+0M+ED5+Ei73eZ45kISJFRJ58QxH3uVbYvmCv1zHH8o59wmbe5xzDz9JL9u5QDQh46SbdwmXZ4gL8kGm9i7ppd7wHH5au8w8Te5zTh4FOycYzULnIoSZ+6SFdEBWuc+z5CVyIWzSYfV2UUBFLY2LzqkS1/uAKnZ88u2zX9TvXyUHUDaDzsNjQgGSYkTFYwIAZa7ip6g2WH6OY76y9YMt8FAvIIsot6x4R0NIY0YvKso8jR3KBApOsFGiAQVDUYRtPg5KPQtfMBePcPGTxna8QSNP/Eg7ykK9oKFHVjToDMNFwWBuDQ4Ca0ST9AN6v1FGAUoBihphg1rDD1vALPycKhxjDeRHvFFkOIc0IU/iUy9QVkkL6aCMMByNsgmhZJgg86CY0xacWwvhQaEkDrUSzTCYa4Vln7wca1DXGHqH3EaaaALqN2B1SiOagK00KHfkVdDVAstbLFXkuVl/OF/YgQWRtFrnBnU56PiOIkf7rjQ3NbtrzOODYJAfEAdA3nNOWW9taXVEBLIIyBvmVCJrR/Samtw5jvJPmeE81ZjqfQa/IJwM6yTsSt8Trlv9gvxAEiE11F+uWzg8x5G4k07qBkOliTMgLNJC5yFWWeoufuKHdS4SJ2Dfe+6x2BFDSvGb+JnjWe7TXlj4VnYHQzC95At+cSQ9hElcgv5xj+8u9ziysi7DVPnNPcsf5E+aiTvXkAuOb7z5xfxJzok3+cY579HG0RHAMzjuG4Glw9VkyvMc6ZAlLsSduEL8yRPO8Y/rpJNz4sg7LJ7GXqn4yXWOyAEgS94N5+VQv48LIoak4RXL379KZNLueXh4eCwKoOHAQmELpNCI4GrFvffe66wRgEYJ6xsL1jCciCGJkB+W5LdGCtCLTg940KJUK2j0ASSXnlYaQBpfGkfOxxs08igUNNz//Oc/3TVLdy2goTcwjwdr87333Ov8YkEQFBbXg122ogGUCVNCkKuhnnAN9KIjYxSSobw/XCA7ZIACxHwwVmoknVyzvK8Gp8jqOyhyvEM6UGohRChXprRynUWqGO4H7B6WAN4fClkkX1AaUebqqUcjBVMWh9p5VA0mO7OeAxTVL3zhC+68XiAj8pwjJJ35ruQLv2vN7wUZdMYZKPPU4aCD3FAuIR/Ig7l/NpfYvjUQD1eWy98GrnV2dbr3Ae8ZETVyZ/7zDo68JJyu7i5XdvHDCAnxIj8qlWf8Jh7mB3HhiCMswsBfew4/eJbvC3HlnLhbmBYG7+KXESfiECR+WEU55x5HHOTH0gwsTrxLGPhfDdSfYHrxz8oj17nPuflHPAkDC6DJlGs8QzztOZ6x5zmSXu5znXjiN3nN+9y38KlvvMMzgGs8Q1vHOzxr9wD+4XjH/A86ZGpEFZnhByAc/OEdC59r9j3hiPyRN89YPiwqGIY5QV/WMj3woh/V0fv+kC0TPFv9+QXdwjpw/Mm+YWXhyGDI+TfWUFkx5DLo9BrDYJnraa5PruYqg5RO5NRWg8U/7GqFlcuwW9RgjQ2bvzPv0mCNnbmBwHBBQOMD8IPVDiFG9L6zkTS/aSDNH6xx9KTbMvaARrkWWDgAEksvsjWONKLjDeJBWmiUIUqWLo61pNGU+eDzEBiTHQ0/SiMwyxWNPvloYYOgAlINNgwff1jYhtUS8Qe5jjVQagD5zDwshsnZQjHBVXMHA3FHNgxPAyY7SBFpNCLNPEGewzrCNVOe7H1kXS8gqcwVZYGU8QBpZQERNowfjfpA2WP/RIb1mVwZ6g2s86MeWByROd8OlGjkjt/Buj5WoAzgLGziMdoOGdh3GJhVizhg0SQ+1GdXLrV+8G3haESEemrEgyPfWp7ltxEFfgOr0/YM/hI+Ydi3B/+JF+TNLKNWN8JxB7yPf/hl9Yh7Fi5xsuvWDlj4PMM5R8gnzxIPSyMkjueQBc/hB7/5JuAPz5NGnPltz3CNc6vvPMv9wRzPmlxJD9f4bXHlt/kNiCfPGTFHvjxn8eLIfUsnsN+8C3iOa3bdZACsA5UwTWbEgXJBXMkfrgfrEddx+EX68Qu/iRthIkueI408w3Xum/y4buEEHbDyhr8gWEeD5+MF4kk6iAtxHSnU3xJ4eHh4ePSCRoXGDusYyl6wYakFfNhpqGh8rPEMAgWCDz9h0LAZ+E3YQwXvYsVDqTd/huPfSIE4kGZWA2RYINZXA3KqBgiQyf+SSy5x8xZZ5ReHjJFhOH8IB+D/Siut5O4j31rAswyjtTzEEm0rHZK3Yw2LBwoNFnfKFKs2guD83oFAemxLHYbKApMHczRNITIZQpCwsKOQIVucyc4UqnoASf3vf//r5j6NV3mEpNN5hKVwNMACNYD0sYo1C44gR+v8qAdBcvnSSy+5eYjkRaVvyVjBlHfiRHkZTUdarewhB67ZUGLKX/j50XDUNVyle1gWLR4o7+H7o+2Qg8nDrhmZYghy8Js6EvmFfwxBRh7kSfAe1yCVhE0ZCcZptFw4X6xcEjfqnxEqfo8EgmHV4mjrDNbWj6cDtF2UW4ZQjxQ82fRYpMBHpuTocavHjucxmiBPFlRYo8rKdMxfqxd82M3SRgOMX0FHg4iyYjJCoaJBDyoJ9Srl9j7EiIUY8Bs/6vVnNIAigkxJJ5ZbhhIbjMQMBobVkQ6Ud8g0ViPmGrLSL3umhUkgw2ttr1HygaX3Tda1WJpMduCxxx5zQ6DpLUdxGA+Fv6W5xYWLEkWaIG31LFxFWbM5qAzpZj4TQBFhoSHSa2mGvDIskQ3TAdeRL/NkgSkv9QCrJsPhsKJaPowlKBvkHfViKMPUq4EOqTvuuMOljTq43377lea4DWPlW/xijikdM6zsSR6QP+MhP8oe1jTqMOmjPI2mo4wRnv2m3BMuijLlH1mY4z75a0c7x9kzdt1c8P1q9/lt/pkjLsQDkmNDeSs58y/8eyguGB/yAQsrbQmyCfqfyZYIOaTPnN0fqqPctbW39RLa4D3C5Br1y30/VC7B+6PhCDP4m/KCPDhWuoZDZubsd/AYdsHrwbBqcbxDGcEN5f2RdtaWAbP2jgQqrkY7UHNuqk2xyjcxvJooCw2Bvvfr47gDr7ZZ8nF+3/qHHwbDJkFfOsI+DP5+taGiI70abS/K4fatRusO82HMV6OtirJ/YbkNEK9w+Rk4fHuu/+9euWh4/Vej1Uta9pBPmGjW1yiX/OrzIRy/kN9V6stwMdTVaPvHsg9KZcpng2OoQ2bnX422skLKx7eE/vnbi4HqYZ3lfbjgAw1JYR4lS82blSz40Qbh3wbmt7HwBA0vDbH1tBpQAJ599lk5+eSTnQJBg8QWEwyxpZEjzIH8Hgws+8/y8Mw1Rdb4TRz65D5+II3IgX3NIIMs608drTedLEcfXCGSNGLpNIsdw4ixeDJH0MAekvXOn0NmxI299nKq3LCCLsoLvfiEO5YgjRDOjs4OFzZbGzzxxBNy8803D8l6xv5ybPZOGinrLArEXFjKKnJDnixuZYA8sXVDvbC4sfUCdchWCB5K2R4OkBl1jq0jSPczzzxTvjMyYPVjyjXyo6wwXBdrOukcSlpNbmzvcP/997t44y91iONYyw8isddee/USidH+nlgZoa5BdMk/vouEyzB8rPtBhONDPIMYyn3KC8dKeUh8GFofHEESRFj3GIn8sjjzLSC+fIsgDqz0Ghy5gePcCA9xJc+GAyNM5AHlD/8tj7jHkTJPBwu/qQcjiXD+kCbiQXyQh3UAYu2l3WVkgM3rJd48b3IBvGMEmWfsehA8TxkgbfXmH+HZCsos6lTJ/7EEq+Lb6uUjicG3PqmCYlmm1ZTdgdD3fq3K4QAfrSokxn4N8PaEx4Dxt3SPsXI9P8Lhj7OkByoPet2IjqGgFds6Q/oQjn/p/kCpsnJsGGp9GCkMVBpqzZXhvj8U8LEONxILCog38QcMYcOSts8++/Q2WCOhPLAFBPMAzWLFqqonnHBC+e7QwH5wWAQgC8SRRnUi5AMyI50oA1hrmA/44Ycf9i5Nj+JUD9hsG4umNeKWVkBDz7kpGqyACgmvhIHykfwgvsiN1S+xIjLnD1mi5Iw1wsoKVlvINYoVC/6E71u6wtftN8v3o6AaIbcywpF3OedZfmMFxRrIXqPWcWLK3UAIKniAlSMhyKzKOZDMRxOkhXBJL1ZhrNXsmQeGQtaByYFtKVAoDWx3csMNN5R/1Y5gXlkeMLLisMMOc9vSoFgjV+6NtQwJG+WdBc4o/1bXxgrIms4/wt55553d/o31YLjfPyvHBtJPPOjs4TuDGwzDDZ+6ZHmOX5BwCBVkiPLGIl+UEa4DyhJx4ln7Hg4H+BEkm8HvBddY/ZU48F1mf0yTR7BMA5NDWJ5hhOUVfp7fxIOw7Vl+I6Mf/vCH7jftqclhuPWl3veRFaNugC0UOJYgzaSdeNApSecuIy8A10fq++HJ5gKAAePvyWZleLJZEbXmynDfHwqsQVoQgXIDAaIBY+Eehn2yz+BI9thiodtuu+16P/5swo0Vjd/VGuNKYLgdxIi5cQxXxE+UjImQD6QJWRIP4oMFlxU2Tz/9dHet3sYPBZ93mScHcQoqVHZOg4t8b7rppt4FPcKoFu61117rlAbmzeEfxJj4EsZYAvkFwW86FphTjBzCsHRVeg+QBwz9ZLsTOgBIl5UTlFjkRx3AUkHZZxinKW34UU1uPIPDz9/97ndulVas/RAGrtnKoWMFtq5gJVLq70EHHeTSSd5SJklXvUDJN8Wbjh3KCDLB/f73v3dKd70I5hX+sN0Mijt7/VHeCA/lEfmNB+jUCM61HktQHik7yIXyGRy1UAuCsh0KwuWd/CAeZkUjXwbDcMMnPIsDsiA82if8XWaZZdyUAvbK5Rkc1ynXPGvldDiwsmd+WRgcCYf6xFZhRx99tHM8B7gehMnB0jIQwvIKP488iAfhkEb7HkO22SKG5/nukzecU1+Hg2rxDYP4sBggYFTNWAOZIEOONtJnNMjm+HyJPDzGCZDLoPOYGAg3NAsSTLEGu+++u5tzBjkcKWBNQcEnDBRgjjSeNIq2Cmo9QBE4//zznfV11VVXdddoVMZLMQ0DpYDyQHyYd3XiiSc66w9EsVIckUfQhYEliYWCGIqL5YcFWfAHxzlK+i9/+UvXQYBSFvbPXDUwzBkyh/JAfqHwDkRcxxLk7ZFHHulkgMJbK4LpXm/d9dwQPIYH2zYxAIUNxZE8YigtFlQro6AWufGM5etvfvMbN2wX2VFOh6v4DQWs0kn5Iw9/9KMfOQLNuSnF9cI6nThefPHF7nuBlZNOHoabjgQY9sb2M8htvEFeIj9IO+UEuY2lQ850UFCukHWlZ8bSERfigQOVnhlJh8zN8Ztw6SQCyCbcltg7weNw3KB+RUsE1MgonVQ8NxLhDuTC8SH9hG9zepEB51wz2Yy1s7hWujfWbrTgLZsLAAaMv7dsVsYgls35oPcqSy/4bOmJgVJl5djgLZuLFugRpZGyXtMzzzzTDUWBcFoDMpIIDuUj3HoVzPfee88RBoY7QhTCPcPjTfxRglBIkCeyQ6bMS2XuJcOMwvENyzd8n9/4h7/IDpj87DeLs0DchzJEElx99dVyzjnnuCGXEAniDtE0S+pYIpx+wDWzEEOKgzD5VXoPsDJtUC5W/oKyQ1Ezwkj5MUUWP6uVfwglCjGLDP34xz92lmHeg8gyzNuG+40lSAtxon4dccQRrh4zh3Qo9c3e+e1vf+vmsyIP/Dv11FMdmTW51YNgXjFcFcs11meGMVPW8T+YJ2MJ4kY8GC5J+BCKsQT5Rhyog5Sfei2sQdkOBeHyTv1nWDGEjzhVw3DDR+aW79YmESfqGSssM3SUufqAOCEvHM9Sbig/w4GVPfMr+B0gHO7RyUkcDjnkEHcNhNNtv8PyDCP8XiX5W52wNNpKqywGB+hQsmu15NFgqLfOETemb4Dbb7/dHccSVl/IFzoMaccmnGUTpXo4inXf+yg3QVcjIA84yETQhVCnrxMOA8Z/gPSOPSyGA8Z0bBEsC0H5hK+X7xW0GgRdCRzNVUZR6yDOynFfeV4wYPEfKob7/sIClGEUbD7KHA899FC3sf9FF11UfqIE+6APF0HFv1bFl7DNMfwW0sG8On4T56Abb6CcWoNP/FAOsJyh7LOwBHLGca9SQ2j3zdH4Q34AsgvKz37zTPD6YDCSZXnJtiIMB/vFL37ROz8RBYdyMdZEsxKQATJkeBRkncVKuAZsixMQlJndB2G52O+g7Ei3Ka2c2/tBf4JAhuQfQAlGhgyfZe4U+c814jweRBNQD4gH8cfSilWcziOrb5b3dCZUg6XzjDPOcOfICBKEtblexRQQNyv7OVVUUdip07Zq8EQA8iGO5CPxHEtnYfMNMTnV48iT4biwf0b2QPheJVfJz3pcJSALI3U8Q75wrVL7QXyH46qBNBI+zwbDt/Qb7He9rhqoMzbtBfCOXRsu0QT4UY8jP6ztDebjWDnqi52bTEYD9X/pPDw8PDwGBPOVWI0T5RIlGoUH8CG3Bn+sYQ3q9ddfL/fee68jRtbYTXRAOLbZZhs35JChgsAI33iQ40KxtCoryhJ5i7WK+Z7EcTziUw2myLDYDaSE+VrueshiOVYwyyjlkXOsCVhbsLLXuwrwWICtbJi7yeIqtmok9Zi8r2WYtCngLNTEO1g6WW2Xd1G660Vw6DyLkU2dOtURTvvOeHh4eEw0TFCySYMddB4eo4n+5a3/rwUPw43/cN9f1IEiyv6QrLiHBdEWOKml13c0YAotVkGGBDJc0chnrZbR8QSWMhRpVt9lsR/SwNBN6xUea2Bxs04D5kGyNQbbToxnZ8JgsDghL6x0WOwom/lCvtdCVwm1WgrqBUSTcIkX5wxBvvPOO+UPf/hDr2V4IgGrOGSYFXltkSqAbGrpXAgO3+Z55E/akYFZ3OsB+8hS7unQYtErFi+iHlPPx6M+TDRYuR2t8uvh4VE//JfJw8PDYwSBQomSw4qxKPhYkwDXBlPuRwsotKzI+JnPfEaOOeYYN/8RwoQbj/jUCyxByBQLDgv5YJ1lFc/xsuRAFgBbGTD/kRVUiRvyhHBONBAn4gwRYX4xsrv11lsduRsvchwp77X917/+1Vla2W4GwlQLeRtrUM7IW2TG3C6siYZaFuhyQwbLFmTywAg1fg7Fskl9fvrpp+X444+XX138K7cAFnUE/xaEkQoeHqMJ6mvQ8U0JHoMu+LydL6oY7bQvIGRzABtLYN6dh8fAoIxUKCc257cKBih9C8wczeHGf0FP/3gApQ8ln0V42MYBhXo8GjLCxLIK0cTKyob5wKyFptxzbm68EbRK4FCizSrMaqfsm4d1E4tOEKNFnIPzCzmHFBH2N77xDbc6K8NTLY7jZb2uhKAMyW/KJI5VUBlKTScI82CDGO3OBytvDEVmDiTbflx++eWy3nrruThORLKOTIg3i7zccsstTmZ0egCz0g4GCH2lekW+DGbZHKg+shce29AwB3enL+3kyqNZNE2+CzJIC+lArqSf39Qrro2G5ZswrN7SKWOE3a4RLuWSOl7LHGLLN3O8HzxWc6SbMkM8TAbmL7+tHttqvyMN4hl0pD04x5FryIJ8obMk/PxwEfxu4QBpJ83EgXA58pv6wzPEh7Dr7Twz2YKgnKs5wsNRXgjX6t9YgDy39NrvoDMZUFeQT6X4V3JgJPJvIHim5uHh4TGKwGrDKm977blX7xL0hqFYNuoBiilzziBpDJ+lMVrQsfrqq8uf/vQnt2jQz3/+8/LVgZX6kQAKjc01xJL5ne98Ry677DK3OfqCBhQ1yB1WRVZDZfVBQ73KWq0IEgeAdXXHHXeUn/3sZ24lVa6j6KDUTjQQL+KP4kbZQ27Mxz7wwAPdPerUSNbjoPIHgr+xrO60006OaLLNkinjCxNYIZROCPZAJI0vvPCCK7Om3I808BfiQj6ycBN5SmcS5ZPfzCVm5VS+4fw2pb5WR9nGVbpXydF5QHwYjXLppZe6jkLm97KgG1b1jz76yNXTru4uVy4q+REMM3gMXxvsujniY6QKECblj8W8+AaGnzf/Kvlrx+Czwd+VHLKgnFPHWMGZVbX32GMPVzaY483WVZQZjrR39SBYf+yc42CO9DP/+uCDD3ar6rJGwxZbbOFkwTeiUhqquaCsqjme43vENlGke9ddd+3n+D7svPPObu9O6k2lNFRyFofRwrC2Phk1hK1N3nrpMSxY+QmVqwGsmqoSlc9KWNCsd8WQ/lFv/If7vkd/0FhiXaRxevfdd90ctfXXX798d+QBKWI+HuQSQsZ8s2OOPkba2tuckhJsUIIKhIGGZyKDuOJefvllt2jLpz71KbnyyitlscUWKz8xOmArB2QJ2bz//vvd9jE05mGYTMcLlpfhfLR8J35YRTLZjJtvCmHebLPN3B6QDMkcDRhRR0lChtQB5hyyqBIEkzihSKFQTrTyh4WA+DFUFWUSOb722muuw4G4s6XJyiuv7J6ppKwNlB8DIVgXAQs5RaIRN2SbFa6xqqJoQwIA35cgeB8ChaxHU3kcCIQPKcMKGI5bLZgyZUovwcAvtoNgAS4wkIyD4D6O9ONXLVufUPYIk/rMis0soGZ+GBgqT71fY401ylcqgzgGQV4wfJ02IHyvEiB2pBsi9d///tedIwtLNxb2hx9+2JFgyib3w7CyRppIm/mxzDLLyEknneQ6SogXIM20CzzLtXAcu7u7XdiUN+TB/HSmiNhaBOEOVJMbfuG35SNHC2e55ZZz3wFWZK4mE/yzuke5Zz/kIIiXyYBOAshWEKSfeBAfwgb4SbgQVMBq03aN42Cg3WGU0MyZM91vkzWw9rYeEB4dG4COrGogLaSD7ydz8IPhA+RBnnGdfZUtnwcCaUa2+PvQQw+5vJ1wW594eHh4eAwOFAJW3MSaw35a9FRjGUEZq6QoDBfvvf+efPvb33bDJFGEGcJLL7gpHQs6TDlB6WOPQeT7yU9+0s2hHI30ofzRCGMdZpGlp556StZee23X4I9UQzyWQLnp7ul28cfCyVBviDSECcvZSAPFE6LJ3rN0sqBQPfjgg24oKHHgPkooRLOa4jkeQKk2RZS44hgtcOONN8rSSy8tm2yyibPQgtEof08+9aRsvPHGTm6UdzoHqMsLKyDVWDaRJelEWaZ8oAxXIwJDAfXbiNGbb74pF1xwgcvrvffe28mcYdN0ZM2ZM0fOP/9899xgjjIddFwjLZXuVXLE5aabbnL7pvKbfZufffZZ13kIkaDdIE5mRQuGHXa8X+l38Hqla0FHOITLfb5/WBeNaIJK7wT9DLvg9eA7AzkjQ5QBSCfAakcbyqgMyB0EGrfmmmu6+/UgWKY455s+mKPDBxJHJydzp1999VXZf//9XR6zYBzHehzpC55Xc8SR/KANomwgh6Bbd911XTxZ0Kwa0QyC8EcTCwnZJBlB57FoY2zLw9iGNvqwuZjmqmFhS/9IgwaChhLFgBVVURj//ve/u0aBoTAAy48dgw1QJXCP51DOgT3Hdgpsis+cPPbcw2pFDyxh0/hYo2qNFs4QbEzHG8RzMIccOYLFF19crrjiCuewHLP40WOPPebugXA6TWbB68H7EAmzLIBHHnmkd1gSpJ0ecKwDwBQm8yvo50SHyZL4UlZIF8PAWECKzpAHHnig/GQJyA2ZmLIXRjDtQRkDFOU9dt/DdbSglDEc8ROf+IS7j9JEmUPmHCciiaL+ED+OyMzKBgQEpR9rCkomnRF33323S5cbXVCuo1avKFu8a/IBXON38BoKNs9DfLCeUvZ22GEHlycomEbA8MvisjCBbyTzoZG11THSOVplA6sj+UBZ/Nvf/uauER55Sl2A3GN54v57773n7g8Gy29zFu/w9YEc4VDPIFTUGeokHUGUg6222sqVFTq8eHYsYOUMOTFXHmBpHq3wLTxz1AfKANY66iDYfPPN3d7Ghx12mBtajGOo84orrtiPqOLI2+AxeI6/4etWH81RDjlaWWRUBnWcIc4Mo2U0CB0kp512mosHQ2wB3wwQzNtKDv+D55SXag4wKgTLJtuBIQvyhjaKPb7xi9/Ir1aYv6MFrxt6eHh4jCHofUW5Z7EehiQxpOi444+T5557zg2Xs4bHGltrtACNHPewFNHby30seihnDKuil5XeViwt06ZNK7/VB95d2ECaIITIDyWEOT0bbbSRm8/JsGUacICsLP1cs+tcM2JEg8tG/QyV3XbbbZ3Ch+Xq+eefd426KTsLE7BSUMYYUoYFF2KDZXy11VZzwwlRnqzDIh7rS3+QVCFLVmbFH8olltKbbrrJbQGEDNf51DqOdB5wwAHltxcebL311o5Ao/iy3yVyu+zyy+T9D97vtSwgI8oWCm3Q2oBczWoDmI/HCAgIDsQSGTNkkoWokLGVU4+RA5ZCk+3222/v5tjTaUBZdmVe88YIoH036nX4Q/5Xuhd2hPPd737XWc5ZMZp4UW6Yw8kQTuJDPPEPfyv5wT0LL3ys5Ko9A9lifvfjjz/uRidAbvieVnq2lvDM1fIMLvgc9YU6xCJntHN8o1hkDKJo98PO6lml63ZvoGcoB/hLPrz44ovlUiNuGgX5wbDel156yQ1Npo1Ya6213HuQc2DxHsiRh0FHOupxvENeICOGnNPpTAfiPvvs4/KtVkCkRxMLyZzN8H3/QV60MVB5CZWLEZqzOdFKXzHEJ2qxTg4HvvYNDhqUIGgAmOvFESWGxgoFB+WCeUEML0TRRGll+O2mm27qnnvjjTfkgw8+cHtNshAC5AprB4tHYDFi6BlDZwANI40noEFakBCWVxhhhZtGEmWM9NLo2jw6FDWGazIEEasTpBFCTkPMCrIACwHKHcoC8mSF1P/85z+9Cy9gTcBflBuzJo12ozxcEEeAEhLEQHJFdihHPG+yBGwxg9KNJZ4hYxB45nYiQyzKXAP/+9//5OOPP3ZKDnMZKZPIEaX00EMPddZmrID4TxzC+begweQbBnKjnt7259vk9zf83s17otxBDOhQYiQDz2y/3faSzWUdsaQzhCNKLPMBKa+UTYZw7rXXXm7uI+WPfEFu5FM4/LA8uY/iyTvhMjAWIPzhzNkk7hAJ5ueRNuRIGTLFuhooYzier2XOJmSC7yzPMySf55E5YSFvhkxSlpmjx9QEhirWA74bfJPo1Bmo7ARhaUR2OPZ25dtEhwYdYXzPWBWZtIHBvpe8jzyRI88xKgMrXD1zNokPHR50GnGP4fCkhQ4+/CROQZjs8Qu/eZ90c7RwBpuzGf6Nf+YHZYI6wrxVOrTwC5BGpgTQwcW3KQjuEQ/iw/P4g58cbc4m7a9dC4OwTVaEvdtuu7kFgdZZZx03z537lBvqPuSXjl/CwZncBwPvB+dsIqN6YGkijpQNFtSiM4Bywz3SPxiII+WcPKOzkWHkozFn05NNj4UQA5WXULnwZHNE4Gvf4Ag3Nnz8+YCjjNH7SWNtvaAsCIFyz9wYnPVm05DwDso+DScNKz2rDKtilULAdRoOGj2OPI8iZQ3lgoJqjXNYGUGepJHGEke6TXFAtgwnpkceiy+KJJa6Dz/80L271FJLuaFX+AkpYFgUii3KJ/5wncYf/5Avx3D4Ew2mMBH/IAaSq6XL0ghQnkxZQrYML0ThhFgi07ffftvJEdlDLOjN5xxCDynF2gfBNKsRHSvcR0msp7d9IiKskCIjZGBKN4ob51xDOYV4Qxaoi5Q7zvGDTg+GR1LWUF7pYMISjLJMOeabYGWNI50iXCNfggiXR/xG1jwXLgNjAcJfkMgmoI7zPEfCtHA4Yo2/7rrrXJroEKCs1wPqTz1k0/KNeHBOpxcEjzrJ+wx3pyOCumrXBgLvI0/8Qib1kE17h84QRjtQdhkmyjBnvgcM8cVvSF8QJnv8wm/SQhw5WjjDIZuUDdo44kR9IX62FRHDSO3cQByJB/EhbICfhFNpgaAwuMZ7hElHGqskUxeJE20wq9HSxrBQEvkBYaNeU9/5TfiDAX+CZLNSHAYD/hMfygh5AugwpV3jW1TNP+7bc3yrRmuBoIlJNj08PDw8PDw8POoGijMK8kgpivUABXU8ySbADyObYTIUhpERQHzpDEH55hrD6Vl4hvmCDMtnBEk18hBW7iFYRjarKf7ACJl1yjCEn44yHIsEQZpYfRsSGo6L+U/+A/zhGa5zrRayaWWH6+QlQ3qxpELsbE4rpJvpCoB8BpArCBkYDtkMA39JA+9jrXv00Ufd4nCQSuKK36wgzHYsrFcA0QrC8tfIpsWFY5Bs2jWTnYGywHs4FlODGBJnLNzHH3+8e4b51XQE07HBkHeG0+If75DmarAVdNlDmjjUAwuHub3MJ2UIPmtBEC55Uy180kIayTM6FP1qtB4eHh4eHh4eHh6jBIghxISVPplXj9UI6+ZBBx1UNxEYCmwUAA7yxrDq/fbbz81NxLII+YIEc8/I3UgCcoGDhNx5552OaAIs7sQBMsI+x5Ay4njuuee6uYJY8SB1OMiPHcMueN2eH8wRDvmBO+WUU9ziesSD36Ap1eQsjDz31ltvuWsjCcsP4mvEC3KGhRcZUT4YpYDFmziQPxA8yhHvjQWYWoP1nXCZb0+8cLUQ3bGCJ5seHh4eHh4eHgsJUDRHyiKxqAGCw0JPLDqDDLFgseUJZGMsALlhv0aGa2I5wzpFfjIEnTn9EBimWmCJIq6VYGQDchw+VoM9R9pZI8CA1Y1FgrAisscjzyETLHlYX4kPZAvHu7W4Wp6FtPEccWIeuZFbwuZaR2eHm2pCfLCojzQgbDYklukBZiG1ofEQT+JoMg5OwSDeow3Cx9KN/LFcMx2EuJhlfKLAk00PDw8PDw8PD49FEpADA8NFsRIBFnth0RUWEmM+G/PxRhuQGfZvZSjxr371KzdPENLClhasVAyRCK5GWwk8b0QufKwGSAph8Dz7F7OXJYQbAgzRZCgrllaz2rHvJpZFSJmFi+N+8PdA1/k9mIO0MYyZuDNElu292NYD+RAmcxXpDAAMLR5phIcEMy8SsomVmQW+iB/b5NjwXfLOkeCOvr1IRxN0CDC8GsLLVijWKUI+EveJAj9n08PDw8PDw8PDY9hA0R7OnE2GJTI3jjmbvM/8MRZCg5ig9KPcVwMkBUW7ljmbhMHz+M08QKx3g4GFYOoB/kIEal0gCBBn5h8aycJhwYJAkH7m5LFIEGRrMHlY2ngG+WH5YihqpTmbPGPP8h7PV/Kb/GHepC1Gwyq9pI+48T5+hQka6ebIPfyuZ84m/lKekB/DZOkMIA94D5ngN+ExzJc5pbYiu4E4EQ/iQ9gWF46V5myaXAbCk08+6VYpJ4/wGz8NrD7NMF8DftaC4JzNegHRZsg3q9KzEi0LFtUDkyMy9HM2PTw8PDw8PDw8FmoYOUDRtd8o9JCA0bDU2LxHlGrOP/e5zw3qUM7rcaTDXKX7YQfJIx6s/MyCRMH3WIWc+Zp77LGHk0vwvaAbDMH4BB3v2TkYyJ9gPhBPiCZHy7eRhpFsiCorrGLJRC4QUK4zvBh5sNVVmGiOBlhxm+3KIPvIiHJDXFigh+G9Y42rrrrKHVkYiLmjExXesunh4eHh4eHh4TFsQFaGY9lkHhwEAgsaRMOsY0Y4awHEB0JUi2UT/wnHLHnVCFO9lh5IEoSM7XCMyA0G4kJakQNxwlLFFlgQOps7SNrsdyU/LY6kBz94hmvskcvquix2hIwAYZnF0ax/g8HygPwhLsQBv/CfcMxKxnPI0uTK0fxffvnlnWWT4bADkVqDWXN5n3haePwGhMlv7mH9DJcR7hEPC9tkwXEolk0rjxwpp5xjaW1taZXunm7nh4F7tWColk2TgcnHUE2mQfCs5Zm3bHp4eHh4eHh4eCzUMJICIAco0aZM2/WRBEQQ/1GqOSecwdxow4bOmtUQ0o5MuA6hIq4QMEg0JGGsAdkjfOJIfiATjsSL+EFa+D3YsR5HGtlf1ggR5JGwIEJcC5Jj2696NEGYxAEH4caBdKa0Cu1YAjkQD+QCLB8mIjzZ9PDw8PDw8PDwGHegPAMIlllVuAapqWZ1GgogThAWXC3zMYnTYG64II0WH7PqASOaOCyKOCN9YWfE2M4HOtp50Nn1Sg6QF/Yc4Nzyysgg9+w4mKvlGeSAvxyD5YDwSD/nyAQSbKRrODAZD+SM0Fn8LP1cG4nw6wVhWtkgPhMVnmx6eHh4eHh4eHh4eHh4jDg82fTw8PDw8PDw8PDw8PAYcXiy6eHh4eHh4eHh4eHh4THi8GTTw8PDw8PDw8Nj2GDhFuaQMf+ReXb8HkvH/DnAXLZK9wdyzHmrdL1eF0bwWqX7YQT9GooLw+Y5MteQeY04wJFFiMKw+aKVnPnPPMWBXDUQHxbVwb+RRDj99tvy1Y6UTeZ6IhO7zjnyYPEfe28kXC1lCnmYfDmv9MxoOpv7y5HwRwuebHp4eHh4eHh4eAwbEA6IHkQGZRvlfiwdYQJTnCs9E3YQ1ErXR8IBZEK8OFZ6ZqQd6bE0Ea6FzTXkYvfpELDn3bux+f2q15lfvX4GnfpPmJA6yC8kZ75nRtmxPUpLS0tv+UAunLe2trp7/B6Kw4+gbCuFXclBvC2POK/0zGg6wnREMzJ6RBN4sunh4eHh4eHh4TFsoMBiKUJ5BhDPsXQQGIiMkYBKz4Qdz1e6PhIOvyEfxKvW+AzXEaaliXCxmhkhIi4QPvttz7t3c/P7Va8zv3r9DDr1H2LDPQgn5WS+Z0bZsZ0MFj1g1j07r2TprRWUd7NQ4girogxCjvxADjjOKz0zmo40x6Ix6ejs6JXFaKChvb199Hz38PDw8PDw8PBYJIACO23aNNlyyy2dAo4SPZaAQEFkwP333+/iMRhQsIknJNkI8kgCckM8tthii17r2WgCeUMkAaTHyAwyueeee2S55ZaTFVZYoZeAcs/SbuRzMFTLT+7jB+FCtggDGXMkHI4PPvigLL/88rLsssu6ayOBcN4ZcSJNxIP4kGYjlNz/97//7c433HDD3njae0MF5N6An7Xgf//7nzuuvfba7jiWQD6W9hkzZsiSSy4pd9xxh7vHtVrTUA2ebHp4eHh4eHh4eAwbKPYPP/ywNDc39254P5ZAOYZYQD5eeuklWXXVVct3xgfI4dlnn5WVVlrJKe8o92MJ8mPSpEmO5L799tsuHuOJpqYmef755x3phZhWI68jDcoFDkIM+bQ8gYxTbsYaWHo//uhjd77EkktId3e3Ox8qhivPJZZYQtZaa63eToORgiebHh4eHh4eHh4ewwYKKooqyrvNQRtLQCQgDclE0g3bhGyNJ4gLBNgW5AlavsYChE9+GMEaKUvVUEG5QBZWLsY6fwgXgomDbALkgxsv2Vg8IL3EazgYbhqICzKyuaQj1TniyaaHh4eHh4eHh8ewgbIKgcBBrrDcjCVQtlGSITQQrfGwVgWBHCAQyAEF3ob4jhUIH3lApoxojScg28jCrGZjnT9GuG34KDDiOV6yMRlYWRkOhks2KZ/kEXUXGXV1dZXvDA+ebHp4eHh4eHh4eAwbkDzIDcNHOeLGEpAqVhtl2ChK/FhbEsNgzmaQ4Iz10GKInVk2kcV4k83mpmbp6u5ypAaZjLU8LB8g3kGSZ26sQf5YuMRnuPIYLtnkfYg384uVH3rLpoeHh4eHh4eHh4eHx8IAOgaGg7Hu3KkVYzsz18PDw8PDw8PDw8PDw2ORgCebHh4eHh4eHh4eHh4eHiMOTzY9PDw8PDw8PDw8PDw8RhyebHp4eHh4eHh4eHh4eHiMODzZ9PDw8PDw8PDw8PDw8BhxeLLp4eHh4eHh4eHh4eHhMeLwZNPDw8PDw8PDw8PDw8NjxOHJpoeHh4eHh4eHh4eHh8eIw5NNDw8PDw8PDw8PDw8PjxGHJ5seHh4eHh4eHh4eHh4eIw5PNj08PDw8PDw8PDw8PDxGHA3t7e3F8rmHh4eHh4eHh4eHh4eHx4jAWzY9PDw8PDw8PDw8PDw8RhyebHp4eHh4eHh4eHh4eHiMODzZ9PDw8PDw8PDw8PDw8BhxeLLp4eHh4eHh4eHh4eHhMeLwZNPDw8PDw8PDw8PDw8NjxOHJpoeHh4eHh4eHh4eHh8cIQ+T/A9LUVwRLDC0ZAAAAAElFTkSuQmCC;" parent="1" vertex="1">
                    <mxGeometry x="-1077.3" y="610" width="617.3" height="210" as="geometry"/>
                </mxCell>
                <mxCell id="501" value="&lt;div&gt;&amp;nbsp; &amp;nbsp; &amp;nbsp; &amp;nbsp; &amp;nbsp;Advantages :&amp;nbsp;&lt;/div&gt;&lt;ul&gt;&lt;li&gt;&lt;span style=&quot;font-size: 12px;&quot;&gt;Provides a standard way to traverse various types of collections.&lt;/span&gt;&lt;/li&gt;&lt;li&gt;&lt;span style=&quot;font-size: 12px;&quot;&gt;Supports multiple iterators on the same collection at the same time.&lt;/span&gt;&lt;/li&gt;&lt;li&gt;&lt;span style=&quot;font-size: 12px;&quot;&gt;Enhances code readability and maintainability by separating the traversal&lt;br&gt;&lt;/span&gt;&amp;nbsp;logic from the data structures.&lt;/li&gt;&lt;/ul&gt;" style="text;html=1;align=left;verticalAlign=middle;resizable=0;points=[];autosize=1;strokeColor=none;fillColor=none;" parent="1" vertex="1">
                    <mxGeometry x="-460" y="600" width="450" height="130" as="geometry"/>
                </mxCell>
                <mxCell id="508" value="CustomIterator2" style="swimlane;fontStyle=1;align=center;verticalAlign=top;childLayout=stackLayout;horizontal=1;startSize=26;horizontalStack=0;resizeParent=1;resizeParentMax=0;resizeLast=0;collapsible=1;marginBottom=0;fillColor=#FF9933;" vertex="1" parent="1">
                    <mxGeometry x="-210" y="360" width="160" height="94" as="geometry"/>
                </mxCell>
                <mxCell id="509" value="" style="line;strokeWidth=1;fillColor=none;align=left;verticalAlign=middle;spacingTop=-1;spacingLeft=3;spacingRight=3;rotatable=0;labelPosition=right;points=[];portConstraint=eastwest;strokeColor=inherit;" vertex="1" parent="508">
                    <mxGeometry y="26" width="160" height="8" as="geometry"/>
                </mxCell>
                <mxCell id="510" value="+Current(): Object&#10;+MoveNext(): bool &#10;+Reset():void" style="text;strokeColor=none;fillColor=none;align=left;verticalAlign=top;spacingLeft=4;spacingRight=4;overflow=hidden;rotatable=0;points=[[0,0.5],[1,0.5]];portConstraint=eastwest;" vertex="1" parent="508">
                    <mxGeometry y="34" width="160" height="60" as="geometry"/>
                </mxCell>
            </root>
        </mxGraphModel>
    </diagram>
</mxfile>